<?xml version="1.0" encoding="UTF-8" standalone="no"?>
<!-- Created with Inkscape (http://www.inkscape.org/) -->

<svg
   width="13.000928mm"
   height="1.5759219mm"
   viewBox="0 0 13.000928 1.5759218"
   version="1.1"
   id="svg636"
   inkscape:version="1.2.2 (732a01da63, 2022-12-09)"
   sodipodi:docname="cephalophore text logo.svg"
   xmlns:inkscape="http://www.inkscape.org/namespaces/inkscape"
   xmlns:sodipodi="http://sodipodi.sourceforge.net/DTD/sodipodi-0.dtd"
   xmlns="http://www.w3.org/2000/svg"
   xmlns:svg="http://www.w3.org/2000/svg">
  <sodipodi:namedview
     id="namedview638"
     pagecolor="#505050"
     bordercolor="#eeeeee"
     borderopacity="1"
     inkscape:showpageshadow="0"
     inkscape:pageopacity="0"
     inkscape:pagecheckerboard="0"
     inkscape:deskcolor="#505050"
     inkscape:document-units="mm"
     showgrid="false"
     inkscape:zoom="6.7277216"
     inkscape:cx="45.111855"
     inkscape:cy="1.4863873"
     inkscape:window-width="1269"
     inkscape:window-height="481"
     inkscape:window-x="2481"
     inkscape:window-y="20"
     inkscape:window-maximized="0"
     inkscape:current-layer="layer1" />
  <defs
     id="defs633" />
  <g
     inkscape:label="Layer 1"
     inkscape:groupmode="layer"
     id="layer1"
     transform="translate(-4.8258213,-98.631526)">
    <path
       style="display:inline;fill:#000000;fill-opacity:1;stroke:#000000;stroke-width:0.0157749px;stroke-linecap:butt;stroke-linejoin:miter;stroke-opacity:1"
       d="m 11.821113,99.090769 c -0.04085,0 -0.07978,0.0097 -0.118678,0.02724 -0.0389,0.01946 -0.07198,0.04279 -0.101156,0.07196 -0.03111,0.03111 -0.05446,0.06613 -0.07198,0.105028 -0.01946,0.04085 -0.02723,0.08365 -0.02723,0.126449 0,0.04475 0.0078,0.08754 0.02723,0.126449 0.01751,0.0389 0.04085,0.07394 0.07198,0.103121 0.02918,0.02919 0.06226,0.05249 0.101156,0.07 0.02281,0.01026 0.04563,0.01717 0.06883,0.02115 v 0.241613 c -0.06234,-0.0043 -0.120295,-0.01827 -0.175805,-0.04297 -0.05485,-0.02282 -0.104912,-0.05294 -0.148351,-0.09009 V 99.97581 H 10.60869 v -0.338427 h -0.1498 v 0.338482 H 10.194353 V 99.637407 H 9.6010363 v 0.338485 H 9.3364667 v -0.338485 h -0.114769 v 0.338456 H 8.9571285 V 99.637377 H 8.3638128 v 0.338486 H 8.0992433 v -0.535642 c -0.015457,0.02443 -0.033545,0.04576 -0.053856,0.06489 -0.033071,0.03111 -0.071968,0.05446 -0.1167089,0.07198 -0.044741,0.01751 -0.091432,0.03113 -0.1400646,0.03891 -0.048632,0.0078 -0.097282,0.01358 -0.1478597,0.01556 -0.050577,0.0039 -0.0992,0.0039 -0.1458869,0.0039 h -0.09921 v -0.260672 h 0.1731239 c 0.097265,0 0.1750961,-0.0097 0.2315095,-0.02918 0.056414,-0.01946 0.085591,-0.05642 0.085591,-0.110892 0,-0.02724 -0.011686,-0.05059 -0.03309,-0.06809 -0.021398,-0.01751 -0.048612,-0.03113 -0.079738,-0.0428 -0.031125,-0.0097 -0.066131,-0.01752 -0.1030919,-0.02141 -0.036961,-0.0039 -0.070057,-0.0059 -0.1011823,-0.0059 h -0.274273 v 0.879265 H 7.0299371 V 99.096589 H 6.4677392 c -0.031125,0 -0.064194,0.0097 -0.099209,0.02918 -0.035015,0.01946 -0.066118,0.04474 -0.095296,0.07391 -0.025558,0.02726 -0.046668,0.056 -0.064579,0.08756 h 0.6267454 v 0.264539 H 6.2046185 c 0.018382,0.03303 0.040256,0.06292 0.068615,0.0895 0.02918,0.03111 0.060281,0.05446 0.095296,0.07391 0.035015,0.01946 0.068085,0.02721 0.099209,0.02721 h 0.4299284 v 0.233425 H 6.4677392 5.3919937 c -0.062249,0 -0.1244931,-0.0117 -0.1867422,-0.03886 -0.064195,-0.02528 -0.1225417,-0.06031 -0.1750651,-0.105071 -0.054468,-0.0428 -0.099225,-0.09532 -0.1342404,-0.153681 -0.03696,-0.05836 -0.058344,-0.122549 -0.062237,-0.188683 v 0.710032 h 12.985116 v -0.647784 h -0.630782 c 0.01837,0.03305 0.04023,0.06292 0.06858,0.0895 0.02918,0.03111 0.06031,0.05446 0.09532,0.07391 0.03501,0.01946 0.06809,0.02721 0.09921,0.02721 h 0.305391 v 0.233398 h -0.309273 c -0.06224,0 -0.124499,-0.0117 -0.186741,-0.03886 -0.06419,-0.02528 -0.122578,-0.06031 -0.175096,-0.10507 -0.05447,-0.0428 -0.09919,-0.09532 -0.134206,-0.153682 -0.03696,-0.05836 -0.05837,-0.122549 -0.06227,-0.188683 v -0.06276 c -0.02508,0.0326 -0.05629,0.06035 -0.09276,0.08414 0.04474,0.03501 0.08171,0.07783 0.108942,0.132299 0.02723,0.05447 0.04085,0.105056 0.04085,0.153683 v 0.178949 h -0.264569 v -0.14007 c -0.0039,-0.01557 -0.0117,-0.03503 -0.02138,-0.05836 -0.0117,-0.02336 -0.02529,-0.04472 -0.04085,-0.06611 -0.01557,-0.01946 -0.03503,-0.03695 -0.05447,-0.05254 -0.02141,-0.01556 -0.04475,-0.02336 -0.06809,-0.02336 h -0.309307 v -0.260657 h 0.173156 c 0.09727,0 0.175064,-0.0097 0.231478,-0.02918 0.05447,-0.01946 0.08365,-0.05642 0.08365,-0.110892 0,-0.02723 -0.0117,-0.05058 -0.03305,-0.06809 -0.02141,-0.01751 -0.0467,-0.03111 -0.07783,-0.04279 -0.03111,-0.0097 -0.06614,-0.01752 -0.103092,-0.02142 -0.03696,-0.0039 -0.07003,-0.0058 -0.101157,-0.0058 H 16.08617 v 0.879267 h -0.264575 v -0.365472 c -0.0035,0.0097 -0.0074,0.01938 -0.01141,0.02896 -0.02918,0.06808 -0.07004,0.12837 -0.120628,0.17895 -0.05057,0.05252 -0.112827,0.09337 -0.182858,0.122563 -0.05554,0.0247 -0.115991,0.03835 -0.17938,0.0429 v -0.241828 c 0.02219,-0.0039 0.04436,-0.01011 0.06655,-0.01895 0.0389,-0.01556 0.07198,-0.03891 0.101157,-0.06809 0.02918,-0.02724 0.05252,-0.06224 0.07003,-0.103092 0.01751,-0.0389 0.02723,-0.08366 0.02723,-0.130364 0,-0.04668 -0.0097,-0.09142 -0.02723,-0.13227 -0.01751,-0.04085 -0.04085,-0.07588 -0.07003,-0.105056 -0.02918,-0.02919 -0.06224,-0.05249 -0.101157,-0.06806 -0.0389,-0.01556 -0.0778,-0.02529 -0.116713,-0.02529 -0.04085,0 -0.07978,0.0097 -0.118678,0.02723 -0.0389,0.01946 -0.07196,0.0428 -0.101156,0.07196 -0.03111,0.03113 -0.05446,0.06613 -0.07196,0.105028 -0.01946,0.04085 -0.02723,0.08365 -0.02723,0.126449 0,0.04474 0.0078,0.08754 0.02723,0.126449 0.01751,0.0389 0.04085,0.07394 0.07196,0.10312 0.02918,0.02919 0.06224,0.05249 0.101156,0.07 0.02271,0.01026 0.04541,0.01703 0.0685,0.02099 v 0.241704 c -0.06221,-0.0043 -0.120064,-0.01827 -0.175465,-0.0429 -0.07003,-0.02918 -0.132285,-0.07006 -0.18286,-0.122564 -0.05252,-0.05057 -0.09339,-0.110863 -0.124499,-0.178948 -0.004,-0.0091 -0.0079,-0.01823 -0.01156,-0.02746 v 0.363962 h -0.264569 v -0.338482 h -0.593317 v 0.338482 h -0.264539 v -0.5357 c -0.01547,0.02445 -0.03355,0.04582 -0.05388,0.06494 -0.03308,0.03113 -0.07196,0.05447 -0.116714,0.07198 -0.04473,0.01751 -0.09143,0.03113 -0.140056,0.03891 -0.04863,0.0078 -0.09726,0.01358 -0.147828,0.01556 -0.05057,0.0039 -0.09924,0.0039 -0.145919,0.0039 h -0.09964 v -0.260657 h 0.173585 c 0.09727,0 0.175066,-0.0097 0.231479,-0.02918 0.05641,-0.01946 0.08559,-0.05642 0.08559,-0.110892 0,-0.02723 -0.0117,-0.05058 -0.03306,-0.06809 -0.02141,-0.01751 -0.04865,-0.03111 -0.07976,-0.04279 -0.03111,-0.0097 -0.06613,-0.01749 -0.103092,-0.02138 -0.03696,-0.0039 -0.07003,-0.0059 -0.101156,-0.0059 h -0.274307 v 0.278188 h 4.33e-4 v 0.260656 h -4.33e-4 v 0.340455 H 12.54086 v -0.340455 h -0.18514 c -5.51e-4,0.0013 -0.0011,0.0026 -0.0016,0.0039 -0.02918,0.06808 -0.07001,0.12837 -0.120584,0.178947 -0.05057,0.05252 -0.112828,0.09338 -0.18286,0.122563 -0.05564,0.02477 -0.116208,0.03842 -0.179718,0.04297 v -0.24177 c 0.0223,-0.004 0.04459,-0.01011 0.06689,-0.01907 0.0389,-0.01557 0.07196,-0.03891 0.101157,-0.06809 0.02918,-0.02724 0.05252,-0.06224 0.07003,-0.103092 0.01751,-0.0389 0.02724,-0.08368 0.02724,-0.130363 0,-0.04669 -0.0097,-0.09142 -0.02724,-0.13227 -0.01751,-0.04085 -0.04087,-0.07588 -0.07003,-0.105057 -0.02918,-0.02918 -0.06224,-0.05249 -0.101157,-0.06806 -0.0389,-0.01556 -0.0778,-0.02529 -0.116713,-0.02529 z"
       id="path20782" />
    <path
       style="display:inline;fill:#000000;fill-opacity:1;stroke:#000000;stroke-width:0.0157749px;stroke-linecap:butt;stroke-linejoin:miter;stroke-opacity:1"
       d="m 4.8337088,98.639457 v 0.710027 c 0.00389,-0.06614 0.025277,-0.128385 0.062236,-0.186741 0.035015,-0.05836 0.079772,-0.110878 0.1342405,-0.155625 0.052524,-0.0428 0.1108704,-0.07783 0.1750651,-0.105056 0.06225,-0.02529 0.1244932,-0.03891 0.1867421,-0.03891 h 0.4104562 v 0.233451 h -0.406542 c -0.031125,0 -0.064224,0.0097 -0.099241,0.02918 -0.035015,0.01946 -0.066118,0.04279 -0.095296,0.07196 -0.031125,0.03111 -0.054461,0.06419 -0.073913,0.09921 -0.019453,0.03696 -0.029209,0.07199 -0.029209,0.107007 v 0.02724 c 0,0.03501 0.0117,0.07195 0.031149,0.108913 0.019453,0.03696 0.042794,0.07003 0.071974,0.09921 0.02918,0.03113 0.060281,0.05448 0.095296,0.07394 0.035015,0.01946 0.068116,0.02919 0.099241,0.02919 h 0.6163928 c -0.016244,-0.02041 -0.031094,-0.04188 -0.04449,-0.06421 -0.036961,-0.05836 -0.058344,-0.122549 -0.062238,-0.188684 v -0.14007 c 0.00389,-0.06614 0.025277,-0.128385 0.062238,-0.186741 0.035015,-0.05836 0.079772,-0.110878 0.1342405,-0.155625 0.052524,-0.0428 0.1108689,-0.07783 0.1750646,-0.105056 0.06225,-0.02529 0.1244932,-0.03891 0.186742,-0.03891 h 0.6870416 0.4412359 c 0.058359,0 0.1225431,0.0039 0.1886834,0.0097 0.066139,0.0058 0.1283904,0.02139 0.1828595,0.04474 0.05325,0.02473 0.099008,0.06068 0.135565,0.105894 v -0.160385 h 0.2645694 v 0.509696 H 8.957128 v -0.509696 h 0.2645693 v 0.509696 h 0.114769 v -0.120628 c 0.00389,-0.06226 0.023341,-0.118663 0.058355,-0.169241 0.035015,-0.04864 0.077805,-0.08946 0.1303274,-0.124471 0.052521,-0.03308 0.110892,-0.05837 0.1770372,-0.07589 0.048086,-0.01271 0.096187,-0.02132 0.1442882,-0.02508 v 0.234404 c -0.049935,0.0064 -0.095436,0.02203 -0.1365169,0.0455 -0.054471,0.03306 -0.089456,0.07975 -0.1089131,0.142006 v 0.09338 h 0.5933169 v -0.06421 c -0.0039,-0.03501 -0.01358,-0.06611 -0.03309,-0.09336 -0.01946,-0.02724 -0.04473,-0.04864 -0.07198,-0.06809 -0.02918,-0.01946 -0.06028,-0.03308 -0.095292,-0.0428 -0.016409,-0.0046 -0.031952,-0.0082 -0.047046,-0.01083 v -0.236189 c 0.044562,0.0036 0.090987,0.01185 0.138467,0.02339 0.06419,0.01751 0.122563,0.04279 0.177037,0.07585 0.05252,0.03306 0.09726,0.07393 0.134206,0.124498 0.03501,0.05057 0.05639,0.106978 0.06224,0.173125 v 0.118677 h 0.149791 v -0.509697 h 0.264569 v 0.8793 h 0.47408 c -0.02278,-0.03191 -0.04245,-0.06633 -0.05925,-0.103092 -0.03111,-0.06808 -0.04474,-0.140085 -0.04474,-0.217891 0,-0.07586 0.01358,-0.14783 0.04085,-0.217861 0.02724,-0.06808 0.06808,-0.128399 0.118649,-0.180917 0.05057,-0.05059 0.110877,-0.09144 0.18286,-0.122564 0.07003,-0.03113 0.149799,-0.04667 0.235392,-0.04667 0.0856,0 0.16339,0.01556 0.233418,0.04667 0.07003,0.03111 0.132285,0.07198 0.182861,0.122564 0.05057,0.05252 0.09142,0.112827 0.118649,0.180917 0.02158,0.05553 0.03579,0.11225 0.04079,0.171183 h 0.144043 v -0.511607 h 0.562166 c 0.05836,0 0.122578,0.0039 0.188714,0.0097 0.06614,0.0059 0.128385,0.02142 0.182859,0.04476 0.05327,0.02473 0.099,0.06067 0.135564,0.105894 v -0.160398 h 0.264538 v 0.509696 h 0.593315 v -0.509696 h 0.26457 v 0.361374 c 0.0025,-0.0071 0.0049,-0.01401 0.0077,-0.02092 0.02724,-0.06808 0.06808,-0.128399 0.118649,-0.180918 0.05057,-0.05057 0.110878,-0.09144 0.182859,-0.122563 0.07003,-0.03113 0.149799,-0.04667 0.235392,-0.04667 0.0856,0 0.163389,0.01556 0.233419,0.04667 0.07004,0.03111 0.132285,0.07198 0.182862,0.122563 0.05057,0.05252 0.09145,0.112828 0.118678,0.180918 0.0033,0.0087 0.0065,0.0173 0.0095,0.02601 v -0.366459 h 0.562198 c 0.05836,0 0.122578,0.0039 0.188713,0.0097 0.06614,0.0059 0.12642,0.02139 0.18283,0.04474 0.05447,0.02529 0.10117,0.06227 0.136184,0.108942 0.02765,0.03841 0.04556,0.08781 0.05189,0.149029 0.0026,-0.0043 0.0052,-0.0085 0.0078,-0.01286 0.03501,-0.05836 0.07974,-0.110877 0.134206,-0.155623 0.05252,-0.0428 0.110906,-0.07783 0.175097,-0.105056 0.06224,-0.02529 0.124499,-0.03891 0.186741,-0.03891 h 0.309274 v 0.23345 h -0.305397 c -0.03111,0 -0.06419,0.0097 -0.09921,0.02918 -0.03501,0.01946 -0.06614,0.04474 -0.09532,0.07391 -0.02555,0.02726 -0.04664,0.05602 -0.06454,0.08756 h 0.626746 v -0.647788 z"
       id="path20784" />
  </g>
</svg>
