<?xml version="1.0" encoding="UTF-8" standalone="no"?>
<!-- Created with Inkscape (http://www.inkscape.org/) -->

<svg
   width="20mm"
   height="1.2257822mm"
   viewBox="0 0 20 1.2257822"
   version="1.1"
   id="svg879"
   inkscape:version="1.2.2 (732a01da63, 2022-12-09)"
   sodipodi:docname="url.svg"
   xmlns:inkscape="http://www.inkscape.org/namespaces/inkscape"
   xmlns:sodipodi="http://sodipodi.sourceforge.net/DTD/sodipodi-0.dtd"
   xmlns="http://www.w3.org/2000/svg"
   xmlns:svg="http://www.w3.org/2000/svg">
  <sodipodi:namedview
     id="namedview881"
     pagecolor="#505050"
     bordercolor="#eeeeee"
     borderopacity="1"
     inkscape:showpageshadow="0"
     inkscape:pageopacity="0"
     inkscape:pagecheckerboard="0"
     inkscape:deskcolor="#505050"
     inkscape:document-units="mm"
     showgrid="false"
     inkscape:zoom="6.7277216"
     inkscape:cx="47.192797"
     inkscape:cy="3.4186908"
     inkscape:window-width="1269"
     inkscape:window-height="481"
     inkscape:window-x="2181"
     inkscape:window-y="130"
     inkscape:window-maximized="0"
     inkscape:current-layer="layer1" />
  <defs
     id="defs876" />
  <g
     inkscape:label="Layer 1"
     inkscape:groupmode="layer"
     id="layer1"
     transform="translate(-35.305034,-79.929617)">
    <g
       aria-label="github.com/krutulism/Ladder-LEDs"
       id="text787"
       style="font-size:1.53523px;line-height:1.25;font-family:Rosart;-inkscape-font-specification:Rosart;letter-spacing:0px;word-spacing:0px;display:inline;stroke-width:0.0383808"
       transform="matrix(0.80000086,0,0,0.80000086,9.0609678,16.108432)">
      <path
         d="m 32.805103,81.025878 q 0,-0.0967 0.08621,-0.143928 -0.03973,-0.05997 -0.03973,-0.121439 0,-0.06447 0.04123,-0.125937 v -0.003 q -0.06147,-0.07046 -0.06147,-0.170915 0,-0.04423 0.01124,-0.08321 0.01199,-0.03898 0.04198,-0.08021 0.02999,-0.04198 0.09595,-0.06672 0.06597,-0.02474 0.161169,-0.02474 h 0.0045 q 0.06147,0 0.104947,0.0105 0.04348,0.0097 0.06447,0.01949 0.02099,0.009 0.02699,0.009 0.0045,0 0.03373,-0.009 0.02923,-0.0097 0.07496,-0.01949 0.04648,-0.0105 0.0892,-0.0105 0.02174,0 0.02774,0.01199 0.006,0.01125 0.01349,0.05622 0.0015,0.01199 0.0037,0.01949 0.0015,0.02924 -0.02624,0.02924 -0.003,0 -0.01724,-0.0022 -0.01349,-0.0022 -0.03748,-0.0037 -0.02399,-0.0015 -0.05172,-0.0015 l -0.03973,0.0015 q 0.03673,0.07346 0.03673,0.142428 0,0.253373 -0.309595,0.253373 -0.0982,0 -0.176911,-0.03073 -0.0045,0.01724 -0.0045,0.02923 0,0.07346 0.0907,0.07421 h 0.131933 q 0.05847,0 0.09445,0.0015 0.03598,0.0015 0.08771,0.0082 0.05247,0.0067 0.08396,0.02249 0.03148,0.01499 0.06297,0.04048 0.03148,0.02549 0.04573,0.06672 0.01499,0.04123 0.01499,0.0982 0,0.133434 -0.140929,0.187406 -0.08471,0.03223 -0.241379,0.03223 -0.03373,0 -0.05622,-7.49e-4 -0.02174,-7.5e-4 -0.06447,-0.0037 -0.04198,-0.003 -0.07346,-0.01274 -0.03148,-0.009 -0.06672,-0.02324 -0.03523,-0.01349 -0.06222,-0.03898 -0.02699,-0.02474 -0.04198,-0.05697 -0.01874,-0.03748 -0.01874,-0.08021 z m 0.158171,-0.003 q 0,0.108696 0.227136,0.108696 h 0.006 q 0.08471,0 0.135682,-0.01874 0.05172,-0.01799 0.06597,-0.03898 0.01499,-0.02024 0.01499,-0.04498 0,-0.04423 -0.05097,-0.06072 -0.05022,-0.01574 -0.16042,-0.01574 H 33.05098 q -0.06447,0 -0.08021,0.03223 -0.0075,0.01499 -0.0075,0.03823 z m 0.06597,-0.550973 q 0,0.06447 0.02024,0.09745 0.02099,0.03298 0.0892,0.03298 0.06896,0 0.09145,-0.02923 0.02324,-0.02923 0.02324,-0.101199 v -0.02474 q 0,-0.06597 -0.02174,-0.0982 -0.02099,-0.03223 -0.08696,-0.03223 -0.06747,0 -0.09145,0.02923 -0.02399,0.02923 -0.02399,0.101199 z"
         style="font-weight:bold;font-family:'CMU Sans Serif';-inkscape-font-specification:'CMU Sans Serif Bold'"
         id="path1023" />
      <path
         d="M 33.698655,79.96516 V 79.8887 q 0,-0.02474 0.0052,-0.03973 0.0052,-0.01574 0.01874,-0.02174 0.01424,-0.0067 0.02099,-0.0075 0.0067,-7.5e-4 0.02399,-0.0022 h 0.07796 q 0.03223,0 0.05172,0.01499 0.01949,0.01424 0.01949,0.05622 v 0.07946 q 0,0.01199 -0.003,0.02249 -0.0022,0.0097 -0.006,0.01649 -0.0037,0.0067 -0.009,0.01274 -0.0052,0.0052 -0.01125,0.0075 -0.0052,0.0022 -0.01199,0.0045 -0.0067,0.0022 -0.01049,0.0022 -0.0037,0 -0.0097,0.0015 h -0.0067 -0.07946 q -0.03223,0 -0.05172,-0.01424 -0.01874,-0.01499 -0.01874,-0.05622 z m 0.006,0.884556 v -0.55772 q 0,-0.06896 0.06747,-0.06896 h 0.06297 q 0.03373,0 0.05097,0.01274 0.01799,0.01199 0.02099,0.02624 0.003,0.01349 0.003,0.03748 v 0.557721 q 0,0.06896 -0.06747,0.06896 h -0.07046 q -0.03223,0 -0.04872,-0.01499 -0.01574,-0.01574 -0.01724,-0.02774 -0.0015,-0.01199 -0.0015,-0.03373 z"
         style="font-weight:bold;font-family:'CMU Sans Serif';-inkscape-font-specification:'CMU Sans Serif Bold'"
         id="path1025" />
      <path
         d="m 34.035986,80.278503 q 0,-0.05547 0.06747,-0.05547 h 0.03673 v -0.131934 q 0,-0.06897 0.07421,-0.06897 h 0.05472 q 0.06896,0 0.06896,0.06897 v 0.131934 h 0.14018 q 0.02774,0 0.04423,0.01274 0.01724,0.01199 0.02099,0.02249 0.0037,0.0105 0.0037,0.02174 0,0.0105 -0.0037,0.02174 -0.0037,0.01049 -0.02024,0.02249 -0.01574,0.01124 -0.04198,0.01124 h -0.143179 v 0.306596 q 0,0.0075 -7.49e-4,0.02024 -7.5e-4,0.01199 -7.5e-4,0.01949 0,0.08171 0.01499,0.111694 0.01574,0.02998 0.04947,0.02998 0.04273,0 0.0892,-0.02699 0.04648,-0.02699 0.04948,-0.02699 0.01049,0 0.01874,0.02174 0.009,0.02099 0.01349,0.04273 l 0.003,0.02024 q 0,0.02923 -0.09595,0.05922 -0.09595,0.02999 -0.183658,0.02999 -0.112444,0 -0.145427,-0.110944 -0.01349,-0.04573 -0.01424,-0.13943 v -0.357571 h -0.03223 q -0.06747,0 -0.06747,-0.05697 z"
         style="font-weight:bold;font-family:'CMU Sans Serif';-inkscape-font-specification:'CMU Sans Serif Bold'"
         id="path1027" />
      <path
         d="m 34.714396,80.858712 v -0.967015 q 0,-0.07346 0.06747,-0.07421 h 0.06147 q 0.02324,0 0.03673,0.0037 0.01349,0.003 0.02624,0.01949 0.01349,0.01574 0.01349,0.04648 v 0.420539 q 0.101199,-0.101199 0.244377,-0.101949 0.05547,0 0.09595,0.0105 0.04048,0.0097 0.06447,0.03073 0.02399,0.02024 0.03823,0.03973 0.01499,0.01949 0.02024,0.05397 0.0052,0.03448 0.0067,0.05547 0.0015,0.02024 0.0015,0.05697 v 0.405547 q 0,0.06747 -0.06597,0.06747 h -0.07196 q -0.04123,0 -0.05622,-0.01724 -0.01499,-0.01799 -0.01499,-0.05022 V 80.42839 q 0,-0.05547 -0.01724,-0.08246 -0.01649,-0.02774 -0.07122,-0.02774 -0.06896,0 -0.113942,0.04723 -0.04423,0.04648 -0.05397,0.107946 -0.0015,0.0075 -0.0015,0.05397 v 0.322338 q 0,0.01874 -0.0015,0.02849 -0.0015,0.0097 -0.0075,0.02324 -0.006,0.01274 -0.02249,0.01874 -0.01574,0.006 -0.04048,0.006 h -0.06747 q -0.07046,0 -0.07046,-0.06747 z"
         style="font-weight:bold;font-family:'CMU Sans Serif';-inkscape-font-specification:'CMU Sans Serif Bold'"
         id="path1029" />
      <path
         d="m 35.574964,80.712535 v -0.422038 q 0,-0.06747 0.06747,-0.06747 0,0 0.07047,0 0.03373,0 0.05022,0.01424 0.01724,0.01349 0.01874,0.02399 0.0015,0.0097 0.003,0.03073 v 0.408545 q 0,0.006 -7.5e-4,0.01874 -7.49e-4,0.01199 -7.49e-4,0.01799 0,0.06747 0.01649,0.08996 0.01724,0.02249 0.08171,0.02249 0.06147,0 0.110945,-0.04498 0.05022,-0.04573 0.05022,-0.156672 v -0.34482 q 0,-0.02324 0.0015,-0.03448 0.0022,-0.01199 0.0052,-0.01649 0.003,-0.0045 0.01349,-0.01574 0.01724,-0.01349 0.05247,-0.01349 h 0.06747 q 0.06747,0 0.06897,0.06447 v 0.572713 q 0,0.06597 -0.06897,0.06597 H 36.1109 q -0.06297,0 -0.06297,-0.06747 -0.05247,0.05097 -0.104947,0.06747 -0.05172,0.01724 -0.122189,0.01724 -0.06747,0 -0.116192,-0.01499 -0.04873,-0.01424 -0.07346,-0.03448 -0.02399,-0.02024 -0.03823,-0.05472 -0.01349,-0.03448 -0.01574,-0.05997 -0.0022,-0.02549 -0.0022,-0.06672 z"
         style="font-weight:bold;font-family:'CMU Sans Serif';-inkscape-font-specification:'CMU Sans Serif Bold'"
         id="path1031" />
      <path
         d="m 36.437032,80.855713 v -0.967015 q 0,-0.03373 0.01424,-0.05247 0.01499,-0.01874 0.05622,-0.01874 h 0.06747 q 0.06747,0 0.06747,0.06747 v 0.382308 q 0.0967,-0.06147 0.213642,-0.06147 0.21964,0 0.275113,0.207646 0.01724,0.06297 0.01724,0.164917 0,0.003 0,0.0045 0,0.104948 -0.02923,0.178411 -0.02849,0.07271 -0.07871,0.111694 -0.04948,0.03823 -0.103448,0.05397 -0.05322,0.01649 -0.117691,0.01649 -0.0967,0 -0.173913,-0.05847 -0.01199,0.02474 -0.02549,0.03298 -0.01274,0.0082 -0.04198,0.0082 h -0.07046 q -0.07046,0 -0.07046,-0.07046 z m 0.209894,-0.08471 0.0052,0.006 q 0.006,0.006 0.0082,0.009 0.0022,0.0022 0.009,0.0082 0.0067,0.006 0.01124,0.009 0.0052,0.003 0.01274,0.009 0.0075,0.0052 0.01424,0.0075 0.0075,0.0022 0.01649,0.0052 0.009,0.003 0.01949,0.0045 0.01124,0.0015 0.02324,0.0015 0.04948,0 0.08396,-0.01724 0.03448,-0.01799 0.05022,-0.03898 0.01649,-0.02174 0.02549,-0.06222 0.009,-0.04123 0.0097,-0.06447 0.0015,-0.02399 0.0015,-0.06896 0,-0.0075 0,-0.01199 0,-0.04573 -0.0022,-0.07271 -0.0015,-0.02699 -0.009,-0.06522 -0.0075,-0.03898 -0.02324,-0.05922 -0.01499,-0.02099 -0.04573,-0.03673 -0.03073,-0.01649 -0.07346,-0.01649 -0.07196,0 -0.137182,0.05397 z"
         style="font-weight:bold;font-family:'CMU Sans Serif';-inkscape-font-specification:'CMU Sans Serif Bold'"
         id="path1033" />
      <path
         d="m 37.33733,80.890946 v -0.122939 q 0.0015,-0.01499 0.0015,-0.01874 0,-0.0045 0.003,-0.01274 0.003,-0.0082 0.0097,-0.0097 0.0075,-0.0015 0.01949,-0.0015 h 0.133433 q 0.02174,0 0.02774,0.0075 0.006,0.0075 0.006,0.02474 v 0.125936 q 0,0.01349 0,0.01799 0,0.0045 -0.003,0.01274 -0.003,0.0075 -0.0097,0.0097 -0.0067,0.0022 -0.01949,0.0022 H 37.37257 q -0.03523,0 -0.03523,-0.03523 z"
         style="font-weight:bold;font-family:'CMU Sans Serif';-inkscape-font-specification:'CMU Sans Serif Bold'"
         id="path1035" />
      <path
         d="m 37.728634,80.576104 q 0,-0.37931 0.374062,-0.37931 0.133433,0 0.248875,0.06297 0.01199,0.0075 0.01274,0.02474 -0.0075,0.11994 -0.03748,0.11994 -0.01049,0 -0.04798,-0.03073 -0.03748,-0.03074 -0.07271,-0.04348 -0.03973,-0.01349 -0.11844,-0.01349 -0.04123,0.0015 -0.07122,0.02024 -0.02999,0.01799 -0.04498,0.04123 -0.01424,0.02324 -0.02324,0.05997 -0.0082,0.03673 -0.009,0.05922 -7.5e-4,0.02174 -7.5e-4,0.05697 v 0.02924 q 0,0.03823 0.0015,0.06297 0.0015,0.02474 0.0097,0.06147 0.009,0.03673 0.02474,0.05922 0.01649,0.02249 0.04798,0.03973 0.03148,0.01649 0.07571,0.01649 0.05547,0 0.1012,-0.01424 0.04648,-0.01499 0.07046,-0.03223 0.02474,-0.01799 0.04573,-0.03373 0.02099,-0.01649 0.02998,-0.01799 l 0.0075,0.0015 q 0.009,0.006 0.01049,0.01724 0.0022,0.0105 0.0097,0.08996 v 0.01274 q 0,0.02174 -0.03073,0.03823 -0.112444,0.05847 -0.248875,0.05847 -0.365067,-7.49e-4 -0.365067,-0.367315 z"
         style="font-weight:bold;font-family:'CMU Sans Serif';-inkscape-font-specification:'CMU Sans Serif Bold'"
         id="path1037" />
      <path
         d="m 38.469262,80.582101 q 0,-0.110195 0.02998,-0.188156 0.02999,-0.07871 0.08246,-0.11994 0.05247,-0.04198 0.110195,-0.05922 0.05847,-0.01799 0.128935,-0.01799 0.03973,0 0.06972,0.0015 0.03073,0.0015 0.07421,0.01049 0.04348,0.0082 0.07571,0.02399 0.03223,0.01499 0.06747,0.04423 0.03598,0.02923 0.05847,0.06896 0.02324,0.03973 0.03748,0.101949 0.01499,0.06222 0.01499,0.14018 0,0.354572 -0.373312,0.355321 -0.376312,-7.49e-4 -0.376312,-0.361318 z m 0.210645,0.01574 q 0.0015,0.03973 0.003,0.05997 0.0015,0.01949 0.01049,0.05772 0.0097,0.03748 0.02474,0.05697 0.01574,0.01874 0.04798,0.03523 0.03223,0.01574 0.07796,0.01574 0.04648,0 0.07871,-0.01574 0.03223,-0.01649 0.04798,-0.03748 0.01649,-0.02099 0.02549,-0.05697 0.009,-0.03598 0.01049,-0.06072 0.0015,-0.02549 0.0015,-0.06447 0,-0.009 0,-0.01199 v -0.04123 q 0,-0.03223 -0.0015,-0.04798 -0.0015,-0.01649 -0.0052,-0.04872 -0.0037,-0.03223 -0.01499,-0.05023 -0.01049,-0.01874 -0.02849,-0.03973 -0.01724,-0.02099 -0.04648,-0.02998 -0.02924,-0.009 -0.06897,-0.009 -0.04723,0 -0.08021,0.01724 -0.03298,0.01649 -0.04873,0.03748 -0.01499,0.02024 -0.02399,0.06147 -0.0082,0.04048 -0.009,0.06297 -7.49e-4,0.02174 -7.49e-4,0.06747 z"
         style="font-weight:bold;font-family:'CMU Sans Serif';-inkscape-font-specification:'CMU Sans Serif Bold'"
         id="path1039" />
      <path
         d="m 39.358316,80.857213 v -0.574212 q 0,-0.06747 0.06897,-0.06747 h 0.06147 q 0.01499,0 0.02324,0.0015 0.009,0.0015 0.02174,0.0067 0.01349,0.0052 0.01949,0.02024 0.006,0.01424 0.006,0.03748 v 0.03073 q 0.02923,-0.02774 0.04573,-0.04198 0.01724,-0.01499 0.07721,-0.03973 0.05997,-0.02474 0.127436,-0.02474 0.0907,0 0.14018,0.02699 0.05022,0.02699 0.07346,0.08696 0.0952,-0.113943 0.254872,-0.113943 0.06597,0 0.110945,0.01649 0.04498,0.01574 0.06747,0.03673 0.02249,0.02099 0.03373,0.05997 0.01199,0.03898 0.01349,0.06447 0.0015,0.02549 0.0015,0.07121 v 0.402549 q 0,0.03373 -0.01499,0.05172 -0.01424,0.01724 -0.05622,0.01724 h -0.06747 q -0.01199,0 -0.02249,-0.0015 -0.0097,-0.0015 -0.01649,-0.0045 -0.0067,-0.003 -0.01124,-0.0067 -0.0045,-0.0045 -0.009,-0.0097 -0.0037,-0.0052 -0.006,-0.009 -0.0022,-0.0037 -0.003,-0.01125 -7.5e-4,-0.0082 -0.0015,-0.01049 -7.5e-4,-0.0022 -7.5e-4,-0.0097 0,-0.0075 0,-0.009 v -0.417541 q 0,-0.02923 -0.0015,-0.04423 -0.0015,-0.01574 -0.0097,-0.03523 -0.0082,-0.02024 -0.02774,-0.02923 -0.01949,-0.0097 -0.05172,-0.0097 -0.06297,0 -0.104198,0.03898 -0.04123,0.03898 -0.05697,0.08846 -0.0075,0.02624 -0.0075,0.07946 v 0.317841 q 0,0.003 0,0.009 0,0.0052 -0.0037,0.02024 -0.0037,0.01424 -0.01049,0.02474 -0.006,0.01049 -0.01949,0.02024 -0.01349,0.009 -0.03373,0.009 h -0.07046 q -0.04273,0 -0.05772,-0.01724 -0.01499,-0.01799 -0.01499,-0.05172 v -0.427286 q 0,-0.05997 -0.01874,-0.08546 -0.01799,-0.02624 -0.06972,-0.02624 -0.06747,0 -0.11844,0.05172 -0.05098,0.05097 -0.05098,0.143178 v 0.344078 q 0,0.06896 -0.06896,0.06896 h -0.06897 q -0.07196,0 -0.07196,-0.06896 z"
         style="font-weight:bold;font-family:'CMU Sans Serif';-inkscape-font-specification:'CMU Sans Serif Bold'"
         id="path1041" />
      <path
         d="m 40.690398,81.253014 q 0,-0.003 0.01349,-0.04873 l 0.519489,-1.356069 q 0,-0.0015 0.003,-0.009 0.003,-0.0075 0.0045,-0.01124 0.0015,-0.0037 0.0045,-0.01125 0.003,-0.0082 0.006,-0.01274 0.003,-0.0045 0.0082,-0.01049 0.006,-0.0067 0.01124,-0.0097 0.0052,-0.003 0.01274,-0.0052 0.0075,-0.0022 0.01574,-0.0022 0.02174,0 0.03823,0.01574 0.01649,0.01499 0.01649,0.03823 0,0.01349 -0.01049,0.04273 l -0.531484,1.384556 q -0.02024,0.05097 -0.05622,0.05097 -0.02174,0 -0.03898,-0.01574 -0.01649,-0.01499 -0.01649,-0.03973 z"
         style="font-weight:bold;font-family:'CMU Sans Serif';-inkscape-font-specification:'CMU Sans Serif Bold'"
         id="path1043" />
      <path
         d="M 41.546469,80.854214 V 79.88495 q 0,-0.06747 0.06896,-0.06747 0,0 0.04198,0 0.02474,0 0.04048,0.0082 0.01649,0.0075 0.02174,0.02249 0.0052,0.01424 0.006,0.02174 7.5e-4,0.0075 7.5e-4,0.02174 v 0.568964 q 0.04423,-0.04123 0.111694,-0.104197 0.105697,-0.0997 0.131184,-0.116192 0.02549,-0.01724 0.07046,-0.01724 h 0.101199 q 0.03373,0.0015 0.03823,0.02774 -0.0015,0.01874 -0.02849,0.04498 -0.02699,0.02549 -0.230884,0.212893 0.0015,0.0015 0.265367,0.348576 0.01499,0.02174 0.01574,0.03523 0,0.03373 -0.04648,0.03373 h -0.08096 q -0.03073,0 -0.04723,-0.0075 -0.01574,-0.0075 -0.03898,-0.03673 l -0.193403,-0.254872 -0.07046,0.06447 v 0.167166 q 0,0.06747 -0.06896,0.06747 h -0.03673 q -0.02474,0 -0.04123,-0.0067 -0.01574,-0.0067 -0.02174,-0.01949 -0.0052,-0.01349 -0.0067,-0.02249 -0.0015,-0.0097 -0.0015,-0.02324 z"
         style="font-weight:bold;font-family:'CMU Sans Serif';-inkscape-font-specification:'CMU Sans Serif Bold'"
         id="path1045" />
      <path
         d="M 42.346318,80.860211 V 80.2845 q 0,-0.04423 0.01874,-0.05622 0.01949,-0.01274 0.05172,-0.01274 h 0.05097 q 0.04123,0 0.06147,0.01949 0.01049,0.01199 0.01199,0.02474 0.0015,0.01274 0.003,0.07046 0.03673,-0.05097 0.08846,-0.08096 0.05247,-0.03073 0.08246,-0.03673 0.02998,-0.0067 0.05322,-0.0067 h 0.0015 q 0.02024,0 0.02549,0.0082 0.0052,0.0075 0.0052,0.02624 v 0.08546 q 0,0.01724 -0.0075,0.02774 -0.009,0.0075 -0.04048,0.01199 -0.03148,0.0037 -0.05622,0.01125 -0.05247,0.01874 -0.0907,0.05697 -0.03823,0.03823 -0.04948,0.08846 -0.0045,0.02024 -0.0045,0.05847 v 0.269115 q 0,0.03223 -0.0045,0.04198 -0.0045,0.0097 -0.02324,0.02549 -0.01874,0.009 -0.04273,0.009 h -0.06597 q -0.04123,0 -0.05547,-0.01799 -0.01349,-0.01874 -0.01349,-0.04798 z"
         style="font-weight:bold;font-family:'CMU Sans Serif';-inkscape-font-specification:'CMU Sans Serif Bold'"
         id="path1047" />
      <path
         d="m 42.915283,80.712535 v -0.422038 q 0,-0.06747 0.06747,-0.06747 0,0 0.07046,0 0.03373,0 0.05022,0.01424 0.01724,0.01349 0.01874,0.02399 0.0015,0.0097 0.003,0.03073 v 0.408545 q 0,0.006 -7.5e-4,0.01874 -7.5e-4,0.01199 -7.5e-4,0.01799 0,0.06747 0.01649,0.08996 0.01724,0.02249 0.08171,0.02249 0.06147,0 0.110944,-0.04498 0.05023,-0.04573 0.05023,-0.156672 v -0.34482 q 0,-0.02324 0.0015,-0.03448 0.0022,-0.01199 0.0052,-0.01649 0.003,-0.0045 0.01349,-0.01574 0.01724,-0.01349 0.05247,-0.01349 h 0.06747 q 0.06747,0 0.06896,0.06447 v 0.572713 q 0,0.06597 -0.06896,0.06597 h -0.07196 q -0.06297,0 -0.06297,-0.06747 -0.05247,0.05097 -0.104948,0.06747 -0.05172,0.01724 -0.122189,0.01724 -0.06747,0 -0.116191,-0.01499 -0.04873,-0.01424 -0.07346,-0.03448 -0.02399,-0.02024 -0.03823,-0.05472 -0.01349,-0.03448 -0.01574,-0.05997 -0.0022,-0.02549 -0.0022,-0.06672 z"
         style="font-weight:bold;font-family:'CMU Sans Serif';-inkscape-font-specification:'CMU Sans Serif Bold'"
         id="path1049" />
      <path
         d="m 43.71738,80.278503 q 0,-0.05547 0.06747,-0.05547 h 0.03673 v -0.131934 q 0,-0.06897 0.07421,-0.06897 h 0.05472 q 0.06897,0 0.06897,0.06897 v 0.131934 h 0.140179 q 0.02774,0 0.04423,0.01274 0.01724,0.01199 0.02099,0.02249 0.0037,0.0105 0.0037,0.02174 0,0.0105 -0.0037,0.02174 -0.0037,0.01049 -0.02024,0.02249 -0.01574,0.01124 -0.04198,0.01124 h -0.143178 v 0.306596 q 0,0.0075 -7.5e-4,0.02024 -7.5e-4,0.01199 -7.5e-4,0.01949 0,0.08171 0.01499,0.111694 0.01574,0.02998 0.04948,0.02998 0.04273,0 0.0892,-0.02699 0.04648,-0.02699 0.04948,-0.02699 0.01049,0 0.01874,0.02174 0.009,0.02099 0.01349,0.04273 l 0.003,0.02024 q 0,0.02923 -0.09595,0.05922 -0.09595,0.02999 -0.183658,0.02999 -0.112444,0 -0.145427,-0.110944 -0.01349,-0.04573 -0.01424,-0.13943 v -0.357571 h -0.03223 q -0.06747,0 -0.06747,-0.05697 z"
         style="font-weight:bold;font-family:'CMU Sans Serif';-inkscape-font-specification:'CMU Sans Serif Bold'"
         id="path1051" />
      <path
         d="m 44.395791,80.712535 v -0.422038 q 0,-0.06747 0.06747,-0.06747 0,0 0.07046,0 0.03373,0 0.05022,0.01424 0.01724,0.01349 0.01874,0.02399 0.0015,0.0097 0.003,0.03073 v 0.408545 q 0,0.006 -7.49e-4,0.01874 -7.5e-4,0.01199 -7.5e-4,0.01799 0,0.06747 0.01649,0.08996 0.01724,0.02249 0.08171,0.02249 0.06147,0 0.110944,-0.04498 0.05023,-0.04573 0.05023,-0.156672 v -0.34482 q 0,-0.02324 0.0015,-0.03448 0.0022,-0.01199 0.0052,-0.01649 0.003,-0.0045 0.01349,-0.01574 0.01724,-0.01349 0.05247,-0.01349 h 0.06747 q 0.06747,0 0.06896,0.06447 v 0.572713 q 0,0.06597 -0.06896,0.06597 h -0.07196 q -0.06297,0 -0.06297,-0.06747 -0.05247,0.05097 -0.104947,0.06747 -0.05172,0.01724 -0.122189,0.01724 -0.06747,0 -0.116191,-0.01499 -0.04873,-0.01424 -0.07346,-0.03448 -0.02399,-0.02024 -0.03823,-0.05472 -0.01349,-0.03448 -0.01574,-0.05997 -0.0022,-0.02549 -0.0022,-0.06672 z"
         style="font-weight:bold;font-family:'CMU Sans Serif';-inkscape-font-specification:'CMU Sans Serif Bold'"
         id="path1053" />
      <path
         d="m 45.257858,80.857213 v -0.967015 q 0,-0.07196 0.06447,-0.07271 0,0 0.07046,0 0.07046,0 0.07046,0.06972 v 0.964017 q 0,0.01874 -0.0015,0.02923 -0.0015,0.0105 -0.0075,0.02249 -0.006,0.01124 -0.02099,0.01649 -0.01424,0.0052 -0.03898,0.0067 h -0.06297 q -0.03523,0 -0.05472,-0.01349 -0.01874,-0.01424 -0.01874,-0.05547 z"
         style="font-weight:bold;font-family:'CMU Sans Serif';-inkscape-font-specification:'CMU Sans Serif Bold'"
         id="path1055" />
      <path
         d="M 45.643165,79.96516 V 79.8887 q 0,-0.02474 0.0052,-0.03973 0.0052,-0.01574 0.01874,-0.02174 0.01424,-0.0067 0.02099,-0.0075 0.0067,-7.5e-4 0.02399,-0.0022 h 0.07796 q 0.03223,0 0.05172,0.01499 0.01949,0.01424 0.01949,0.05622 v 0.07946 q 0,0.01199 -0.003,0.02249 -0.0022,0.0097 -0.006,0.01649 -0.0037,0.0067 -0.009,0.01274 -0.0052,0.0052 -0.01124,0.0075 -0.0052,0.0022 -0.01199,0.0045 -0.0067,0.0022 -0.01049,0.0022 -0.0037,0 -0.0097,0.0015 h -0.0067 -0.07946 q -0.03223,0 -0.05172,-0.01424 -0.01874,-0.01499 -0.01874,-0.05622 z m 0.006,0.884556 v -0.55772 q 0,-0.06896 0.06747,-0.06896 h 0.06297 q 0.03373,0 0.05097,0.01274 0.01799,0.01199 0.02099,0.02624 0.003,0.01349 0.003,0.03748 v 0.557721 q 0,0.06896 -0.06747,0.06896 h -0.07046 q -0.03223,0 -0.04872,-0.01499 -0.01574,-0.01574 -0.01724,-0.02774 -0.0015,-0.01199 -0.0015,-0.03373 z"
         style="font-weight:bold;font-family:'CMU Sans Serif';-inkscape-font-specification:'CMU Sans Serif Bold'"
         id="path1057" />
      <path
         d="m 45.995488,80.849716 q 0,-0.006 0.01874,-0.107946 0.0045,-0.03523 0.02174,-0.03523 0.0075,0 0.03598,0.02849 0.02849,0.02849 0.08321,0.05772 0.05547,0.02923 0.127437,0.02923 0.119939,0 0.119939,-0.08171 0,-0.04273 -0.03673,-0.06222 -0.03673,-0.02024 -0.107946,-0.03148 -0.07046,-0.01199 -0.09445,-0.02099 -0.05997,-0.02324 -0.110194,-0.07346 -0.04948,-0.05097 -0.04948,-0.134183 0,-0.215142 0.257871,-0.221139 h 0.03973 q 0.0982,0.0015 0.187406,0.03823 0.02324,0.009 0.02999,0.01574 0.0067,0.006 0.0067,0.02174 0,0.009 -0.01499,0.0967 -0.006,0.02324 -0.01874,0.02249 -0.0105,0 -0.03598,-0.02024 -0.02549,-0.02099 -0.07346,-0.04123 -0.04723,-0.02099 -0.113194,-0.02099 -0.113943,0 -0.113943,0.07346 0,0.03973 0.04273,0.05847 0.04348,0.01799 0.116192,0.03148 0.07346,0.01274 0.107196,0.03149 0.02923,0.01349 0.05472,0.03523 0.02624,0.02174 0.05322,0.06897 0.02699,0.04648 0.02699,0.102699 0,0.128935 -0.07421,0.180659 -0.07346,0.05172 -0.202399,0.05172 -0.15967,0 -0.274362,-0.07421 l -0.006,-0.0075 q -0.0037,-0.009 -0.0037,-0.01199 z"
         style="font-weight:bold;font-family:'CMU Sans Serif';-inkscape-font-specification:'CMU Sans Serif Bold'"
         id="path1059" />
      <path
         d="m 46.686641,80.857213 v -0.574212 q 0,-0.06747 0.06897,-0.06747 h 0.06147 q 0.01499,0 0.02324,0.0015 0.009,0.0015 0.02174,0.0067 0.01349,0.0052 0.01949,0.02024 0.006,0.01424 0.006,0.03748 v 0.03073 q 0.02923,-0.02774 0.04573,-0.04198 0.01724,-0.01499 0.07721,-0.03973 0.05997,-0.02474 0.127436,-0.02474 0.0907,0 0.14018,0.02699 0.05022,0.02699 0.07346,0.08696 0.0952,-0.113943 0.254872,-0.113943 0.06597,0 0.110944,0.01649 0.04498,0.01574 0.06747,0.03673 0.02249,0.02099 0.03373,0.05997 0.01199,0.03898 0.01349,0.06447 0.0015,0.02549 0.0015,0.07121 v 0.402549 q 0,0.03373 -0.01499,0.05172 -0.01424,0.01724 -0.05622,0.01724 h -0.06747 q -0.01199,0 -0.02249,-0.0015 -0.0097,-0.0015 -0.01649,-0.0045 -0.0067,-0.003 -0.01124,-0.0067 -0.0045,-0.0045 -0.009,-0.0097 -0.0037,-0.0052 -0.006,-0.009 -0.0022,-0.0037 -0.003,-0.01125 -7.5e-4,-0.0082 -0.0015,-0.01049 -7.5e-4,-0.0022 -7.5e-4,-0.0097 0,-0.0075 0,-0.009 v -0.417541 q 0,-0.02923 -0.0015,-0.04423 -0.0015,-0.01574 -0.0097,-0.03523 -0.0082,-0.02024 -0.02774,-0.02923 -0.01949,-0.0097 -0.05173,-0.0097 -0.06297,0 -0.104197,0.03898 -0.04123,0.03898 -0.05697,0.08846 -0.0075,0.02624 -0.0075,0.07946 v 0.317841 q 0,0.003 0,0.009 0,0.0052 -0.0037,0.02024 -0.0037,0.01424 -0.01049,0.02474 -0.006,0.01049 -0.01949,0.02024 -0.01349,0.009 -0.03373,0.009 h -0.07046 q -0.04273,0 -0.05772,-0.01724 -0.01499,-0.01799 -0.01499,-0.05172 v -0.427286 q 0,-0.05997 -0.01874,-0.08546 -0.01799,-0.02624 -0.06972,-0.02624 -0.06747,0 -0.118441,0.05172 -0.05097,0.05097 -0.05097,0.143178 v 0.344078 q 0,0.06896 -0.06896,0.06896 h -0.06897 q -0.07196,0 -0.07196,-0.06896 z"
         style="font-weight:bold;font-family:'CMU Sans Serif';-inkscape-font-specification:'CMU Sans Serif Bold'"
         id="path1061" />
      <path
         d="m 48.018723,81.253014 q 0,-0.003 0.01349,-0.04873 l 0.51949,-1.356069 q 0,-0.0015 0.003,-0.009 0.003,-0.0075 0.0045,-0.01124 0.0015,-0.0037 0.0045,-0.01125 0.003,-0.0082 0.006,-0.01274 0.003,-0.0045 0.0082,-0.01049 0.006,-0.0067 0.01124,-0.0097 0.0052,-0.003 0.01274,-0.0052 0.0075,-0.0022 0.01574,-0.0022 0.02174,0 0.03823,0.01574 0.01649,0.01499 0.01649,0.03823 0,0.01349 -0.01049,0.04273 l -0.531484,1.384556 q -0.02024,0.05097 -0.05622,0.05097 -0.02174,0 -0.03898,-0.01574 -0.01649,-0.01499 -0.01649,-0.03973 z"
         style="font-weight:bold;font-family:'CMU Sans Serif';-inkscape-font-specification:'CMU Sans Serif Bold'"
         id="path1063" />
      <path
         d="m 48.908526,80.854214 v -0.921288 q 0,-0.03673 0.01499,-0.05397 0.01574,-0.01799 0.05622,-0.01799 h 0.07946 q 0.06747,0 0.06747,0.06597 v 0.844077 q 0.05847,0 0.154423,-0.0022 0.09595,-0.0022 0.166416,-0.0037 0.07047,-0.0015 0.07421,-0.0015 0.06747,0 0.06747,0.07046 v 0.01724 q 0,0.02174 -0.0037,0.03598 -0.003,0.01424 -0.02024,0.02699 -0.01649,0.01199 -0.04872,0.01199 h -0.536731 q -0.02174,0 -0.03523,-0.0037 -0.01274,-0.0037 -0.02474,-0.02024 -0.01124,-0.01724 -0.01124,-0.04798 z"
         style="font-weight:bold;font-family:'CMU Sans Serif';-inkscape-font-specification:'CMU Sans Serif Bold'"
         id="path1065" />
      <path
         d="m 49.704628,80.715534 q 0,-0.05997 0.03523,-0.104198 0.03598,-0.04423 0.08546,-0.06897 0.05022,-0.02474 0.11844,-0.03898 0.06822,-0.01499 0.117691,-0.01949 0.05022,-0.0045 0.1012,-0.0045 v -0.03223 q 0,-0.06597 -0.02174,-0.104198 -0.02174,-0.03823 -0.08771,-0.03823 -0.05997,0 -0.109445,0.01649 -0.04873,0.01574 -0.07271,0.03598 -0.02324,0.01949 -0.04423,0.03673 -0.02024,0.01649 -0.02998,0.01649 l -0.006,-0.0015 -0.006,-0.0045 q -0.0045,-0.0075 -0.0082,-0.03748 -0.0037,-0.02998 -0.0052,-0.05472 l -0.0022,-0.02624 q 0,-0.0075 7.5e-4,-0.01124 0.0015,-0.0037 0.006,-0.0082 0.0045,-0.0052 0.0067,-0.0067 0.0022,-0.0015 0.01274,-0.006 0.01124,-0.0045 0.01724,-0.0075 0.110195,-0.04948 0.240629,-0.04948 0.174663,0 0.245877,0.06597 0.07196,0.06597 0.07196,0.190404 v 0.404048 q 0,0.06896 -0.06896,0.06896 h -0.07346 q -0.03373,0 -0.04872,-0.01799 -0.01424,-0.01874 -0.01424,-0.04348 -0.101199,0.07796 -0.236881,0.07871 -0.102699,0 -0.163418,-0.07046 -0.06072,-0.07122 -0.06072,-0.157421 z m 0.201649,0 q 0,0.04423 0.02923,0.08021 0.02924,0.03523 0.07646,0.03523 0.05247,0 0.101199,-0.03298 0.04948,-0.03298 0.04948,-0.107946 v -0.119939 q -0.04723,0.0045 -0.08171,0.0097 -0.03373,0.0052 -0.08021,0.02024 -0.04573,0.01424 -0.07046,0.04423 -0.02399,0.02999 -0.02399,0.07122 z"
         style="font-weight:bold;font-family:'CMU Sans Serif';-inkscape-font-specification:'CMU Sans Serif Bold'"
         id="path1067" />
      <path
         d="m 50.520219,80.559612 q 0.003,-0.190405 0.0892,-0.272114 0.08696,-0.08171 0.224138,-0.08171 0.105696,0 0.191903,0.05547 V 79.88495 q 0,-0.06747 0.06747,-0.06747 h 0.06147 q 0.03373,0 0.05097,0.01199 0.01799,0.01124 0.02174,0.02474 0.0037,0.01274 0.0037,0.03298 v 0.968514 q 0,0.07046 -0.06896,0.07046 h -0.07047 q -0.05697,0 -0.07121,-0.04947 -0.0922,0.06597 -0.194902,0.06672 -0.231634,0 -0.288606,-0.216641 -0.01649,-0.06447 -0.01649,-0.167166 z m 0.209894,0.02699 q 0,0.04273 0.0015,0.06822 0.0015,0.02549 0.0097,0.06372 0.009,0.03748 0.02399,0.05922 0.01574,0.02099 0.04648,0.03748 0.03073,0.01574 0.07346,0.01574 0.05097,0 0.09295,-0.02849 0.04198,-0.02849 0.04198,-0.06222 V 80.36396 q -0.0015,0 -0.0075,-0.0052 -0.006,-0.0052 -0.01199,-0.0097 -0.006,-0.0045 -0.01724,-0.01049 -0.01049,-0.0067 -0.02249,-0.01049 -0.01124,-0.0037 -0.02774,-0.0067 -0.01574,-0.003 -0.03223,-0.003 -0.04723,0 -0.08246,0.01724 -0.03448,0.01649 -0.05172,0.03823 -0.01649,0.02099 -0.02549,0.05922 -0.0082,0.03748 -0.0097,0.06072 -0.0015,0.02249 -0.0015,0.06072 z"
         style="font-weight:bold;font-family:'CMU Sans Serif';-inkscape-font-specification:'CMU Sans Serif Bold'"
         id="path1069" />
      <path
         d="m 51.380788,80.559612 q 0.003,-0.190405 0.0892,-0.272114 0.08696,-0.08171 0.224138,-0.08171 0.105696,0 0.191903,0.05547 V 79.88495 q 0,-0.06747 0.06747,-0.06747 h 0.06147 q 0.03373,0 0.05097,0.01199 0.01799,0.01124 0.02174,0.02474 0.0037,0.01274 0.0037,0.03298 v 0.968514 q 0,0.07046 -0.06896,0.07046 h -0.07046 q -0.05697,0 -0.07121,-0.04947 -0.0922,0.06597 -0.194902,0.06672 -0.231634,0 -0.288606,-0.216641 -0.01649,-0.06447 -0.01649,-0.167166 z m 0.209894,0.02699 q 0,0.04273 0.0015,0.06822 0.0015,0.02549 0.0097,0.06372 0.009,0.03748 0.02399,0.05922 0.01574,0.02099 0.04648,0.03748 0.03073,0.01574 0.07346,0.01574 0.05097,0 0.09295,-0.02849 0.04198,-0.02849 0.04198,-0.06222 V 80.36396 q -0.0015,0 -0.0075,-0.0052 -0.006,-0.0052 -0.01199,-0.0097 -0.006,-0.0045 -0.01724,-0.01049 -0.01049,-0.0067 -0.02249,-0.01049 -0.01125,-0.0037 -0.02774,-0.0067 -0.01574,-0.003 -0.03223,-0.003 -0.04723,0 -0.08246,0.01724 -0.03448,0.01649 -0.05172,0.03823 -0.01649,0.02099 -0.02549,0.05922 -0.0082,0.03748 -0.0097,0.06072 -0.0015,0.02249 -0.0015,0.06072 z"
         style="font-weight:bold;font-family:'CMU Sans Serif';-inkscape-font-specification:'CMU Sans Serif Bold'"
         id="path1071" />
      <path
         d="m 52.23161,80.568607 q 0,-0.187406 0.0982,-0.279609 0.09895,-0.0922 0.270615,-0.0922 0.0922,0 0.157421,0.02849 0.06522,0.02849 0.0997,0.07871 0.03448,0.04948 0.04872,0.104947 0.01499,0.05547 0.01499,0.122939 0,0.06597 -0.06747,0.06597 H 52.43026 q 0.006,0.233133 0.194902,0.233133 0.06747,0 0.122939,-0.02174 0.05622,-0.02249 0.09145,-0.04948 0.03598,-0.02699 0.04198,-0.02849 h 0.006 l 0.0075,0.003 q 0.0075,0.0075 0.01124,0.03448 0.0045,0.02699 0.0045,0.05023 l 0.0015,0.02249 q 0,0.02024 -0.02474,0.03373 -0.118441,0.06747 -0.265367,0.06822 -0.191904,0 -0.291604,-0.0952 -0.09895,-0.0952 -0.09895,-0.27961 z m 0.200149,-0.07046 H 52.7496 q -0.0045,-0.08921 -0.03523,-0.138681 -0.03073,-0.05022 -0.113943,-0.05022 -0.149925,0 -0.168666,0.188906 z"
         style="font-weight:bold;font-family:'CMU Sans Serif';-inkscape-font-specification:'CMU Sans Serif Bold'"
         id="path1073" />
      <path
         d="M 53.062194,80.860211 V 80.2845 q 0,-0.04423 0.01874,-0.05622 0.01949,-0.01274 0.05172,-0.01274 h 0.05098 q 0.04123,0 0.06147,0.01949 0.01049,0.01199 0.01199,0.02474 0.0015,0.01274 0.003,0.07046 0.03673,-0.05097 0.08846,-0.08096 0.05247,-0.03073 0.08246,-0.03673 0.02998,-0.0067 0.05322,-0.0067 h 0.0015 q 0.02024,0 0.02549,0.0082 0.0052,0.0075 0.0052,0.02624 v 0.08546 q 0,0.01724 -0.0075,0.02774 -0.009,0.0075 -0.04048,0.01199 -0.03148,0.0037 -0.05622,0.01125 -0.05247,0.01874 -0.0907,0.05697 -0.03823,0.03823 -0.04948,0.08846 -0.0045,0.02024 -0.0045,0.05847 v 0.269115 q 0,0.03223 -0.0045,0.04198 -0.0045,0.0097 -0.02324,0.02549 -0.01874,0.009 -0.04273,0.009 h -0.06597 q -0.04123,0 -0.05547,-0.01799 -0.01349,-0.01874 -0.01349,-0.04798 z"
         style="font-weight:bold;font-family:'CMU Sans Serif';-inkscape-font-specification:'CMU Sans Serif Bold'"
         id="path1075" />
      <path
         d="m 53.559195,80.574604 q 0,-0.05547 0.06897,-0.05547 h 0.311094 q 0.06747,0 0.06822,0.05547 0,0.0105 -0.0037,0.02174 -0.003,0.01049 -0.02024,0.02249 -0.01649,0.01124 -0.04423,0.01124 h -0.312593 q -0.03973,0 -0.05397,-0.01799 -0.01349,-0.01874 -0.01349,-0.03748 z"
         style="font-weight:bold;font-family:'CMU Sans Serif';-inkscape-font-specification:'CMU Sans Serif Bold'"
         id="path1077" />
      <path
         d="m 54.242852,80.854214 v -0.921288 q 0,-0.03673 0.01499,-0.05397 0.01574,-0.01799 0.05622,-0.01799 h 0.07946 q 0.06747,0 0.06747,0.06597 v 0.844077 q 0.05847,0 0.154422,-0.0022 0.09595,-0.0022 0.166417,-0.0037 0.07046,-0.0015 0.07421,-0.0015 0.06747,0 0.06747,0.07046 v 0.01724 q 0,0.02174 -0.0037,0.03598 -0.003,0.01424 -0.02024,0.02699 -0.01649,0.01199 -0.04873,0.01199 h -0.53673 q -0.02174,0 -0.03523,-0.0037 -0.01274,-0.0037 -0.02474,-0.02024 -0.01125,-0.01724 -0.01125,-0.04798 z"
         style="font-weight:bold;font-family:'CMU Sans Serif';-inkscape-font-specification:'CMU Sans Serif Bold'"
         id="path1079" />
      <path
         d="m 55.132655,80.854214 v -0.91679 q 0,-0.04123 0.01724,-0.05622 0.01799,-0.01574 0.05397,-0.01574 h 0.610944 q 0.03073,0 0.04648,0.01274 0.01649,0.01199 0.01949,0.02399 0.003,0.01199 0.003,0.03223 v 0.02474 q 0,0.06747 -0.06447,0.06747 -0.02024,0 -0.05247,-7.49e-4 -0.03223,-7.5e-4 -0.146177,-0.0022 -0.113193,-0.0015 -0.269864,-0.003 v 0.284108 h 0.407046 q 0.01874,0 0.02923,0.0015 0.0105,0.0015 0.02324,0.0075 0.01349,0.006 0.02024,0.02249 0.0067,0.01574 0.0067,0.04198 0,0.07196 -0.06897,0.07196 h -0.41754 v 0.311843 l 0.491753,-0.006 q 0.06447,0.0015 0.06447,0.07046 v 0.03223 q 0,0.06747 -0.06972,0.06747 h -0.633433 q -0.03223,0 -0.04947,-0.01349 -0.01649,-0.01424 -0.01949,-0.02624 -0.0022,-0.01199 -0.0022,-0.03223 z"
         style="font-weight:bold;font-family:'CMU Sans Serif';-inkscape-font-specification:'CMU Sans Serif Bold'"
         id="path1081" />
      <path
         d="m 56.117662,80.857213 v -0.922788 q 0,-0.07346 0.06447,-0.07346 h 0.368815 q 0.0907,0 0.161919,0.0105 0.07121,0.01049 0.146926,0.04423 0.07646,0.03373 0.126687,0.09145 0.05097,0.05772 0.08321,0.158171 0.03223,0.100449 0.03223,0.23763 0,0.142429 -0.03973,0.245877 -0.03973,0.102699 -0.09445,0.155172 -0.05472,0.05172 -0.137181,0.08171 -0.08171,0.02998 -0.137181,0.03523 -0.05472,0.0052 -0.125937,0.0052 h -0.37856 q -0.03373,0 -0.05247,-0.01349 -0.01874,-0.01424 -0.01874,-0.05547 z m 0.213642,-0.06297 h 0.170165 q 0.07496,0 0.124438,-0.0052 0.04948,-0.0052 0.110194,-0.03448 0.06072,-0.02923 0.09745,-0.08321 0.05247,-0.07946 0.05472,-0.237631 v -0.01724 q 0,-0.07346 -0.0037,-0.119191 -0.0037,-0.04648 -0.02174,-0.108695 -0.01724,-0.06222 -0.05098,-0.09895 -0.03373,-0.03673 -0.09895,-0.06522 -0.06522,-0.02848 -0.157421,-0.03148 h -0.222638 l -0.0015,0.04423 z"
         style="font-weight:bold;font-family:'CMU Sans Serif';-inkscape-font-specification:'CMU Sans Serif Bold'"
         id="path1083" />
      <path
         d="m 57.244347,80.849716 q 0,-0.006 0.01874,-0.107946 0.0045,-0.03523 0.02174,-0.03523 0.0075,0 0.03598,0.02849 0.02849,0.02849 0.08321,0.05772 0.05547,0.02923 0.127436,0.02923 0.11994,0 0.11994,-0.08171 0,-0.04273 -0.03673,-0.06222 -0.03673,-0.02024 -0.107946,-0.03148 -0.07046,-0.01199 -0.09445,-0.02099 -0.05997,-0.02324 -0.110195,-0.07346 -0.04948,-0.05097 -0.04948,-0.134183 0,-0.215142 0.257871,-0.221139 h 0.03973 q 0.0982,0.0015 0.187406,0.03823 0.02324,0.009 0.02998,0.01574 0.0067,0.006 0.0067,0.02174 0,0.009 -0.01499,0.0967 -0.006,0.02324 -0.01874,0.02249 -0.01049,0 -0.03598,-0.02024 -0.02549,-0.02099 -0.07346,-0.04123 -0.04723,-0.02099 -0.113193,-0.02099 -0.113943,0 -0.113943,0.07346 0,0.03973 0.04273,0.05847 0.04348,0.01799 0.116192,0.03148 0.07346,0.01274 0.107196,0.03149 0.02924,0.01349 0.05472,0.03523 0.02624,0.02174 0.05322,0.06897 0.02699,0.04648 0.02699,0.102699 0,0.128935 -0.07421,0.180659 -0.07346,0.05172 -0.202399,0.05172 -0.159669,0 -0.274362,-0.07421 l -0.006,-0.0075 q -0.0037,-0.009 -0.0037,-0.01199 z"
         style="font-weight:bold;font-family:'CMU Sans Serif';-inkscape-font-specification:'CMU Sans Serif Bold'"
         id="path1085" />
    </g>
  </g>
</svg>
