<?xml version="1.0" encoding="UTF-8" standalone="no"?>
<svg
   inkscape:version="1.2.2 (732a01da63, 2022-12-09)"
   sodipodi:docname="candle logo.svg"
   id="svg5004"
   viewBox="0 0 6.3192804 9.0008871"
   version="1.1"
   height="9.0010004mm"
   width="6.3192234mm"
   xmlns:inkscape="http://www.inkscape.org/namespaces/inkscape"
   xmlns:sodipodi="http://sodipodi.sourceforge.net/DTD/sodipodi-0.dtd"
   xmlns="http://www.w3.org/2000/svg"
   xmlns:svg="http://www.w3.org/2000/svg"
   xmlns:rdf="http://www.w3.org/1999/02/22-rdf-syntax-ns#"
   xmlns:cc="http://creativecommons.org/ns#"
   xmlns:dc="http://purl.org/dc/elements/1.1/">
  <defs
     id="defs5008" />
  <sodipodi:namedview
     inkscape:document-rotation="0"
     pagecolor="#ffffff"
     bordercolor="#666666"
     borderopacity="1"
     objecttolerance="10"
     gridtolerance="10"
     guidetolerance="10"
     inkscape:pageopacity="0"
     inkscape:pageshadow="2"
     inkscape:window-width="1920"
     inkscape:window-height="1057"
     id="namedview5006"
     showgrid="false"
     inkscape:zoom="5.1972348"
     inkscape:cx="-14.430751"
     inkscape:cy="11.352191"
     inkscape:window-x="1912"
     inkscape:window-y="-8"
     inkscape:window-maximized="1"
     inkscape:current-layer="svg5004"
     inkscape:showpageshadow="0"
     inkscape:pagecheckerboard="0"
     inkscape:deskcolor="#d1d1d1"
     inkscape:document-units="mm" />
  <metadata
     id="metadata4996">
    <rdf:RDF>
      <cc:Work
         rdf:about="">
        <dc:format>image/svg+xml</dc:format>
        <dc:type
           rdf:resource="http://purl.org/dc/dcmitype/StillImage" />
      </cc:Work>
    </rdf:RDF>
  </metadata>
  <g
     transform="matrix(0.33932469,0,0,0.33932469,-7.1040565,-11.632438)"
     fill="none"
     stroke="#000000"
     stroke-linecap="round"
     stroke-width="0.48067"
     id="g5002">
    <path
       d="m 30.2712,34.2803 c -2.2911,0.0309 -4.0433,0.2801 -4.2715,0.3134 -2.5718,0.376 -3.329,1.8803 -3.4318,2.4778 l 0.0452,0.0068 -0.014,-0.0609 c -0.064,0.4385 -0.0734,0.9904 0.0938,1.4297 0.1671,0.4393 0.5349,0.8198 1.1314,0.8886 0.0653,0.0075 0.176,-0.0558 0.2431,-0.1149 0.0671,-0.0591 0.0075,-0.204 0.0174,-0.2546 0.0198,-0.1013 0.0188,-0.1263 0.0074,-0.2107 -0.0227,-0.1688 0.1039,-0.2636 0.0881,-0.4858 -0.0315,-0.4445 -0.0077,-1.0539 0.5008,-1.3902 1.0829,-0.7162 2.1727,-0.6636 2.3476,-0.6662 2.4054,-0.0303 3.7309,0.0753 4.512,0.1849 0.7811,0.1096 1.0484,0.172 1.647,0.319 0.4015,0.0986 0.6959,0.3392 0.9378,0.5568 0.2419,0.2175 0.3469,0.4968 0.3485,0.5934 0.0017,0.1035 -0.0562,0.3445 -0.1937,0.516 -0.1375,0.1716 -0.3625,0.2652 -0.4057,0.2915 -0.3724,0.2267 -0.5207,0.5345 -0.6648,0.8389 -0.072,0.1523 -0.1202,0.3031 -0.1507,0.4294 -0.0304,0.1263 -0.1778,0.282 -0.1663,0.3896 0.0502,0.4675 0.4321,0.7814 0.7163,1.0646 0.2842,0.2833 0.5324,0.5896 0.5976,0.6513 0.3719,0.3518 0.4939,0.5497 0.4506,0.8042 -0.0432,0.2544 -0.1772,0.4345 -0.2762,0.6303 -0.0106,0.0209 -0.1448,0.2205 -0.3146,0.3591 -0.1699,0.1387 -0.505,0.35 -0.7263,0.4988 -0.4427,0.2977 -0.8115,0.5423 -0.9201,0.5989 -0.1656,0.0861 -0.662,0.0197 -0.7007,0.0103 0.0727,0.0175 0.0438,0.0519 -0.0289,-0.0097 -0.0727,-0.0615 -0.1764,-0.2611 -0.2751,-0.3482 -0.0987,-0.087 -0.1339,-0.0564 -0.2416,-0.13 -0.1076,-0.0736 -0.3132,-0.2704 -0.4747,-0.2755 -0.3874,-0.0128 -0.8856,0.0864 -1.1941,0.1187 -0.318,0.0333 -0.5321,0.221 -0.6173,0.4385 -0.0853,0.2174 -0.1158,0.5615 -0.1071,0.6979 0.0171,0.2833 0.0318,0.6487 0.0839,1.0856 0.052,0.4369 0.0805,0.9155 0.0876,1.1101 0.0147,0.402 0.1022,2.1755 0.1303,2.6471 0.0605,1.0144 0.4099,1.578 0.6359,1.8571 0.2446,0.3021 0.2631,0.6015 0.2284,0.7525 -0.0348,0.1511 -0.1465,0.2713 -0.2377,0.4037 -0.0252,0.0366 -0.0612,0.2214 -0.2426,0.3264 -0.1813,0.1049 -0.5352,0.0449 -0.8499,-0.1728 -0.1208,-0.0836 0.0173,-0.1902 2e-4,-0.2315 -0.0171,-0.0413 -0.0763,-0.0208 -0.0624,-0.0683 0.0278,-0.095 0.1983,-0.1947 0.2895,-0.3621 0.1743,-0.3199 0.0887,-0.663 0.0997,-0.8805 0.011,-0.2175 0.1075,-0.3829 0.104,-0.416 -0.0493,-0.4605 -0.257,-0.911 -0.257,-1.105 0,-0.4221 -0.0098,-0.8167 -0.0703,-1.1849 -0.0605,-0.3683 -0.1369,-0.8404 -0.1349,-0.9308 0.0132,-0.5596 0.097,-1.4357 0.0895,-1.9306 l -0.064,-0.0168 c -0.0011,-0.0649 0.0093,-0.6506 0.031,-1.064 0.0109,-0.2068 0.0077,-0.3376 0.0055,-0.5032 -0.0011,-0.0828 0.1137,-0.2666 0.105,-0.3332 -0.0044,-0.0333 0.0258,0.1173 0.0148,0.0811 -0.011,-0.0362 0.0149,-0.2577 -0.0501,-0.3176 -0.0786,-0.0726 -0.1955,-0.0832 -0.261,-0.0977 -0.0655,-0.0144 -0.1692,-0.0111 -0.2427,-0.0152 -0.1471,-0.0082 -0.3968,0.007 -0.5704,0.0187 -0.3472,0.0235 -0.6128,0.1044 -0.804,0.1551 -0.7727,0.2052 -1.1045,0.1326 -1.2802,-0.0452 -0.1757,-0.1779 -0.2829,-0.5398 -0.3163,-0.749 -0.0695,-0.4347 -0.0157,-0.6204 0.1069,-0.7396 0.1227,-0.1193 0.4836,-0.1648 0.6986,-0.293 0.4865,-0.2903 0.7838,-0.5362 0.9747,-0.7687 0.191,-0.2326 0.249,-0.458 0.249,-0.6739 0,-0.2378 -0.1756,-0.4597 -0.2481,-0.6895 -0.0362,-0.1148 0.0772,-0.2628 0.0357,-0.3523 -0.0415,-0.0896 -0.0617,-0.2187 -0.1551,-0.3001 -0.0893,-0.0779 -0.3421,-0.0373 -0.4047,-0.0443 -0.0626,-0.007 0.0573,0.1272 -0.0129,0.1304 -0.1404,0.0065 -0.3209,0.0109 -0.5089,0.0359 -0.376,0.0501 -0.9389,0.1505 -1.3336,0.1841 -0.9986,0.085 -1.5856,0.3585 -2.0387,0.792 -0.2265,0.2168 -0.4942,0.5715 -0.6043,0.767 -0.1102,0.1954 -0.2048,0.2151 -0.2085,0.382 -0.0129,0.5172 0.0088,2.5169 -0.065,3.8136 -0.0073,0.1282 0.0213,0.2986 0.0328,0.6997 0.0115,0.401 0.0099,0.9707 0.0239,1.5108 0.0281,1.0802 0.0618,2.3531 0.0204,2.9181 l 0.0346,-0.0437 -0.0819,-0.1342 c -0.0251,1.4679 0.0814,3.1219 0.1306,4.4975 0.0032,0.1075 -0.1747,0.2988 -0.2664,0.5467 -0.0459,0.1243 -0.0954,0.3289 -0.132,0.4474 -0.0367,0.1185 -0.0721,0.1917 -0.0621,0.3238 0.025,0.328 0.1211,0.6504 0.1281,0.9928 -0.0422,0.054 -0.2192,0.2542 -0.3527,0.4592 -0.0796,0.1223 -0.0318,0.1407 -0.0876,0.2673 -0.0279,0.0632 -0.1656,0.1892 -0.1785,0.2599 -0.0128,0.0707 0.1252,0.1057 0.1837,0.2071 0.08,0.139 0.0059,0.3004 0.1267,0.3539 0.1209,0.0535 0.4267,0.0299 0.5667,0.0593 0.28,0.0589 0.3958,0.1512 0.6195,0.1178 0.0206,-0.0031 0.1727,-0.0618 0.3232,-0.0239 0.1506,0.0379 0.3677,0.1389 0.552,0.2054 0.3687,0.1329 0.749,0.2496 0.9579,0.3289 2.4643,0.9363 4.7281,0.8824 5.7971,0.8725 0.5166,-0.0049 1.0667,0.1058 1.2227,0.1418 l 0.1224,0.0292 c 0.103,0.0235 0.0795,-0.1408 0.2456,-0.1316 0.166,0.0092 0.4109,0.197 0.6205,0.2018 0.2095,0.0048 0.4098,-0.0182 0.5918,-0.0213 0.1819,-0.0031 0.3368,-0.0164 0.4517,-0.0388 0.2762,-0.0539 1.1559,-0.315 1.4406,-0.4078 0.1027,-0.0335 0.2459,0.0497 0.3448,0.108 0.0988,0.0584 0.1017,0.0632 0.2407,0.1543 0.1066,0.0698 0.2313,0.0297 0.3598,0.0529 0.1285,0.0231 0.2868,0.045 0.4428,0.0385 0.312,-0.0129 0.6931,-0.0391 0.8666,-0.381 0.0121,-0.0237 0.1332,0.0076 0.238,-0.0536 0.1047,-0.0612 0.2541,-0.2602 0.388,-0.3074 0.2678,-0.0943 0.5549,-0.053 0.5549,-0.053 0.1299,-0.0265 0.0865,-0.2303 0.0601,-0.3602 -0.0265,-0.13 -0.0554,-0.0875 -0.1854,-0.0611 0,0 -0.3532,-0.0655 -0.6574,0.0417 -0.1522,0.0536 -0.2774,0.1271 -0.4231,0.2122 -0.1457,0.0852 -0.313,0.2927 -0.3968,0.4577 -0.0482,0.095 -0.272,0.0822 -0.5035,0.0918 -0.1158,0.0048 -0.2809,-0.0438 -0.3746,-0.0607 -0.0938,-0.0168 -0.011,-0.0122 0.0095,0.0012 -0.0796,-0.0521 -0.2589,-0.2477 -0.4232,-0.3447 -0.1643,-0.0971 -0.3245,-0.0833 -0.5739,-0.002 -0.1998,0.0652 -1.1968,0.3551 -1.4158,0.3978 -0.0302,0.0059 -0.2333,-0.0149 -0.4057,-0.012 -0.1724,0.0029 -0.3287,-0.0681 -0.5334,-0.0728 -0.2048,-0.0047 -0.4788,0.0339 -0.6379,0.0251 -0.158,-0.0088 -0.3486,0.0671 -0.3344,0.0705 l 0.0403,-0.0933 c -0.2721,-0.0627 -0.6922,-0.159 -1.238,-0.1538 -1.086,0.01 -3.3481,0.0904 -5.7118,-0.8077 -0.1867,-0.0709 -0.5034,-0.1545 -0.8892,-0.2936 -0.1928,-0.0695 -0.4569,-0.1873 -0.633,-0.2317 -0.1761,-0.0444 -0.3233,-6e-4 -0.4851,0.0236 -0.1107,0.0166 -0.4144,-0.1041 -0.6471,-0.153 -0.1163,-0.0245 -0.181,0.0244 -0.2564,-0.009 -0.0475,-0.0209 -0.0032,-0.1039 -0.0161,-0.1135 0.0052,-0.0155 -0.0054,0.0035 0.0041,-0.018 0.037,-0.0838 0.0756,-0.2665 0.1474,-0.3767 0.1437,-0.2206 0.2684,-0.4134 0.2684,-0.4134 l 0.0028,0.0019 0.0228,-0.0032 c -0.0096,-0.3569 -0.0533,-0.8725 -0.0827,-1.2586 -3e-4,-0.0039 0.0409,0.0517 0.0708,-0.0449 0.0298,-0.0966 0.1654,-0.3301 0.2122,-0.4567 0.0935,-0.2532 0.1671,-0.5048 0.1575,-0.7827 -0.0494,-1.38 -0.0867,-2.8171 -0.0628,-4.2547 l -0.0485,-0.0971 c 0.0448,-0.6245 -0.0566,-1.8578 -0.0846,-2.9362 -0.0141,-0.5417 0.0482,-0.9652 0.0368,-1.3651 -0.0114,-0.3998 -0.0239,-0.758 -0.0215,-0.7999 0.0744,-1.3085 0.1597,-3.1738 0.1728,-3.6991 -3e-4,0.0095 -0.0713,-0.2028 0.0152,-0.3561 0.0864,-0.1533 0.3466,-0.3646 0.5378,-0.5476 0.3824,-0.3659 0.9337,-0.5383 1.8232,-0.614 0.4206,-0.0358 0.781,-0.2162 1.1475,-0.265 0.1832,-0.0244 0.3812,-0.0606 0.4925,-0.0657 0.0422,-0.0019 0.0927,0.0302 0.1163,0.0315 0.0076,0.012 0.0538,0.0332 0.0718,0.0722 0.0299,0.0644 0.0263,0.2245 0.0573,0.3229 0.0621,0.1967 0.0908,0.261 0.0908,0.4104 0,0.1399 0.0264,0.3943 -0.1044,0.5536 -0.1308,0.1593 -0.4975,0.3809 -0.9603,0.657 -0.1385,0.0826 -0.3903,0.1549 -0.6183,0.3766 -0.228,0.2216 -0.2991,0.4889 -0.2138,1.0218 0.0314,0.1968 0.1108,0.6495 0.4247,0.9672 0.3139,0.3177 0.8299,0.5247 1.6944,0.2951 0.1069,-0.0283 0.4552,-0.2461 0.7773,-0.2679 0.1611,-0.0109 0.321,0.1292 0.4351,0.1356 0.0329,0.0018 0.1592,-0.055 0.1832,-0.0518 0.0023,0.0324 -0.056,0.1614 -0.0554,0.2074 0.0019,0.1448 0.0292,0.2402 0.0186,0.4421 -0.0212,0.4039 -0.0529,0.7305 -0.0499,0.9065 0.0064,0.4268 -0.2185,1.5447 -0.2324,2.1358 l 0.0115,0.0057 c -0.0049,0.2242 0.1829,0.6057 0.2422,0.9663 0.0593,0.3606 0.0852,0.7149 0.0852,1.0881 0,0.3297 0.026,0.7758 0.0712,1.1981 0.012,0.1125 0.0524,0.2616 0.0448,0.4119 -0.0076,0.1502 0.0349,0.3195 -0.1072,0.5802 -0.0306,0.0562 -0.2355,0.3404 -0.3091,0.5912 -0.0367,0.1255 -0.035,0.2311 0.0274,0.3815 0.0624,0.1505 0.1911,0.1777 0.3635,0.2969 0.4484,0.3102 0.9122,0.3629 1.2051,0.1934 0.2928,-0.1695 0.4317,-0.3771 0.4624,-0.4218 0.06,-0.0871 0.1605,-0.2751 0.2269,-0.5635 0.0664,-0.2885 0.176,-0.7702 -0.1352,-1.1544 -0.1294,-0.1599 -0.563,-0.83 -0.6172,-1.7395 -0.0244,-0.4098 -0.0848,-2.1313 -0.1007,-2.567 -0.009,-0.2448 -0.0201,-0.6166 -0.0722,-1.0539 -0.0521,-0.4374 -0.137,-0.9616 -0.1522,-1.2127 -0.0013,-0.0203 0.0101,-0.1575 0.062,-0.2898 0.0519,-0.1323 0.0578,-0.15 0.1459,-0.1592 0.2787,-0.0292 0.8316,-0.1148 1.1747,-0.1035 -0.0258,-8e-4 0.1808,0.024 0.2576,0.0765 0.0767,0.0525 0.2256,0.0871 0.3189,0.1694 0.0932,0.0823 0.0543,0.2617 0.14,0.3342 0.0856,0.0725 0.0693,-0.0541 0.2257,-0.0165 0.1485,0.0358 0.5665,0.1653 0.9509,-0.0347 0.1613,-0.084 0.7371,-0.2941 1.1952,-0.6021 0.2291,-0.154 0.3792,-0.3259 0.5678,-0.4799 0.1887,-0.154 0.4033,-0.251 0.493,-0.4284 0.0657,-0.1298 0.1653,-0.5114 0.2306,-0.8956 0.0653,-0.3841 0.1072,-0.8654 -0.356,-1.3036 -0.1479,-0.1399 -0.5642,-0.2967 -0.8115,-0.5432 -0.2474,-0.2466 -0.4365,-0.6008 -0.4677,-0.8908 5e-4,0.0046 0.1575,0.0444 0.1799,-0.0486 0.0224,-0.0929 -0.1046,-0.2251 -0.0473,-0.3462 0.1146,-0.2421 0.3064,-0.4545 0.5746,-0.6178 0.1431,-0.087 0.3967,-0.3721 0.5686,-0.5865 0.1719,-0.2144 0.4097,-0.4727 0.4045,-0.7839 -0.0054,-0.3324 -0.3207,-0.5321 -0.6232,-0.8041 -0.3025,-0.272 -0.7233,-0.5163 -1.2074,-0.6352 -0.5626,-0.1381 -0.9477,-0.2444 -1.7705,-0.3598 -0.8227,-0.1155 -2.0218,-0.2866 -4.4385,-0.2561 -0.161,0.0024 -1.5259,-0.0453 -2.7371,0.7557 -0.6766,0.4475 -0.7043,1.2687 -0.6673,1.7899 0.0122,0.1718 -0.0371,0.2357 -0.0165,0.3624 -0.2096,-0.0986 -0.2954,-0.2119 -0.3782,-0.4296 -0.1195,-0.3139 -0.2028,-0.7393 -0.147,-1.1261 0.0642,-0.3736 0.5733,-1.5295 2.9926,-1.8833 0.2878,-0.0421 1.9695,-0.3228 4.2223,-0.3532 2.2527,-0.0304 4.9891,0.2439 7.5853,1.2458 0.0657,0.0254 0.1361,0.16 0.2438,0.3754 0.1077,0.2155 0.1986,0.395 0.2725,0.673 0.148,0.5558 0.3441,1.1107 0.3441,1.1107 l 0.0557,0.0693 -0.1335,-0.0321 c -0.0026,-0.0059 0.1659,0.2065 0.1838,0.416 0.0179,0.2095 -0.0247,0.4349 -0.0156,0.7563 0.0181,0.6428 0.0396,1.5189 0.0395,2.3502 -1e-4,0.8313 -0.125,1.6327 -0.1174,2.3283 0.0075,0.6957 0.0988,1.2076 0.1492,1.491 0.0965,0.5432 0.188,1.7573 0.169,2.7658 -0.019,1.0085 -0.1494,1.9125 -0.1494,1.9125 l -0.0327,-0.1327 0.0907,2.9626 -0.0173,4.5307 c 0.0022,0.1327 0.1916,0.2612 0.3242,0.259 0.1319,-0.0022 0.2185,-0.0401 0.2175,-0.172 l 0.0129,-4.7116 -0.1161,-2.6719 -0.0563,-0.1242 0.0449,0.0109 c 7e-4,-0.0142 0.142,-0.9334 0.161,-1.9427 0.0191,-1.0178 0.0259,-2.0938 -0.0889,-2.7396 -0.0319,-0.1793 -0.141,-0.6402 -0.1485,-1.3304 -0.0075,-0.6901 0.0064,-1.5519 0.0065,-2.3842 10e-5,-0.8323 0.0462,-1.7625 0.0278,-2.4155 -0.0092,-0.3265 -0.0528,-0.4837 -0.072,-0.7091 -0.0193,-0.2255 -0.0013,-0.4441 -0.0666,-0.5913 l -0.0993,0.0449 c 0,0 -0.0423,-0.6301 -0.2003,-1.2235 -0.0789,-0.2967 -0.0943,-0.4646 -0.2261,-0.7283 -0.1318,-0.2637 -0.3225,-0.5071 -0.5897,-0.6102 -2.6823,-1.0352 -5.5536,-1.3243 -7.8447,-1.2934 z m -1.0866,3.9375 c -0.0159,0.0017 -0.0159,0.083 -0.0312,0.0878 -0.0614,0.0173 -0.2284,-0.0464 -0.2596,0.0093 -0.0311,0.0557 0.1194,0.2175 0.1368,0.2789 0,0 0.2965,1.2935 1.5216,1.4665 l 0.0559,0.1547 c 0.1996,0.037 0.3644,0.2583 0.5102,0.6838 0.1457,0.4256 0.2455,1.014 -0.0829,1.5784 -0.0585,0.1006 -0.365,0.2292 -0.6183,0.3709 -0.2533,0.1416 -0.4496,0.1766 -0.7762,-0.0697 0.0406,0.0306 0.0432,0.0272 0.0265,-0.0414 -0.0167,-0.0686 0.0049,-0.0702 0.0112,-0.2101 0.0127,-0.2798 0.0069,-0.7596 0.2249,-1.2461 l -0.051,0.1186 c 0,0 0.0995,-0.1756 0.1242,-0.431 0.0247,-0.2555 0.0562,-0.6608 -0.3057,-0.8876 -0.1123,-0.0697 -0.3735,-0.0152 -0.4439,0.0966 -0.0697,0.1123 0.1334,0.1519 0.2452,0.2223 0.2285,0.1432 0.0397,0.3314 0.0275,0.457 -0.0121,0.1256 -0.0475,0.282 -0.0475,0.282 l 0.0247,0.0491 0.051,-0.0922 c -0.2396,0.5346 -0.3233,0.9861 -0.3393,1.3386 -0.008,0.1762 -0.1029,0.2778 -0.0719,0.4049 0.0309,0.1272 0.0374,0.2417 0.1573,0.3321 0.4702,0.3547 1.1119,0.3317 1.473,0.1297 0.3611,-0.2019 0.584,-0.4739 0.6953,-0.6652 0.3976,-0.6835 0.4461,-1.477 0.2582,-2.026 -0.188,-0.5489 -0.6683,-0.8243 -1.1293,-0.9099 l 0.1427,-0.0159 -0.1558,-0.0246 c -0.8709,-0.123 -1.175,-1.3097 -1.175,-1.3097 -0.0313,-0.1101 -0.0933,-0.1511 -0.2074,-0.1421 z"
       style="color:#000000;font-style:normal;font-variant:normal;font-weight:normal;font-stretch:normal;font-size:medium;line-height:normal;font-family:sans-serif;font-variant-ligatures:normal;font-variant-position:normal;font-variant-caps:normal;font-variant-numeric:normal;font-variant-alternates:normal;font-variant-east-asian:normal;font-feature-settings:normal;font-variation-settings:normal;text-indent:0;text-align:start;text-decoration:none;text-decoration-line:none;text-decoration-style:solid;text-decoration-color:#000000;letter-spacing:normal;word-spacing:normal;text-transform:none;writing-mode:lr-tb;direction:ltr;text-orientation:mixed;dominant-baseline:auto;baseline-shift:baseline;text-anchor:start;white-space:normal;shape-padding:0;shape-margin:0;inline-size:0;clip-rule:nonzero;display:inline;overflow:visible;visibility:visible;opacity:1;isolation:auto;mix-blend-mode:normal;color-interpolation:sRGB;color-interpolation-filters:linearRGB;solid-color:#000000;solid-opacity:1;vector-effect:none;fill:#000000;fill-opacity:1;fill-rule:nonzero;stroke:none;stroke-width:0.48067;stroke-linecap:butt;stroke-linejoin:miter;stroke-miterlimit:4;stroke-dasharray:none;stroke-dashoffset:0;stroke-opacity:1;color-rendering:auto;image-rendering:auto;shape-rendering:auto;text-rendering:auto;enable-background:accumulate;stop-color:#000000;stop-opacity:1"
       id="path862" />
  </g>
</svg>
