<?xml version="1.0" encoding="UTF-8" standalone="no"?>
<!-- Created with Inkscape (http://www.inkscape.org/) -->

<svg
   width="2.8109314mm"
   height="2.4992845mm"
   viewBox="0 0 2.8109314 2.4992846"
   version="1.1"
   id="svg33"
   inkscape:version="1.2.2 (732a01da63, 2022-12-09)"
   sodipodi:docname="skull logo stroke.svg"
   xmlns:inkscape="http://www.inkscape.org/namespaces/inkscape"
   xmlns:sodipodi="http://sodipodi.sourceforge.net/DTD/sodipodi-0.dtd"
   xmlns="http://www.w3.org/2000/svg"
   xmlns:svg="http://www.w3.org/2000/svg"
   xmlns:rdf="http://www.w3.org/1999/02/22-rdf-syntax-ns#"
   xmlns:cc="http://creativecommons.org/ns#"
   xmlns:dc="http://purl.org/dc/elements/1.1/">
  <defs
     id="defs27" />
  <sodipodi:namedview
     id="base"
     pagecolor="#ffffff"
     bordercolor="#666666"
     borderopacity="1.0"
     inkscape:pageopacity="0.0"
     inkscape:pageshadow="2"
     inkscape:zoom="11.2"
     inkscape:cx="-0.89285714"
     inkscape:cy="0"
     inkscape:document-units="mm"
     inkscape:current-layer="layer1"
     showgrid="true"
     units="px"
     inkscape:window-width="1920"
     inkscape:window-height="1057"
     inkscape:window-x="1912"
     inkscape:window-y="-8"
     inkscape:window-maximized="1"
     inkscape:snap-bbox="false"
     inkscape:snap-bbox-midpoints="true"
     inkscape:snap-nodes="false"
     inkscape:snap-object-midpoints="true"
     inkscape:showpageshadow="0"
     inkscape:pagecheckerboard="0"
     inkscape:deskcolor="#d1d1d1" />
  <metadata
     id="metadata30">
    <rdf:RDF>
      <cc:Work
         rdf:about="">
        <dc:format>image/svg+xml</dc:format>
        <dc:type
           rdf:resource="http://purl.org/dc/dcmitype/StillImage" />
      </cc:Work>
    </rdf:RDF>
  </metadata>
  <g
     inkscape:label="Layer 1"
     inkscape:groupmode="layer"
     id="layer1"
     transform="translate(-104.42742,-189.91716)">
    <path
       id="path5100"
       style="display:inline;opacity:1;fill:none;stroke:#000000;stroke-width:0.0511137;stroke-linecap:round;stroke-linejoin:miter;stroke-miterlimit:4;stroke-dasharray:none;stroke-opacity:1"
       d="m 104.83206,192.05229 c 0.008,0.13773 0.0243,0.2147 0.077,0.29977 0.0527,0.0851 0.11188,0.007 0.12254,-0.0121 0.0142,-0.0253 0.0638,-0.12963 0.0678,-0.25116 2e-5,-0.014 0.004,-0.0108 0.004,0.008 2.5e-4,0.0194 0.0136,0.0811 0.017,0.093 0.007,0.0238 0.0203,0.0549 0.0241,0.0645 0,0 0.0289,0.0687 0.0806,0.11222 0.0516,0.0436 0.0759,-0.0216 0.081,-0.0358 0.003,-0.007 0.0182,-0.0482 0.0332,-0.10393 0.0128,-0.0478 0.0212,-0.10573 0.0299,-0.14441 10e-4,-0.005 -5e-4,0.003 0.002,0.012 0.008,0.0317 0.0389,0.0736 0.0826,0.12133 0.0438,0.0477 0.0979,0.0965 0.14781,0.13227 0.0126,0.009 0.0535,0.0201 0.0619,-0.0112 0.0192,-0.0717 0.0269,-0.13903 0.009,-0.23281 -7.5e-4,-0.003 5e-4,0.002 0.003,0.005 0.0338,0.0675 0.16459,0.16387 0.25465,0.1907 0.0444,0.0129 0.0687,-0.0215 0.0745,-0.043 0.006,-0.0215 0.006,-0.12805 -0.0516,-0.26639 -0.0492,-0.11781 -0.10754,-0.28072 -0.15622,-0.31851 -0.003,-0.003 0.007,-0.004 0.009,-0.001 0.0496,0.0486 0.45047,0.0122 0.60804,-0.0186 0.10156,-0.0198 0.21197,-0.0301 0.3691,-0.0949 0.0537,-0.0221 0.0387,-0.0858 0.0113,-0.11275 -0.0621,-0.0611 -0.12016,-0.0951 -0.17688,-0.11028 m 0.59294,-0.3466 c 0.008,-0.12963 0.009,-0.25236 -0.19745,-0.48319 -0.20368,-0.2272 -0.32961,-0.44488 -0.81083,-0.53081 -0.48123,-0.0859 -0.76767,0.0344 -0.76767,0.0344 0,0 -0.49994,0.11937 -0.71316,0.52116 -0.14802,0.27891 -0.10034,0.60644 -0.10034,0.60644 0,0 -0.18836,0.0743 -0.16613,0.2817 0.022,0.20508 0.2492,0.17473 0.2492,0.17473 0,0 0.20624,0.0143 0.338,-0.0773 0.13177,-0.0917 0.0745,-0.18333 0.0745,-0.18333 0,0 -0.0291,-0.19645 -0.33277,-0.20791 -0.005,-1.9e-4 -0.014,-0.002 -0.008,-0.002 0.10008,5e-4 0.40067,-2.3e-4 0.45739,-0.004 0.11342,-0.008 0.6765,-0.0121 0.6765,-0.0121 0,0 0.19242,-0.0223 0.26533,0.17621 0.0365,0.0993 -0.10532,0.16811 -0.23191,0.19799 -0.12659,0.0299 -0.26289,0.0367 -0.26289,0.0367 0,0 -0.15836,0.0232 -0.14655,-0.17785 0.003,-0.0568 0.0522,-0.15204 0.0824,-0.17592 0.0302,-0.0239 0.10727,-0.0572 0.10727,-0.0572 0,0 -0.0766,0.0101 -0.1961,-0.01 -0.18875,-0.0311 -0.26102,0.0572 -0.34791,0.23782 -0.15195,0.31592 -0.0964,0.48443 -0.096,0.53329 4e-5,0.005 0.009,0.0117 0.012,0.008 0.0984,-0.11519 0.20101,-0.3324 0.18246,-0.47389 -0.002,-0.0125 -0.009,-0.0103 -0.007,7.5e-4 0.0583,0.2974 0.18542,0.34852 0.22138,0.38043 0.0114,0.0101 0.0141,0.0109 0.0162,-5e-4 0.0284,-0.15799 -0.0261,-0.28606 -0.0989,-0.3958 -0.0994,-0.14996 -0.0793,-0.15918 -0.0631,-0.2645"
       inkscape:connector-curvature="0" />
  </g>
</svg>
