<?xml version="1.0" encoding="UTF-8" standalone="no"?>
<!-- Created with Inkscape (http://www.inkscape.org/) -->

<svg
   width="4.5001097mm"
   height="4.0006185mm"
   viewBox="0 0 4.5001097 4.0006184"
   version="1.1"
   id="svg1014"
   inkscape:version="1.2.2 (732a01da63, 2022-12-09)"
   sodipodi:docname="skull logo bold.svg"
   xmlns:inkscape="http://www.inkscape.org/namespaces/inkscape"
   xmlns:sodipodi="http://sodipodi.sourceforge.net/DTD/sodipodi-0.dtd"
   xmlns="http://www.w3.org/2000/svg"
   xmlns:svg="http://www.w3.org/2000/svg">
  <sodipodi:namedview
     id="namedview1016"
     pagecolor="#505050"
     bordercolor="#eeeeee"
     borderopacity="1"
     inkscape:showpageshadow="0"
     inkscape:pageopacity="0"
     inkscape:pagecheckerboard="0"
     inkscape:deskcolor="#505050"
     inkscape:document-units="mm"
     showgrid="false"
     inkscape:zoom="26.910887"
     inkscape:cx="8.546727"
     inkscape:cy="8.4538278"
     inkscape:window-width="1476"
     inkscape:window-height="808"
     inkscape:window-x="2200"
     inkscape:window-y="72"
     inkscape:window-maximized="0"
     inkscape:current-layer="layer1" />
  <defs
     id="defs1011" />
  <g
     inkscape:label="Layer 1"
     inkscape:groupmode="layer"
     id="layer1"
     transform="translate(-102.83203,-106.85748)">
    <path
       id="path10336"
       style="font-variant-ligatures:normal;font-variant-position:normal;font-variant-caps:normal;font-variant-numeric:normal;font-variant-alternates:normal;font-feature-settings:normal;text-indent:0;text-decoration-line:none;text-decoration-style:solid;text-decoration-color:#000000;text-transform:none;text-orientation:mixed;white-space:normal;shape-padding:0;display:inline;isolation:auto;mix-blend-mode:normal;fill:#000000;stroke-width:0.0236985"
       d="m 105.078,106.85981 c -0.36918,0.0266 -0.73471,0.1181 -1.07057,0.27333 -0.16392,0.0861 -0.31634,0.19577 -0.45255,0.32095 -0.17073,0.16588 -0.27981,0.38305 -0.37475,0.59852 -0.0678,0.1395 -0.0584,0.29914 -0.09,0.44811 -0.01,0.0892 -0.004,0.17901 0.001,0.26822 -0.10624,0.0935 -0.23256,0.19584 -0.24729,0.34652 -0.0358,0.15139 0.009,0.33185 0.14541,0.4185 0.11783,0.0811 0.26653,0.0656 0.40113,0.0875 0.10006,0.0148 0.19257,-0.0314 0.28919,-0.0474 0.0612,-0.015 0.12383,-0.0347 0.17285,-0.0754 -0.0316,0.16991 -0.0704,0.35456 -10e-4,0.52027 0.0264,0.047 0.10624,0.0597 0.1313,0.004 0.0895,-0.11211 0.19267,-0.22597 0.22242,-0.36927 0.006,-0.0119 0.0187,-0.0791 0.0333,-0.049 0.0573,0.13223 0.16335,0.24411 0.29453,0.30338 0.0564,0.0215 0.12089,-0.0165 0.12903,-0.0767 0.0359,-0.15326 -0.0133,-0.31121 -0.0683,-0.45393 0.0501,0.0917 0.16111,0.14395 0.26342,0.1173 0.24387,-0.0257 0.4996,-0.0518 0.71459,-0.17917 0.0817,-0.0477 0.15717,-0.1309 0.14562,-0.23228 -0.0107,-0.13884 -0.11877,-0.24794 -0.22901,-0.32169 -0.11211,-0.0726 -0.251,-0.0994 -0.38263,-0.0781 -0.18463,0.002 -0.36995,0.0107 -0.55369,-0.0121 -0.0798,-0.007 -0.16253,0.002 -0.23567,0.0321 -0.0584,0.005 -0.11691,-0.0192 -0.17496,-5.5e-4 -0.25079,0.0333 -0.50465,0.004 -0.75614,0.0191 -0.0773,0.0367 -0.0305,0.16377 0.0484,0.16084 0.0747,0.01 0.1627,-0.0192 0.22409,0.0385 0.0679,0.0466 0.17221,0.0575 0.19921,0.14677 0.0158,0.0509 0.0432,0.10261 0.0413,0.15614 -0.0164,0.0559 -0.0578,0.10667 -0.10603,0.1369 -0.082,0.0333 -0.17301,0.0452 -0.25814,0.0714 -0.14288,0.0292 -0.29899,0.0368 -0.435,-0.0219 -0.0855,-0.0454 -0.12278,-0.15825 -0.0818,-0.24652 0.0121,-0.0594 0.0121,-0.12917 0.0689,-0.16705 0.0532,-0.0442 0.10838,-0.0854 0.16827,-0.11944 0.0482,-0.0351 0.0138,-0.10069 0.0176,-0.14883 -0.0204,-0.24373 -0.0228,-0.50161 0.0933,-0.72391 0.0703,-0.14325 0.15882,-0.27938 0.26553,-0.3979 0.23717,-0.22114 0.52857,-0.38121 0.83888,-0.47474 0.11837,-0.0331 0.23689,-0.0736 0.35955,-0.085 0.0893,8.5e-4 0.17832,-0.002 0.26685,-0.0133 0.14666,-0.004 0.29424,0.004 0.43987,0.0178 0.0832,0.0247 0.16763,0.0468 0.25467,0.0496 0.2064,0.0353 0.3907,0.1448 0.57119,0.24607 0.1632,0.11424 0.27066,0.28805 0.42068,0.41674 0.098,0.11331 0.18572,0.23609 0.28184,0.35101 0.0976,0.15034 0.0896,0.33686 0.10582,0.50782 0.0241,0.0698 0.13196,0.0532 0.1509,-0.0121 0.023,-0.0764 0.004,-0.1591 -0.003,-0.23704 -0.0133,-0.10197 -0.0336,-0.2043 -0.0882,-0.29295 -0.1121,-0.19594 -0.28126,-0.35037 -0.41714,-0.52916 -0.11037,-0.13496 -0.23753,-0.25908 -0.39187,-0.34249 -0.18273,-0.12824 -0.38892,-0.23669 -0.61459,-0.25737 -0.24174,-0.0389 -0.48232,-0.10422 -0.72928,-0.0932 z m 0.17019,1.97772 c 0.10667,0.004 0.19984,0.0753 0.26491,0.15427 0.0203,0.0406 0.0384,0.0932 0.0326,0.13555 -0.0386,0.0337 -0.0891,0.0513 -0.12477,0.0887 -0.1334,0.0844 -0.29938,0.074 -0.44763,0.11303 -0.0839,0.0147 -0.19406,0.0292 -0.25403,-0.0459 -0.0625,-0.10209 -0.0107,-0.22832 0.049,-0.31912 0.061,-0.0866 0.17096,-0.11331 0.27139,-0.11277 0.0694,-0.005 0.13919,-0.006 0.2085,-0.0139 z m -0.81303,0.0144 c 0.0703,0.01 0.14245,0.006 0.21331,0.004 -0.088,0.1165 -0.1363,0.27165 -0.10016,0.41627 -0.0624,-0.11504 -0.17817,-0.22102 -0.15748,-0.36374 -0.002,-0.0272 0.01,-0.0639 0.0443,-0.0562 z m -0.34689,0.0325 c -0.0294,0.0439 -0.0502,0.093 -0.0733,0.1406 -0.0244,-0.0591 -0.0682,-0.10971 -0.12184,-0.14393 0.0657,0.005 0.13251,0.0107 0.19791,-5.5e-4 z m 0.14301,0.11983 c 0.0506,0.13999 0.14493,0.25873 0.20155,0.39645 0.0433,0.0946 0.0763,0.19563 0.0822,0.30011 -0.0683,-0.0229 -0.0914,-0.0957 -0.11144,-0.15684 -0.0503,-0.10797 -0.0961,-0.2185 -0.1217,-0.33518 -0.0107,-0.0443 -0.0534,-0.0972 -0.10369,-0.0711 -0.0608,0.0305 -0.0423,0.10837 -0.0464,0.16317 -0.0107,0.16275 -0.064,0.32167 -0.1499,0.46015 0.0173,-0.13712 0.0155,-0.27999 0.0626,-0.41072 0.0498,-0.1225 0.12183,-0.23401 0.1857,-0.34937 z" />
    <path
       id="path10338"
       style="font-variant-ligatures:normal;font-variant-position:normal;font-variant-caps:normal;font-variant-numeric:normal;font-variant-alternates:normal;font-feature-settings:normal;text-indent:0;text-decoration-line:none;text-decoration-style:solid;text-decoration-color:#000000;text-transform:none;text-orientation:mixed;white-space:normal;shape-padding:0;display:inline;isolation:auto;mix-blend-mode:normal;stroke-width:0.0236985"
       d="m 106.24308,108.93092 c -0.0648,0.0165 -0.10518,0.12104 -0.0383,0.1597 0.069,0.0256 0.14667,0.0249 0.20856,0.0698 0.0458,0.0257 0.087,0.0589 0.12358,0.0965 -0.045,0.0277 -0.10145,0.0315 -0.14511,0.0609 -0.16734,0.0716 -0.35888,0.0582 -0.52887,0.12569 -0.10069,0.0204 -0.20448,0.0176 -0.30554,0.0368 -0.14965,0.0133 -0.30146,0.0107 -0.45041,-0.006 -0.0443,-0.014 -0.10336,-0.0444 -0.1401,10e-4 -0.039,0.0395 -0.0241,0.10144 0.0119,0.13771 0.0958,0.15662 0.13104,0.33982 0.21049,0.50439 0.0525,0.12251 0.10824,0.25254 0.0901,0.38898 0.004,0.0264 -0.005,0.0776 -0.042,0.0552 -0.11478,-0.0181 -0.21723,-0.0793 -0.29701,-0.16069 -0.0394,-0.0304 -0.0704,-0.0818 -0.12091,-0.0923 -0.0539,-0.004 -0.10809,0.0641 -0.0684,0.11064 0.0193,0.072 0.0192,0.14799 0.0202,0.22246 -0.0726,-0.0618 -0.16234,-0.10518 -0.21513,-0.1869 -0.057,-0.0662 -0.0964,-0.14687 -0.15286,-0.21238 -0.0474,-0.0319 -0.1229,0.004 -0.11743,0.0645 -0.0326,0.12664 -0.0716,0.25211 -0.1169,0.37475 -0.0616,-0.10102 -0.15184,-0.19848 -0.14368,-0.32554 -0.001,-0.0591 -0.0322,-0.14338 -0.1041,-0.13717 -0.0682,0.0159 -0.0778,0.1008 -0.0674,0.15855 0.002,0.12291 -0.0656,0.23049 -0.12944,0.33081 -0.0849,-0.0964 -0.1149,-0.22746 -0.11624,-0.35307 -0.006,-0.048 0.001,-0.104 -0.0255,-0.14584 -0.0566,-0.0592 -0.17395,0.005 -0.14825,0.0853 0.0177,0.0802 0.017,0.1634 0.0331,0.24345 0.0294,0.10464 0.0926,0.19757 0.16111,0.2805 0.0624,0.0602 0.1673,0.0485 0.22314,-0.0149 0.0507,-0.0491 0.0805,-0.11518 0.10464,-0.18047 0.0527,0.081 0.10048,0.17909 0.19301,0.21982 0.0778,0.0208 0.14955,-0.0447 0.16653,-0.11731 0.0299,-0.0754 0.0486,-0.15464 0.0689,-0.23305 0.0748,0.0646 0.11317,0.16564 0.20374,0.21494 0.0677,0.0449 0.13264,0.11119 0.21718,0.11851 0.0669,-9.5e-4 0.1077,-0.0684 0.10624,-0.12996 0.004,-0.0379 0.004,-0.0762 0.01,-0.11371 0.10464,0.0731 0.22699,0.11864 0.3501,0.14822 0.11277,0.004 0.19747,-0.11837 0.16982,-0.22436 -0.01,-0.11771 -0.017,-0.2377 -0.0614,-0.34823 -0.0205,-0.0853 -0.0672,-0.16088 -0.099,-0.24138 -0.0212,-0.0904 -0.0615,-0.17359 -0.10613,-0.25354 -0.005,-0.028 0.0421,-0.001 0.0567,-0.0133 0.0928,-0.0141 0.18606,-0.0188 0.2797,-0.0164 0.28564,-0.009 0.56191,-0.0866 0.83896,-0.14874 0.0899,-0.0284 0.19005,-0.0412 0.26743,-0.0981 0.0661,-0.0477 0.0966,-0.14596 0.0454,-0.21547 -0.0369,-0.0534 -0.10187,-0.0778 -0.13947,-0.13064 -0.0632,-0.0618 -0.15277,-0.0822 -0.235,-0.10581 -0.0149,-0.002 -0.03,-0.004 -0.045,-0.004 z" />
  </g>
</svg>
