%TF.GenerationSoftware,KiCad,Pcbnew,(7.0.0)*%
%TF.CreationDate,2023-03-21T20:59:30-07:00*%
%TF.ProjectId,Ladder LEDs v1,4c616464-6572-4204-9c45-44732076312e,rev?*%
%TF.SameCoordinates,Original*%
%TF.FileFunction,Copper,L2,Bot*%
%TF.FilePolarity,Positive*%
%FSLAX46Y46*%
G04 Gerber Fmt 4.6, Leading zero omitted, Abs format (unit mm)*
G04 Created by KiCad (PCBNEW (7.0.0)) date 2023-03-21 20:59:30*
%MOMM*%
%LPD*%
G01*
G04 APERTURE LIST*
G04 Aperture macros list*
%AMRoundRect*
0 Rectangle with rounded corners*
0 $1 Rounding radius*
0 $2 $3 $4 $5 $6 $7 $8 $9 X,Y pos of 4 corners*
0 Add a 4 corners polygon primitive as box body*
4,1,4,$2,$3,$4,$5,$6,$7,$8,$9,$2,$3,0*
0 Add four circle primitives for the rounded corners*
1,1,$1+$1,$2,$3*
1,1,$1+$1,$4,$5*
1,1,$1+$1,$6,$7*
1,1,$1+$1,$8,$9*
0 Add four rect primitives between the rounded corners*
20,1,$1+$1,$2,$3,$4,$5,0*
20,1,$1+$1,$4,$5,$6,$7,0*
20,1,$1+$1,$6,$7,$8,$9,0*
20,1,$1+$1,$8,$9,$2,$3,0*%
G04 Aperture macros list end*
%TA.AperFunction,ComponentPad*%
%ADD10C,2.500000*%
%TD*%
%TA.AperFunction,SMDPad,CuDef*%
%ADD11RoundRect,0.250000X0.233329X-0.533937X0.580980X0.044651X-0.233329X0.533937X-0.580980X-0.044651X0*%
%TD*%
%TA.AperFunction,SMDPad,CuDef*%
%ADD12RoundRect,0.078740X-0.887889X-0.059844X0.335437X-0.824263X0.887889X0.059844X-0.335437X0.824263X0*%
%TD*%
%TA.AperFunction,SMDPad,CuDef*%
%ADD13RoundRect,0.250000X-0.303544X-0.497386X0.369812X-0.450300X0.303544X0.497386X-0.369812X0.450300X0*%
%TD*%
%TA.AperFunction,SMDPad,CuDef*%
%ADD14RoundRect,0.078740X-0.570303X0.683142X-0.469678X-0.755864X0.570303X-0.683142X0.469678X0.755864X0*%
%TD*%
%TA.AperFunction,SMDPad,CuDef*%
%ADD15RoundRect,0.250000X-0.287863X0.506623X-0.573130X-0.105135X0.287863X-0.506623X0.573130X0.105135X0*%
%TD*%
%TA.AperFunction,SMDPad,CuDef*%
%ADD16RoundRect,0.078740X-0.075331X0.886709X-0.818283X-0.349772X0.075331X-0.886709X0.818283X0.349772X0*%
%TD*%
%TA.AperFunction,SMDPad,CuDef*%
%ADD17RoundRect,0.078740X0.075331X-0.886709X0.818283X0.349772X-0.075331X0.886709X-0.818283X-0.349772X0*%
%TD*%
%TA.AperFunction,SMDPad,CuDef*%
%ADD18RoundRect,0.078740X0.875407X0.159971X-0.426590X0.780992X-0.875407X-0.159971X0.426590X-0.780992X0*%
%TD*%
%TA.AperFunction,SMDPad,CuDef*%
%ADD19RoundRect,0.250000X0.223975X-0.537928X0.581671X0.034505X-0.223975X0.537928X-0.581671X-0.034505X0*%
%TD*%
%TA.AperFunction,SMDPad,CuDef*%
%ADD20RoundRect,0.250000X-0.533937X-0.233329X0.044651X-0.580980X0.533937X0.233329X-0.044651X0.580980X0*%
%TD*%
%TA.AperFunction,SMDPad,CuDef*%
%ADD21RoundRect,0.078740X-0.406000X-0.791891X0.879294X-0.137001X0.406000X0.791891X-0.879294X0.137001X0*%
%TD*%
%TA.AperFunction,SMDPad,CuDef*%
%ADD22RoundRect,0.250000X0.576450X-0.085069X0.270006X0.516360X-0.576450X0.085069X-0.270006X-0.516360X0*%
%TD*%
%TA.AperFunction,SMDPad,CuDef*%
%ADD23RoundRect,0.250000X-0.535281X-0.196150X0.058353X-0.567093X0.535281X0.196150X-0.058353X0.567093X0*%
%TD*%
%TA.AperFunction,ViaPad*%
%ADD24C,0.800000*%
%TD*%
%TA.AperFunction,Conductor*%
%ADD25C,0.500000*%
%TD*%
%TA.AperFunction,Conductor*%
%ADD26C,0.250000*%
%TD*%
G04 APERTURE END LIST*
D10*
%TO.P,J3,1,Pin_1*%
%TO.N,unconnected-(J3-Pin_1-Pad1)*%
X140983821Y-103772700D03*
%TO.P,J3,2,Pin_2*%
%TO.N,unconnected-(J3-Pin_2-Pad2)*%
X136109861Y-101447940D03*
%TO.P,J3,3,Pin_3*%
%TO.N,unconnected-(J3-Pin_3-Pad3)*%
X138788215Y-108375885D03*
%TO.P,J3,4,Pin_4*%
%TO.N,unconnected-(J3-Pin_4-Pad4)*%
X133914254Y-106051125D03*
%TD*%
D11*
%TO.P,C5,1*%
%TO.N,GND*%
X130550011Y-104850008D03*
%TO.P,C5,2*%
%TO.N,Net-(J1-5V)*%
X131618715Y-103071386D03*
%TD*%
D12*
%TO.P,U3,1,VDD*%
%TO.N,Net-(J1-5V)*%
X150579369Y-92006388D03*
%TO.P,U3,2,DOUT*%
%TO.N,Net-(U3-DOUT)*%
X152381094Y-89123024D03*
%TO.P,U3,3,VSS*%
%TO.N,GND*%
X156451725Y-91666636D03*
%TO.P,U3,4,DIN*%
%TO.N,Net-(U2-DOUT)*%
X154650000Y-94550000D03*
%TD*%
D13*
%TO.P,C2,1*%
%TO.N,GND*%
X154150003Y-99650003D03*
%TO.P,C2,2*%
%TO.N,Net-(J1-5V)*%
X156219949Y-99505259D03*
%TD*%
D14*
%TO.P,U2,1,VDD*%
%TO.N,Net-(J1-5V)*%
X158658283Y-99287172D03*
%TO.P,U2,2,DOUT*%
%TO.N,Net-(U2-DOUT)*%
X162050000Y-99050000D03*
%TO.P,U2,3,VSS*%
%TO.N,GND*%
X162384831Y-103838308D03*
%TO.P,U2,4,DIN*%
%TO.N,Net-(U1-DOUT)*%
X158993114Y-104075480D03*
%TD*%
D15*
%TO.P,C6,1*%
%TO.N,GND*%
X149088466Y-106059706D03*
%TO.P,C6,2*%
%TO.N,Net-(J1-5V)*%
X148211534Y-107940294D03*
%TD*%
D16*
%TO.P,U1,1,VDD*%
%TO.N,Net-(J1-5V)*%
X158228907Y-110217234D03*
%TO.P,U1,2,DOUT*%
%TO.N,Net-(U1-DOUT)*%
X161143276Y-111968363D03*
%TO.P,U1,3,VSS*%
%TO.N,GND*%
X158671093Y-116082766D03*
%TO.P,U1,4,DIN*%
%TO.N,Net-(U1-DIN)*%
X155756724Y-114331637D03*
%TD*%
D17*
%TO.P,U5,1,VDD*%
%TO.N,Net-(J1-5V)*%
X132771093Y-101132766D03*
%TO.P,U5,2,DOUT*%
%TO.N,Net-(U5-DOUT)*%
X129856724Y-99381637D03*
%TO.P,U5,3,VSS*%
%TO.N,GND*%
X132328907Y-95267234D03*
%TO.P,U5,4,DIN*%
%TO.N,Net-(U4-DOUT)*%
X135243276Y-97018363D03*
%TD*%
D18*
%TO.P,U6,1,VDD*%
%TO.N,Net-(J1-5V)*%
X147332410Y-109866454D03*
%TO.P,U6,2,DOUT*%
%TO.N,Net-(J2-DATA)*%
X145868672Y-112935244D03*
%TO.P,U6,3,VSS*%
%TO.N,GND*%
X141536262Y-110868790D03*
%TO.P,U6,4,DIN*%
%TO.N,Net-(U5-DOUT)*%
X143000000Y-107800000D03*
%TD*%
D19*
%TO.P,C3,1*%
%TO.N,GND*%
X148300411Y-95809699D03*
%TO.P,C3,2*%
%TO.N,Net-(J1-5V)*%
X149399993Y-94049999D03*
%TD*%
D20*
%TO.P,C1,1*%
%TO.N,GND*%
X154460689Y-108015648D03*
%TO.P,C1,2*%
%TO.N,Net-(J1-5V)*%
X156239311Y-109084352D03*
%TD*%
D21*
%TO.P,U4,1,VDD*%
%TO.N,Net-(J1-5V)*%
X139123168Y-93579154D03*
%TO.P,U4,2,DOUT*%
%TO.N,Net-(U4-DOUT)*%
X137579600Y-90549732D03*
%TO.P,U4,3,VSS*%
%TO.N,GND*%
X141856432Y-88370578D03*
%TO.P,U4,4,DIN*%
%TO.N,Net-(U3-DOUT)*%
X143400000Y-91400000D03*
%TD*%
D22*
%TO.P,C4,1*%
%TO.N,GND*%
X141200000Y-97449999D03*
%TO.P,C4,2*%
%TO.N,Net-(J1-5V)*%
X140257970Y-95601161D03*
%TD*%
D23*
%TO.P,R1,1*%
%TO.N,Net-(J1-DATA)*%
X151551952Y-111820081D03*
%TO.P,R1,2*%
%TO.N,Net-(U1-DIN)*%
X153248048Y-112879919D03*
%TD*%
D24*
%TO.N,GND*%
X146000000Y-92500000D03*
X152000000Y-104500000D03*
%TO.N,Net-(J1-5V)*%
X150200000Y-109400000D03*
X150600000Y-98000000D03*
X152800000Y-101100000D03*
X128200000Y-102200000D03*
X143200000Y-98000000D03*
X146800000Y-104100000D03*
%TO.N,Net-(J1-DATA)*%
X152450000Y-110300000D03*
%TO.N,Net-(J2-DATA)*%
X144400000Y-110300000D03*
%TD*%
D25*
%TO.N,Net-(J1-5V)*%
X150579369Y-92006388D02*
X149399993Y-94049999D01*
X152600000Y-108600000D02*
X150200000Y-109400000D01*
X156239311Y-109084352D02*
X154500000Y-109700000D01*
X156219949Y-99505259D02*
X155250000Y-100950000D01*
D26*
X152800000Y-101100000D02*
X152900000Y-101100000D01*
D25*
X149399993Y-94049999D02*
X150600000Y-98000000D01*
D26*
X146800000Y-104100000D02*
X146800000Y-104050000D01*
D25*
X148211534Y-107940294D02*
X146800000Y-106528760D01*
D26*
X156239311Y-109084352D02*
X158228907Y-110217234D01*
D25*
X142100000Y-96050000D02*
X143200000Y-98000000D01*
D26*
X158658283Y-99287172D02*
X156219949Y-99505259D01*
D25*
X139123168Y-93579154D02*
X140257970Y-95601161D01*
X131618715Y-103071386D02*
X129950000Y-103300000D01*
X154500000Y-109700000D02*
X152600000Y-108600000D01*
X132771093Y-101132766D02*
X131618715Y-103071386D01*
D26*
X147332410Y-109866454D02*
X148211534Y-107940294D01*
X150200000Y-109400000D02*
X150300000Y-109400000D01*
X128200000Y-102200000D02*
X128200000Y-102250000D01*
X143200000Y-98000000D02*
X143150000Y-98000000D01*
D25*
X146800000Y-106528760D02*
X146800000Y-104100000D01*
X155250000Y-100950000D02*
X152800000Y-101100000D01*
X140257970Y-95601161D02*
X142100000Y-96050000D01*
X129950000Y-103300000D02*
X128200000Y-102200000D01*
%TO.N,Net-(J1-DATA)*%
X152450000Y-110300000D02*
X151551952Y-111820081D01*
%TO.N,Net-(J2-DATA)*%
X145868672Y-112935244D02*
X144400000Y-110300000D01*
%TO.N,Net-(U1-DIN)*%
X153248048Y-112879919D02*
X155756724Y-114331637D01*
%TO.N,Net-(U1-DOUT)*%
X161143276Y-111968363D02*
X158993114Y-104075480D01*
%TO.N,Net-(U2-DOUT)*%
X162050000Y-99050000D02*
X154650000Y-94550000D01*
%TO.N,Net-(U3-DOUT)*%
X152381094Y-89123024D02*
X143400000Y-91400000D01*
%TO.N,Net-(U4-DOUT)*%
X137579600Y-90549732D02*
X135243276Y-97018363D01*
%TO.N,Net-(U5-DOUT)*%
X137000000Y-99300000D02*
X142000000Y-101700000D01*
X143400000Y-103800000D02*
X143000000Y-107800000D01*
X129856724Y-99381637D02*
X137000000Y-99300000D01*
X142000000Y-101700000D02*
X143400000Y-103800000D01*
%TD*%
%TA.AperFunction,Conductor*%
%TO.N,GND*%
G36*
X146655670Y-85592765D02*
G01*
X146660895Y-85592927D01*
X147414678Y-85632281D01*
X147419638Y-85632641D01*
X148136714Y-85699513D01*
X148141517Y-85700057D01*
X148820596Y-85790472D01*
X148825219Y-85791176D01*
X149465104Y-85901166D01*
X149469461Y-85901996D01*
X150068836Y-86027570D01*
X150072980Y-86028514D01*
X150550393Y-86145965D01*
X150630640Y-86165707D01*
X150634607Y-86166753D01*
X150735266Y-86195079D01*
X151149257Y-86311578D01*
X151152954Y-86312682D01*
X151622619Y-86460931D01*
X151627615Y-86462627D01*
X152431716Y-86755038D01*
X152437693Y-86757389D01*
X153048960Y-87016419D01*
X153053721Y-87018555D01*
X153464796Y-87213564D01*
X153464936Y-87213688D01*
X153464959Y-87213641D01*
X153465064Y-87213691D01*
X153465027Y-87213768D01*
X153465030Y-87213771D01*
X153465068Y-87213691D01*
X155206695Y-88012732D01*
X155244992Y-88030302D01*
X155250405Y-88032947D01*
X155988555Y-88416097D01*
X155991666Y-88417769D01*
X156422012Y-88657232D01*
X156684202Y-88803126D01*
X156687860Y-88805244D01*
X156898022Y-88931755D01*
X157303570Y-89175883D01*
X157336564Y-89195744D01*
X157340675Y-89198329D01*
X157406251Y-89241392D01*
X157948817Y-89597680D01*
X157953307Y-89600772D01*
X158524193Y-90012701D01*
X158528935Y-90016299D01*
X159037254Y-90421729D01*
X159065862Y-90444546D01*
X159070739Y-90448647D01*
X159577019Y-90896969D01*
X159581842Y-90901476D01*
X160060865Y-91373750D01*
X160065494Y-91378568D01*
X160385141Y-91729820D01*
X160520495Y-91878558D01*
X160524814Y-91883565D01*
X160949190Y-92403028D01*
X160959187Y-92415264D01*
X160963065Y-92420267D01*
X161303174Y-92882972D01*
X161380028Y-92987528D01*
X161383417Y-92992378D01*
X161656404Y-93403588D01*
X161786189Y-93599088D01*
X161789084Y-93603663D01*
X162180817Y-94253641D01*
X162183234Y-94257835D01*
X162567080Y-94954896D01*
X162569064Y-94958649D01*
X162948204Y-95706669D01*
X162949808Y-95709953D01*
X163326743Y-96511368D01*
X163329071Y-96516631D01*
X163676523Y-97354210D01*
X163679343Y-97361679D01*
X163961610Y-98188912D01*
X163963811Y-98196059D01*
X164157272Y-98899147D01*
X164187251Y-99008096D01*
X164188909Y-99014861D01*
X164205623Y-99092404D01*
X164359331Y-99805504D01*
X164360529Y-99811864D01*
X164451813Y-100377148D01*
X164482655Y-100568146D01*
X164483746Y-100574899D01*
X164484558Y-100580838D01*
X164566394Y-101310033D01*
X164566889Y-101315552D01*
X164613181Y-102004728D01*
X164613419Y-102009841D01*
X164630001Y-102652713D01*
X164630033Y-102657438D01*
X164622756Y-103247809D01*
X164622625Y-103252172D01*
X164597385Y-103782877D01*
X164596979Y-103788608D01*
X164515802Y-104650913D01*
X164514759Y-104659077D01*
X164393419Y-105409792D01*
X164393310Y-105410454D01*
X164017676Y-107657161D01*
X164014941Y-107656703D01*
X164014941Y-107656738D01*
X164017674Y-107657165D01*
X164017674Y-107657166D01*
X163653659Y-109981740D01*
X163653658Y-109981743D01*
X163653642Y-109981846D01*
X163653628Y-109981934D01*
X163653629Y-109981934D01*
X163653627Y-109981945D01*
X163458438Y-111302856D01*
X163458412Y-111303035D01*
X163458402Y-111303102D01*
X163458384Y-111303228D01*
X163458383Y-111303227D01*
X163458383Y-111303229D01*
X163458384Y-111303230D01*
X163266247Y-112675270D01*
X163265836Y-112677981D01*
X163158017Y-113340835D01*
X163156665Y-113347862D01*
X163020569Y-113959455D01*
X163018596Y-113967150D01*
X162854366Y-114531808D01*
X162851639Y-114540088D01*
X162659249Y-115061695D01*
X162656635Y-115068209D01*
X162550832Y-115311662D01*
X162548802Y-115316091D01*
X162435736Y-115550600D01*
X162433472Y-115555065D01*
X162313624Y-115779954D01*
X162311124Y-115784420D01*
X162184576Y-115999952D01*
X162181849Y-116004380D01*
X162048563Y-116211025D01*
X162045623Y-116215379D01*
X161906429Y-116412336D01*
X161901672Y-116418631D01*
X161600882Y-116791452D01*
X161594013Y-116799271D01*
X161267357Y-117141015D01*
X161260147Y-117147972D01*
X160906822Y-117462362D01*
X160899569Y-117468339D01*
X160519525Y-117758051D01*
X160512507Y-117763025D01*
X160164164Y-117992186D01*
X160105802Y-118030580D01*
X160099229Y-118034616D01*
X159665936Y-118282510D01*
X159659972Y-118285710D01*
X159200239Y-118516398D01*
X159194976Y-118518886D01*
X158708993Y-118734819D01*
X158704469Y-118736722D01*
X158193030Y-118940132D01*
X158188357Y-118941883D01*
X157930060Y-119032757D01*
X157924697Y-119034508D01*
X157668994Y-119111592D01*
X157663664Y-119113070D01*
X157410549Y-119177212D01*
X157405283Y-119178425D01*
X157156354Y-119230079D01*
X157148687Y-119231420D01*
X156657390Y-119301566D01*
X156647568Y-119302571D01*
X156174029Y-119332053D01*
X156164858Y-119332284D01*
X155710810Y-119326915D01*
X155702359Y-119326527D01*
X155270982Y-119291917D01*
X155263278Y-119291056D01*
X154857755Y-119232837D01*
X154850779Y-119231631D01*
X154476122Y-119155806D01*
X154474370Y-119155451D01*
X154468088Y-119154009D01*
X154124045Y-119065539D01*
X154118400Y-119063944D01*
X154023446Y-119034675D01*
X153811080Y-118969214D01*
X153803912Y-118966762D01*
X153306464Y-118779456D01*
X153296784Y-118775334D01*
X152865873Y-118569790D01*
X152867047Y-118567328D01*
X152867043Y-118567326D01*
X152865872Y-118569789D01*
X148891839Y-116678339D01*
X157331774Y-116678339D01*
X157333040Y-116692121D01*
X157339287Y-116707977D01*
X157347098Y-116722068D01*
X157428071Y-116831498D01*
X157439269Y-116843094D01*
X157519040Y-116906547D01*
X157525701Y-116911168D01*
X158477388Y-117483000D01*
X158484588Y-117486708D01*
X158578070Y-117527354D01*
X158593563Y-117531797D01*
X158728198Y-117551918D01*
X158744308Y-117552200D01*
X158761239Y-117550270D01*
X158774003Y-117544917D01*
X158774546Y-117531090D01*
X158492948Y-116401660D01*
X158486485Y-116390000D01*
X158473159Y-116389768D01*
X157343729Y-116671367D01*
X157331774Y-116678339D01*
X148891839Y-116678339D01*
X148056375Y-116280698D01*
X158978095Y-116280698D01*
X159225976Y-117274898D01*
X159230388Y-117283373D01*
X159237085Y-117276558D01*
X159990866Y-116022056D01*
X159993739Y-116012944D01*
X159984186Y-116013027D01*
X158989987Y-116260909D01*
X158978327Y-116267372D01*
X158978095Y-116280698D01*
X148056375Y-116280698D01*
X147787205Y-116152586D01*
X157348445Y-116152586D01*
X157357998Y-116152503D01*
X158352197Y-115904621D01*
X158363857Y-115898158D01*
X158364089Y-115884832D01*
X158116208Y-114890632D01*
X158111796Y-114882157D01*
X158105099Y-114888972D01*
X157351318Y-116143474D01*
X157348445Y-116152586D01*
X147787205Y-116152586D01*
X138097156Y-111540585D01*
X140394788Y-111540585D01*
X140402213Y-111546598D01*
X141723185Y-112176668D01*
X141732529Y-112178655D01*
X141731531Y-112169152D01*
X141389501Y-111203288D01*
X141381953Y-111192305D01*
X141368665Y-111193351D01*
X140402801Y-111535380D01*
X140394788Y-111540585D01*
X138097156Y-111540585D01*
X137100955Y-111066441D01*
X140079346Y-111066441D01*
X140080611Y-111082514D01*
X140084153Y-111099175D01*
X140090704Y-111111368D01*
X140104521Y-111110583D01*
X140351573Y-111023097D01*
X141859777Y-111023097D01*
X141860823Y-111036385D01*
X142249376Y-112133628D01*
X142257461Y-112144859D01*
X142271057Y-112142278D01*
X142286241Y-112134541D01*
X142299523Y-112125412D01*
X142400686Y-112034326D01*
X142411156Y-112022068D01*
X142466670Y-111936583D01*
X142470631Y-111929510D01*
X142948616Y-110927392D01*
X142951615Y-110919876D01*
X142983115Y-110822928D01*
X142986053Y-110807076D01*
X142993177Y-110671137D01*
X142991912Y-110655067D01*
X142988370Y-110638402D01*
X142981818Y-110626210D01*
X142968001Y-110626995D01*
X141870760Y-111015549D01*
X141859777Y-111023097D01*
X140351573Y-111023097D01*
X141201762Y-110722029D01*
X141212745Y-110714481D01*
X141211699Y-110701193D01*
X140823146Y-109603951D01*
X140815062Y-109592721D01*
X140801462Y-109595303D01*
X140786282Y-109603038D01*
X140773001Y-109612165D01*
X140671837Y-109703253D01*
X140661367Y-109715511D01*
X140605853Y-109800996D01*
X140601892Y-109808069D01*
X140123907Y-110810187D01*
X140120908Y-110817703D01*
X140089408Y-110914651D01*
X140086470Y-110930503D01*
X140079346Y-111066441D01*
X137100955Y-111066441D01*
X131447959Y-108375885D01*
X137032807Y-108375885D01*
X137033154Y-108380516D01*
X137051075Y-108619669D01*
X137052413Y-108637515D01*
X137053443Y-108642028D01*
X137053444Y-108642034D01*
X137109762Y-108888776D01*
X137110795Y-108893301D01*
X137112490Y-108897619D01*
X137112491Y-108897623D01*
X137204949Y-109133203D01*
X137204952Y-109133209D01*
X137206647Y-109137528D01*
X137208965Y-109141543D01*
X137208968Y-109141549D01*
X137253225Y-109218204D01*
X137337829Y-109364742D01*
X137501410Y-109569866D01*
X137693736Y-109748318D01*
X137910511Y-109896113D01*
X138146892Y-110009948D01*
X138151320Y-110011313D01*
X138151323Y-110011315D01*
X138254752Y-110043218D01*
X138397600Y-110087281D01*
X138657033Y-110126385D01*
X138914762Y-110126385D01*
X138919397Y-110126385D01*
X139178830Y-110087281D01*
X139429538Y-110009948D01*
X139665919Y-109896113D01*
X139882694Y-109748318D01*
X140075020Y-109569866D01*
X140083747Y-109558923D01*
X141339993Y-109558923D01*
X141340991Y-109568426D01*
X141683021Y-110534290D01*
X141690569Y-110545273D01*
X141703857Y-110544227D01*
X142393536Y-110300000D01*
X143494540Y-110300000D01*
X143495219Y-110306460D01*
X143513646Y-110481795D01*
X143513647Y-110481803D01*
X143514326Y-110488256D01*
X143516331Y-110494428D01*
X143516333Y-110494435D01*
X143570813Y-110662105D01*
X143572821Y-110668284D01*
X143576068Y-110673908D01*
X143576069Y-110673910D01*
X143662104Y-110822928D01*
X143667467Y-110832216D01*
X143671811Y-110837041D01*
X143671813Y-110837043D01*
X143788216Y-110966321D01*
X143794129Y-110972888D01*
X143947270Y-111084151D01*
X143953208Y-111086794D01*
X143958834Y-111090043D01*
X143958384Y-111090821D01*
X143983401Y-111107203D01*
X144008045Y-111138354D01*
X144664878Y-112316910D01*
X144680502Y-112373347D01*
X144668485Y-112430659D01*
X144455853Y-112876452D01*
X144455849Y-112876461D01*
X144454108Y-112880112D01*
X144452855Y-112883966D01*
X144452855Y-112883968D01*
X144421321Y-112981015D01*
X144421319Y-112981022D01*
X144418810Y-112988746D01*
X144418384Y-112996859D01*
X144418384Y-112996864D01*
X144411253Y-113132934D01*
X144411253Y-113132938D01*
X144410828Y-113141054D01*
X144412517Y-113149002D01*
X144412518Y-113149008D01*
X144438019Y-113268977D01*
X144442538Y-113290238D01*
X144446224Y-113297474D01*
X144446226Y-113297477D01*
X144482688Y-113369037D01*
X144511779Y-113426131D01*
X144613833Y-113539474D01*
X144709630Y-113601685D01*
X146080159Y-114255393D01*
X146188793Y-114290691D01*
X146341101Y-114298673D01*
X146490285Y-114266963D01*
X146626179Y-114197722D01*
X146739521Y-114095669D01*
X146801732Y-113999871D01*
X147283236Y-112990376D01*
X147318534Y-112881742D01*
X147326516Y-112729434D01*
X147294806Y-112580250D01*
X147225565Y-112444357D01*
X147123511Y-112331014D01*
X147062859Y-112291626D01*
X147031122Y-112271016D01*
X147031120Y-112271014D01*
X147027714Y-112268803D01*
X146793517Y-112157097D01*
X146149065Y-111849709D01*
X146117589Y-111828204D01*
X146094134Y-111798154D01*
X145985204Y-111602701D01*
X145317226Y-110404145D01*
X145304059Y-110368642D01*
X145302221Y-110330817D01*
X145304781Y-110306466D01*
X145304781Y-110306460D01*
X145305460Y-110300000D01*
X145293284Y-110184151D01*
X145286353Y-110118204D01*
X145286352Y-110118203D01*
X145285674Y-110111744D01*
X145272846Y-110072264D01*
X145874566Y-110072264D01*
X145876255Y-110080212D01*
X145876256Y-110080218D01*
X145892226Y-110155350D01*
X145906276Y-110221448D01*
X145909962Y-110228684D01*
X145909964Y-110228687D01*
X145970313Y-110347127D01*
X145975517Y-110357341D01*
X146077571Y-110470684D01*
X146173368Y-110532895D01*
X147543897Y-111186603D01*
X147652531Y-111221901D01*
X147804839Y-111229883D01*
X147954023Y-111198173D01*
X148089917Y-111128932D01*
X148203259Y-111026879D01*
X148265470Y-110931081D01*
X148746974Y-109921586D01*
X148782272Y-109812952D01*
X148790254Y-109660644D01*
X148758544Y-109511460D01*
X148701752Y-109400000D01*
X149294540Y-109400000D01*
X149295219Y-109406460D01*
X149313646Y-109581795D01*
X149313647Y-109581803D01*
X149314326Y-109588256D01*
X149316331Y-109594428D01*
X149316333Y-109594435D01*
X149367181Y-109750927D01*
X149372821Y-109768284D01*
X149376068Y-109773908D01*
X149376069Y-109773910D01*
X149463929Y-109926089D01*
X149467467Y-109932216D01*
X149471811Y-109937041D01*
X149471813Y-109937043D01*
X149577990Y-110054964D01*
X149594129Y-110072888D01*
X149747270Y-110184151D01*
X149920197Y-110261144D01*
X150105354Y-110300500D01*
X150288143Y-110300500D01*
X150294646Y-110300500D01*
X150479803Y-110261144D01*
X150652730Y-110184151D01*
X150805871Y-110072888D01*
X150891721Y-109977540D01*
X150944655Y-109942877D01*
X151469109Y-109768059D01*
X151525685Y-109762919D01*
X151578619Y-109783551D01*
X151616795Y-109825625D01*
X151632201Y-109880309D01*
X151622460Y-109931598D01*
X151622821Y-109931716D01*
X151621899Y-109934551D01*
X151621897Y-109934557D01*
X151620815Y-109937886D01*
X151620815Y-109937889D01*
X151566333Y-110105564D01*
X151566331Y-110105573D01*
X151564326Y-110111744D01*
X151563648Y-110118194D01*
X151563646Y-110118204D01*
X151556438Y-110186794D01*
X151544540Y-110300000D01*
X151545219Y-110306460D01*
X151545219Y-110306466D01*
X151545357Y-110307779D01*
X151545219Y-110310291D01*
X151545219Y-110312960D01*
X151545072Y-110312960D01*
X151543195Y-110347127D01*
X151528796Y-110383808D01*
X151522675Y-110394170D01*
X151493373Y-110443767D01*
X151453942Y-110484822D01*
X151409906Y-110500517D01*
X151410246Y-110501989D01*
X151246334Y-110539830D01*
X151246325Y-110539833D01*
X151239300Y-110541455D01*
X151232835Y-110544654D01*
X151232829Y-110544657D01*
X151088536Y-110616077D01*
X151088529Y-110616081D01*
X151082065Y-110619281D01*
X151076515Y-110623882D01*
X151076506Y-110623889D01*
X150952225Y-110726947D01*
X150952220Y-110726951D01*
X150947014Y-110731269D01*
X150942866Y-110736609D01*
X150942863Y-110736613D01*
X150885571Y-110810384D01*
X150885562Y-110810396D01*
X150883639Y-110812873D01*
X150881977Y-110815531D01*
X150881967Y-110815547D01*
X150355385Y-111658258D01*
X150353712Y-111660936D01*
X150352325Y-111663757D01*
X150352317Y-111663773D01*
X150311134Y-111747589D01*
X150311131Y-111747596D01*
X150308147Y-111753670D01*
X150306547Y-111760247D01*
X150306546Y-111760252D01*
X150268402Y-111917123D01*
X150266695Y-111924145D01*
X150266652Y-111931362D01*
X150266652Y-111931370D01*
X150266053Y-112034326D01*
X150265673Y-112099584D01*
X150267295Y-112106611D01*
X150267296Y-112106617D01*
X150303514Y-112263494D01*
X150303516Y-112263500D01*
X150305139Y-112270529D01*
X150308338Y-112276993D01*
X150308341Y-112277000D01*
X150379761Y-112421293D01*
X150379763Y-112421296D01*
X150382965Y-112427765D01*
X150387569Y-112433318D01*
X150387573Y-112433323D01*
X150415530Y-112467037D01*
X150494953Y-112562816D01*
X150576557Y-112626190D01*
X151255010Y-113050134D01*
X151347745Y-113095699D01*
X151518220Y-113137151D01*
X151693658Y-113138173D01*
X151822722Y-113108376D01*
X151886870Y-113110616D01*
X151941304Y-113144630D01*
X151971438Y-113201304D01*
X151999610Y-113323332D01*
X151999612Y-113323338D01*
X152001235Y-113330367D01*
X152004434Y-113336831D01*
X152004437Y-113336838D01*
X152075857Y-113481131D01*
X152075859Y-113481134D01*
X152079061Y-113487603D01*
X152083665Y-113493156D01*
X152083669Y-113493161D01*
X152186726Y-113617441D01*
X152191049Y-113622654D01*
X152272653Y-113686028D01*
X152951106Y-114109972D01*
X153043841Y-114155537D01*
X153214316Y-114196989D01*
X153389754Y-114198011D01*
X153560700Y-114158545D01*
X153715908Y-114081722D01*
X153774939Y-114068920D01*
X153833017Y-114085529D01*
X154033267Y-114201410D01*
X154323563Y-114369398D01*
X154363489Y-114406258D01*
X154383820Y-114456649D01*
X154380654Y-114510896D01*
X154380071Y-114512926D01*
X154376835Y-114520371D01*
X154375634Y-114528402D01*
X154375634Y-114528405D01*
X154359229Y-114638177D01*
X154354292Y-114671212D01*
X154355211Y-114679279D01*
X154355211Y-114679286D01*
X154370636Y-114814674D01*
X154371556Y-114822749D01*
X154427455Y-114964653D01*
X154432286Y-114971182D01*
X154432288Y-114971185D01*
X154513342Y-115080724D01*
X154518175Y-115087255D01*
X154607568Y-115158361D01*
X155566266Y-115734405D01*
X155569994Y-115736026D01*
X155569998Y-115736028D01*
X155604756Y-115751141D01*
X155671017Y-115779952D01*
X155821858Y-115802495D01*
X155973395Y-115785230D01*
X156115299Y-115729332D01*
X156237901Y-115638612D01*
X156309007Y-115549218D01*
X156858661Y-114634440D01*
X158567638Y-114634440D01*
X158849236Y-115763870D01*
X158855699Y-115775530D01*
X158869025Y-115775762D01*
X159998455Y-115494163D01*
X160010410Y-115487191D01*
X160009143Y-115473407D01*
X160002901Y-115457560D01*
X159995085Y-115443459D01*
X159914114Y-115334033D01*
X159902916Y-115322437D01*
X159823145Y-115258984D01*
X159816484Y-115254363D01*
X158864797Y-114682531D01*
X158857597Y-114678823D01*
X158764115Y-114638177D01*
X158748622Y-114633734D01*
X158613986Y-114613613D01*
X158597876Y-114613331D01*
X158580945Y-114615260D01*
X158568181Y-114620613D01*
X158567638Y-114634440D01*
X156858661Y-114634440D01*
X157091066Y-114247654D01*
X157136613Y-114142903D01*
X157159156Y-113992062D01*
X157141892Y-113840525D01*
X157085993Y-113698621D01*
X157025923Y-113617441D01*
X157000105Y-113582549D01*
X157000104Y-113582548D01*
X156995273Y-113576019D01*
X156946544Y-113537258D01*
X156909047Y-113507432D01*
X156909045Y-113507431D01*
X156905880Y-113504913D01*
X156902413Y-113502830D01*
X156902409Y-113502827D01*
X155950666Y-112930962D01*
X155950661Y-112930959D01*
X155947182Y-112928869D01*
X155943459Y-112927250D01*
X155943449Y-112927245D01*
X155849885Y-112886563D01*
X155849884Y-112886562D01*
X155842431Y-112883322D01*
X155834398Y-112882121D01*
X155834393Y-112882120D01*
X155699627Y-112861980D01*
X155699626Y-112861979D01*
X155691590Y-112860779D01*
X155683522Y-112861698D01*
X155683516Y-112861698D01*
X155548126Y-112877124D01*
X155548124Y-112877124D01*
X155540053Y-112878044D01*
X155532499Y-112881019D01*
X155532493Y-112881021D01*
X155415150Y-112927245D01*
X155398149Y-112933942D01*
X155391623Y-112938770D01*
X155391619Y-112938773D01*
X155282078Y-113019828D01*
X155282072Y-113019833D01*
X155275547Y-113024662D01*
X155270488Y-113031021D01*
X155270489Y-113031021D01*
X155254196Y-113051504D01*
X155208208Y-113087313D01*
X155150941Y-113098155D01*
X155095046Y-113081636D01*
X154595726Y-112792690D01*
X154550235Y-112746998D01*
X154533835Y-112684644D01*
X154534327Y-112600416D01*
X154494861Y-112429471D01*
X154490813Y-112421293D01*
X154420238Y-112278706D01*
X154420237Y-112278705D01*
X154417035Y-112272235D01*
X154412428Y-112266679D01*
X154412426Y-112266676D01*
X154309369Y-112142396D01*
X154309368Y-112142395D01*
X154305047Y-112137184D01*
X154256631Y-112099584D01*
X154225944Y-112075752D01*
X154225940Y-112075749D01*
X154223443Y-112073810D01*
X153544990Y-111649866D01*
X153452255Y-111604301D01*
X153445684Y-111602703D01*
X153445678Y-111602701D01*
X153288801Y-111564556D01*
X153288799Y-111564555D01*
X153281780Y-111562849D01*
X153274561Y-111562806D01*
X153274554Y-111562806D01*
X153113559Y-111561869D01*
X153106342Y-111561827D01*
X153099310Y-111563450D01*
X153099305Y-111563451D01*
X152977276Y-111591623D01*
X152913128Y-111589383D01*
X152858695Y-111555368D01*
X152828561Y-111498695D01*
X152825474Y-111485325D01*
X152798765Y-111369633D01*
X152778881Y-111329461D01*
X152766098Y-111269869D01*
X152783252Y-111211384D01*
X152822461Y-111145016D01*
X152846714Y-111115524D01*
X152878784Y-111094811D01*
X152902730Y-111084151D01*
X153055871Y-110972888D01*
X153182533Y-110832216D01*
X153277179Y-110668284D01*
X153335674Y-110488256D01*
X153355460Y-110300000D01*
X153336682Y-110121339D01*
X153348098Y-110054964D01*
X153392530Y-110004346D01*
X153456868Y-109984421D01*
X153522131Y-110001068D01*
X154099049Y-110335073D01*
X154105976Y-110339394D01*
X154154909Y-110372203D01*
X154161673Y-110374732D01*
X154161677Y-110374735D01*
X154188077Y-110384609D01*
X154213639Y-110394170D01*
X154216380Y-110395195D01*
X154222184Y-110397534D01*
X154282423Y-110423605D01*
X154290125Y-110424972D01*
X154311896Y-110430923D01*
X154319232Y-110433667D01*
X154326402Y-110434569D01*
X154326404Y-110434570D01*
X154346219Y-110437064D01*
X154384353Y-110441864D01*
X154390503Y-110442796D01*
X154455163Y-110454278D01*
X154462974Y-110453832D01*
X154485539Y-110454601D01*
X154493301Y-110455579D01*
X154558544Y-110448538D01*
X154564779Y-110448024D01*
X154630319Y-110444286D01*
X154637808Y-110442053D01*
X154659955Y-110437596D01*
X154667729Y-110436758D01*
X154729618Y-110414850D01*
X154735539Y-110412922D01*
X154798452Y-110394170D01*
X154805233Y-110390265D01*
X154825728Y-110380831D01*
X155520633Y-110134862D01*
X155574437Y-110128381D01*
X155625868Y-110145466D01*
X155694649Y-110186794D01*
X155937592Y-110332769D01*
X155937596Y-110332771D01*
X155940292Y-110334391D01*
X156033807Y-110378331D01*
X156204979Y-110416801D01*
X156380409Y-110414761D01*
X156550640Y-110372318D01*
X156664032Y-110313707D01*
X156729884Y-110300184D01*
X156793119Y-110323017D01*
X156835143Y-110375494D01*
X156843604Y-110442191D01*
X156828355Y-110544227D01*
X156826475Y-110556809D01*
X156827394Y-110564876D01*
X156827394Y-110564883D01*
X156837669Y-110655067D01*
X156843739Y-110708346D01*
X156899638Y-110850250D01*
X156904469Y-110856779D01*
X156904471Y-110856782D01*
X156959449Y-110931081D01*
X156990358Y-110972852D01*
X157079751Y-111043958D01*
X157083220Y-111046042D01*
X157083221Y-111046043D01*
X157176768Y-111102252D01*
X158038449Y-111620002D01*
X158042177Y-111621623D01*
X158042181Y-111621625D01*
X158058655Y-111628788D01*
X158143200Y-111665549D01*
X158294041Y-111688092D01*
X158445578Y-111670827D01*
X158587482Y-111614929D01*
X158710084Y-111524209D01*
X158781190Y-111434815D01*
X159563249Y-110133251D01*
X159608435Y-110029328D01*
X159645385Y-109981394D01*
X159700626Y-109956658D01*
X159760995Y-109961018D01*
X159812109Y-109993434D01*
X159841789Y-110046184D01*
X160193655Y-111337824D01*
X160196844Y-111387418D01*
X160180304Y-111434281D01*
X159811027Y-112048861D01*
X159811021Y-112048872D01*
X159808934Y-112052346D01*
X159807318Y-112056062D01*
X159807310Y-112056078D01*
X159766628Y-112149642D01*
X159766626Y-112149645D01*
X159763387Y-112157097D01*
X159762186Y-112165127D01*
X159762185Y-112165134D01*
X159742045Y-112299900D01*
X159740844Y-112307938D01*
X159741763Y-112316005D01*
X159741763Y-112316012D01*
X159755491Y-112436505D01*
X159758108Y-112459475D01*
X159814007Y-112601379D01*
X159818838Y-112607908D01*
X159818840Y-112607911D01*
X159870689Y-112677981D01*
X159904727Y-112723981D01*
X159994120Y-112795087D01*
X160952818Y-113371131D01*
X160956546Y-113372752D01*
X160956550Y-113372754D01*
X160991308Y-113387867D01*
X161057569Y-113416678D01*
X161208410Y-113439221D01*
X161359947Y-113421956D01*
X161501851Y-113366058D01*
X161624453Y-113275338D01*
X161695559Y-113185944D01*
X162477618Y-111884380D01*
X162523165Y-111779629D01*
X162545708Y-111628788D01*
X162528444Y-111477251D01*
X162472545Y-111335347D01*
X162381825Y-111212745D01*
X162333096Y-111173984D01*
X162295599Y-111144158D01*
X162295597Y-111144157D01*
X162292432Y-111141639D01*
X162288965Y-111139556D01*
X162288961Y-111139553D01*
X161794889Y-110842685D01*
X161621843Y-110738708D01*
X161586834Y-110707251D01*
X161566070Y-110665014D01*
X160059583Y-105134957D01*
X160057418Y-105094374D01*
X161629333Y-105094374D01*
X161638276Y-105104938D01*
X161652484Y-105114342D01*
X161666966Y-105121406D01*
X161796063Y-105164602D01*
X161811885Y-105167678D01*
X161913631Y-105173901D01*
X161921733Y-105173865D01*
X163029294Y-105096417D01*
X163037323Y-105095324D01*
X163137215Y-105075001D01*
X163152453Y-105069754D01*
X163274277Y-105009015D01*
X163287642Y-105000000D01*
X163300402Y-104988710D01*
X163307786Y-104977007D01*
X163300298Y-104965365D01*
X162421812Y-104201709D01*
X162409834Y-104195867D01*
X162398781Y-104203322D01*
X161635128Y-105081805D01*
X161629333Y-105094374D01*
X160057418Y-105094374D01*
X160056795Y-105082688D01*
X160075822Y-105033927D01*
X160088526Y-105014735D01*
X160136921Y-104870100D01*
X160143894Y-104756088D01*
X160037972Y-103241338D01*
X160026521Y-103185053D01*
X161236464Y-103185053D01*
X161338555Y-104645028D01*
X161341428Y-104654140D01*
X161349208Y-104648590D01*
X162021428Y-103875289D01*
X162027270Y-103863311D01*
X162019815Y-103852258D01*
X161975002Y-103813303D01*
X162742390Y-103813303D01*
X162749845Y-103824356D01*
X163523144Y-104496574D01*
X163531618Y-104500986D01*
X163533196Y-104491561D01*
X163431105Y-103031586D01*
X163428232Y-103022474D01*
X163420452Y-103028024D01*
X162748232Y-103801325D01*
X162742390Y-103813303D01*
X161975002Y-103813303D01*
X161246516Y-103180040D01*
X161238042Y-103175628D01*
X161236464Y-103185053D01*
X160026521Y-103185053D01*
X160015200Y-103129406D01*
X159947147Y-102992914D01*
X159846087Y-102878685D01*
X159830030Y-102868057D01*
X159725685Y-102798993D01*
X159725681Y-102798991D01*
X159718905Y-102794506D01*
X159711196Y-102791926D01*
X159711193Y-102791925D01*
X159581981Y-102748691D01*
X159581980Y-102748690D01*
X159574270Y-102746111D01*
X159566160Y-102745615D01*
X159566155Y-102745614D01*
X159464308Y-102739385D01*
X159464296Y-102739385D01*
X159460257Y-102739138D01*
X159456210Y-102739420D01*
X159456206Y-102739421D01*
X158348585Y-102816873D01*
X158348574Y-102816874D01*
X158344534Y-102817157D01*
X158340561Y-102817965D01*
X158340556Y-102817966D01*
X158240562Y-102838310D01*
X158240558Y-102838311D01*
X158232602Y-102839930D01*
X158225338Y-102843551D01*
X158225331Y-102843554D01*
X158103382Y-102904356D01*
X158103377Y-102904359D01*
X158096109Y-102907983D01*
X158090028Y-102913362D01*
X158090022Y-102913367D01*
X157987965Y-103003659D01*
X157987959Y-103003664D01*
X157981881Y-103009043D01*
X157977399Y-103015814D01*
X157977396Y-103015818D01*
X157902189Y-103129444D01*
X157902185Y-103129450D01*
X157897702Y-103136225D01*
X157895123Y-103143930D01*
X157895121Y-103143936D01*
X157856351Y-103259808D01*
X157849307Y-103280860D01*
X157848811Y-103288968D01*
X157848810Y-103288974D01*
X157842581Y-103390820D01*
X157842581Y-103390832D01*
X157842334Y-103394872D01*
X157842616Y-103398918D01*
X157842617Y-103398922D01*
X157947972Y-104905568D01*
X157947973Y-104905575D01*
X157948256Y-104909622D01*
X157949066Y-104913603D01*
X157960675Y-104970668D01*
X157971028Y-105021554D01*
X157974654Y-105028827D01*
X157974655Y-105028829D01*
X157992003Y-105063623D01*
X158039081Y-105158046D01*
X158044465Y-105164131D01*
X158044466Y-105164133D01*
X158053076Y-105173865D01*
X158140141Y-105272275D01*
X158267323Y-105356454D01*
X158411958Y-105404849D01*
X158491501Y-105409713D01*
X158540713Y-105423247D01*
X158580306Y-105455459D01*
X158603570Y-105500890D01*
X159642508Y-109314655D01*
X159643437Y-109376213D01*
X159614645Y-109430631D01*
X159563230Y-109464494D01*
X159501865Y-109469455D01*
X159445677Y-109444291D01*
X159381238Y-109393035D01*
X159381233Y-109393031D01*
X159378063Y-109390510D01*
X159374596Y-109388427D01*
X159374592Y-109388424D01*
X158422849Y-108816559D01*
X158422844Y-108816556D01*
X158419365Y-108814466D01*
X158415642Y-108812847D01*
X158415632Y-108812842D01*
X158322068Y-108772160D01*
X158322067Y-108772159D01*
X158314614Y-108768919D01*
X158306581Y-108767718D01*
X158306576Y-108767717D01*
X158171810Y-108747577D01*
X158171809Y-108747576D01*
X158163773Y-108746376D01*
X158155705Y-108747295D01*
X158155699Y-108747295D01*
X158020309Y-108762721D01*
X158020307Y-108762721D01*
X158012236Y-108763641D01*
X158004682Y-108766616D01*
X158004676Y-108766618D01*
X157889148Y-108812127D01*
X157870332Y-108819539D01*
X157863806Y-108824367D01*
X157863802Y-108824370D01*
X157754261Y-108905425D01*
X157754255Y-108905430D01*
X157747730Y-108910259D01*
X157742672Y-108916617D01*
X157736826Y-108922264D01*
X157735624Y-108921019D01*
X157696750Y-108950755D01*
X157637189Y-108960452D01*
X157580104Y-108940886D01*
X157539015Y-108896691D01*
X157523651Y-108838335D01*
X157523648Y-108838128D01*
X157522677Y-108754576D01*
X157480234Y-108584345D01*
X157399676Y-108428492D01*
X157382635Y-108408657D01*
X157289756Y-108300547D01*
X157285348Y-108295416D01*
X157202650Y-108233475D01*
X157190990Y-108226469D01*
X156541029Y-107835934D01*
X156541018Y-107835928D01*
X156538330Y-107834313D01*
X156535486Y-107832976D01*
X156535481Y-107832974D01*
X156450941Y-107793251D01*
X156450937Y-107793249D01*
X156444815Y-107790373D01*
X156414947Y-107783660D01*
X156280685Y-107753485D01*
X156280679Y-107753484D01*
X156273643Y-107751903D01*
X156266434Y-107751986D01*
X156266427Y-107751986D01*
X156105434Y-107753859D01*
X156105433Y-107753859D01*
X156098213Y-107753943D01*
X156091208Y-107755689D01*
X156091204Y-107755690D01*
X155934989Y-107794638D01*
X155934981Y-107794640D01*
X155927982Y-107796386D01*
X155921567Y-107799701D01*
X155914810Y-107802251D01*
X155914157Y-107800521D01*
X155863594Y-107811953D01*
X155803698Y-107794291D01*
X155760005Y-107749676D01*
X155746495Y-107700073D01*
X155744562Y-107700322D01*
X155741808Y-107678928D01*
X155702888Y-107522826D01*
X155697824Y-107509401D01*
X155623952Y-107366485D01*
X155615931Y-107354592D01*
X155510800Y-107232221D01*
X155500963Y-107223021D01*
X155426268Y-107167074D01*
X155421046Y-107163562D01*
X154762176Y-106767674D01*
X154756628Y-106764714D01*
X154724860Y-106749787D01*
X154713551Y-106747636D01*
X154710689Y-106758790D01*
X154710689Y-108141648D01*
X154694076Y-108203648D01*
X154648689Y-108249035D01*
X154586689Y-108265648D01*
X153553685Y-108265648D01*
X153491556Y-108248961D01*
X153007936Y-107968970D01*
X152999123Y-107963359D01*
X152963356Y-107938409D01*
X152963353Y-107938407D01*
X152957432Y-107934277D01*
X152950716Y-107931622D01*
X152950713Y-107931621D01*
X152888865Y-107907177D01*
X152885194Y-107905657D01*
X152824204Y-107879262D01*
X152824199Y-107879260D01*
X152817578Y-107876395D01*
X152810479Y-107875134D01*
X152805765Y-107873716D01*
X152800981Y-107872443D01*
X152794271Y-107869792D01*
X152787125Y-107868758D01*
X152787121Y-107868757D01*
X152721336Y-107859240D01*
X152717413Y-107858608D01*
X152651948Y-107846984D01*
X152651942Y-107846983D01*
X152644837Y-107845722D01*
X152637636Y-107846132D01*
X152632754Y-107845842D01*
X152627781Y-107845706D01*
X152620637Y-107844673D01*
X152613444Y-107845315D01*
X152613442Y-107845315D01*
X152547230Y-107851225D01*
X152543270Y-107851515D01*
X152476891Y-107855302D01*
X152476885Y-107855302D01*
X152469681Y-107855714D01*
X152462764Y-107857775D01*
X152457832Y-107858639D01*
X152453066Y-107859632D01*
X152445890Y-107860273D01*
X152439045Y-107862554D01*
X152439038Y-107862556D01*
X152375949Y-107883585D01*
X152372162Y-107884781D01*
X152308462Y-107903769D01*
X152308459Y-107903770D01*
X152301549Y-107905830D01*
X152295299Y-107909427D01*
X152289333Y-107911993D01*
X152279572Y-107915711D01*
X150469263Y-108519148D01*
X150404271Y-108522800D01*
X150294646Y-108499500D01*
X150105354Y-108499500D01*
X150098995Y-108500851D01*
X150098991Y-108500852D01*
X149926559Y-108537503D01*
X149926552Y-108537505D01*
X149920197Y-108538856D01*
X149914262Y-108541498D01*
X149914254Y-108541501D01*
X149753207Y-108613205D01*
X149753202Y-108613207D01*
X149747270Y-108615849D01*
X149742016Y-108619665D01*
X149742011Y-108619669D01*
X149599388Y-108723290D01*
X149599381Y-108723295D01*
X149594129Y-108727112D01*
X149589784Y-108731937D01*
X149589779Y-108731942D01*
X149471813Y-108862956D01*
X149471808Y-108862962D01*
X149467467Y-108867784D01*
X149464222Y-108873404D01*
X149464218Y-108873410D01*
X149376069Y-109026089D01*
X149376066Y-109026094D01*
X149372821Y-109031716D01*
X149370815Y-109037888D01*
X149370813Y-109037894D01*
X149316333Y-109205564D01*
X149316331Y-109205573D01*
X149314326Y-109211744D01*
X149313648Y-109218194D01*
X149313646Y-109218204D01*
X149297743Y-109369528D01*
X149294540Y-109400000D01*
X148701752Y-109400000D01*
X148689303Y-109375567D01*
X148677289Y-109362224D01*
X148649123Y-109309251D01*
X148649123Y-109249254D01*
X148677290Y-109196281D01*
X148727028Y-109162731D01*
X148838513Y-109122154D01*
X148985092Y-109025746D01*
X149105489Y-108898135D01*
X149158446Y-108809415D01*
X149485981Y-108107011D01*
X149519906Y-108009415D01*
X149540273Y-107835159D01*
X149531797Y-107762636D01*
X153347514Y-107762636D01*
X153358655Y-107765648D01*
X154194363Y-107765648D01*
X154207238Y-107762197D01*
X154210689Y-107749322D01*
X154210689Y-106727036D01*
X154208170Y-106716128D01*
X154196982Y-106716323D01*
X154156541Y-106726406D01*
X154143123Y-106731468D01*
X154000204Y-106805341D01*
X153988311Y-106813362D01*
X153865940Y-106918493D01*
X153856740Y-106928330D01*
X153800798Y-107003019D01*
X153797277Y-107008255D01*
X153350670Y-107751537D01*
X153347514Y-107762636D01*
X149531797Y-107762636D01*
X149519906Y-107660903D01*
X149459901Y-107496042D01*
X149455930Y-107490005D01*
X149452692Y-107483557D01*
X149454348Y-107482725D01*
X149437691Y-107433675D01*
X149448977Y-107372253D01*
X149488769Y-107324122D01*
X149536714Y-107305479D01*
X149536266Y-107303586D01*
X149557249Y-107298612D01*
X149708433Y-107243585D01*
X149721255Y-107237146D01*
X149855664Y-107148743D01*
X149866658Y-107139518D01*
X149977373Y-107022168D01*
X149985482Y-107011439D01*
X150033323Y-106931292D01*
X150036268Y-106925732D01*
X150316917Y-106323878D01*
X150319039Y-106312564D01*
X150307888Y-106309706D01*
X148962466Y-106309706D01*
X148900466Y-106293093D01*
X148855079Y-106247706D01*
X148838466Y-106185706D01*
X148838466Y-105793380D01*
X149338466Y-105793380D01*
X149341916Y-105806255D01*
X149354792Y-105809706D01*
X150382220Y-105809706D01*
X150395469Y-105805878D01*
X150397732Y-105792274D01*
X150397187Y-105787609D01*
X150393876Y-105773641D01*
X150338855Y-105622470D01*
X150332413Y-105609642D01*
X150244007Y-105475230D01*
X150234789Y-105464243D01*
X150117435Y-105353525D01*
X150106706Y-105345416D01*
X150026559Y-105297575D01*
X150020999Y-105294630D01*
X149352638Y-104982968D01*
X149341324Y-104980846D01*
X149338466Y-104991998D01*
X149338466Y-105793380D01*
X148838466Y-105793380D01*
X148838466Y-104817505D01*
X148835405Y-104805126D01*
X148823466Y-104800650D01*
X148807773Y-104798816D01*
X148793433Y-104798816D01*
X148633631Y-104817493D01*
X148619682Y-104820799D01*
X148468498Y-104875826D01*
X148455676Y-104882265D01*
X148321267Y-104970668D01*
X148310273Y-104979893D01*
X148199558Y-105097243D01*
X148191449Y-105107972D01*
X148143608Y-105188119D01*
X148140663Y-105193679D01*
X147815818Y-105890313D01*
X147813449Y-105896150D01*
X147791626Y-105958936D01*
X147751973Y-106015042D01*
X147688536Y-106041426D01*
X147620791Y-106029988D01*
X147569533Y-105984238D01*
X147550500Y-105918223D01*
X147550500Y-104634321D01*
X147567113Y-104572321D01*
X147627179Y-104468284D01*
X147685674Y-104288256D01*
X147705460Y-104100000D01*
X147689991Y-103952818D01*
X147686353Y-103918204D01*
X147686352Y-103918203D01*
X147685674Y-103911744D01*
X147627179Y-103731716D01*
X147532533Y-103567784D01*
X147504593Y-103536754D01*
X147410220Y-103431942D01*
X147410219Y-103431941D01*
X147405871Y-103427112D01*
X147400613Y-103423292D01*
X147400611Y-103423290D01*
X147257988Y-103319669D01*
X147257987Y-103319668D01*
X147252730Y-103315849D01*
X147246792Y-103313205D01*
X147085745Y-103241501D01*
X147085740Y-103241499D01*
X147079803Y-103238856D01*
X147073444Y-103237504D01*
X147073440Y-103237503D01*
X146901008Y-103200852D01*
X146901005Y-103200851D01*
X146894646Y-103199500D01*
X146705354Y-103199500D01*
X146698995Y-103200851D01*
X146698991Y-103200852D01*
X146526559Y-103237503D01*
X146526552Y-103237505D01*
X146520197Y-103238856D01*
X146514262Y-103241498D01*
X146514254Y-103241501D01*
X146353207Y-103313205D01*
X146353202Y-103313207D01*
X146347270Y-103315849D01*
X146342016Y-103319665D01*
X146342011Y-103319669D01*
X146199388Y-103423290D01*
X146199381Y-103423295D01*
X146194129Y-103427112D01*
X146189784Y-103431937D01*
X146189779Y-103431942D01*
X146071813Y-103562956D01*
X146071808Y-103562962D01*
X146067467Y-103567784D01*
X146064222Y-103573404D01*
X146064218Y-103573410D01*
X145976069Y-103726089D01*
X145976066Y-103726094D01*
X145972821Y-103731716D01*
X145970815Y-103737888D01*
X145970813Y-103737894D01*
X145916333Y-103905564D01*
X145916331Y-103905573D01*
X145914326Y-103911744D01*
X145913648Y-103918194D01*
X145913646Y-103918204D01*
X145900999Y-104038547D01*
X145894540Y-104100000D01*
X145895219Y-104106460D01*
X145913646Y-104281795D01*
X145913647Y-104281803D01*
X145914326Y-104288256D01*
X145916331Y-104294428D01*
X145916333Y-104294435D01*
X145970813Y-104462105D01*
X145972821Y-104468284D01*
X146017609Y-104545860D01*
X146032887Y-104572321D01*
X146049500Y-104634321D01*
X146049500Y-106465053D01*
X146048191Y-106483024D01*
X146044711Y-106506783D01*
X146045340Y-106513974D01*
X146045340Y-106513981D01*
X146049028Y-106556129D01*
X146049500Y-106566936D01*
X146049500Y-106572469D01*
X146049916Y-106576032D01*
X146049917Y-106576042D01*
X146053098Y-106603256D01*
X146053464Y-106606842D01*
X146059371Y-106674364D01*
X146059372Y-106674369D01*
X146060001Y-106681557D01*
X146062271Y-106688409D01*
X146062976Y-106691823D01*
X146063028Y-106692144D01*
X146063120Y-106692469D01*
X146063920Y-106695845D01*
X146064759Y-106703015D01*
X146090413Y-106773502D01*
X146091582Y-106776868D01*
X146112913Y-106841239D01*
X146112917Y-106841249D01*
X146115186Y-106848094D01*
X146118971Y-106854232D01*
X146120443Y-106857388D01*
X146120570Y-106857695D01*
X146120729Y-106857980D01*
X146122295Y-106861098D01*
X146124763Y-106867877D01*
X146128727Y-106873904D01*
X146128729Y-106873908D01*
X146165979Y-106930544D01*
X146167900Y-106933559D01*
X146207288Y-106997416D01*
X146212392Y-107002520D01*
X146214542Y-107005239D01*
X146214739Y-107005512D01*
X146214973Y-107005767D01*
X146217202Y-107008423D01*
X146221170Y-107014456D01*
X146226423Y-107019412D01*
X146226424Y-107019413D01*
X146275709Y-107065911D01*
X146278296Y-107068424D01*
X146894077Y-107684205D01*
X146927259Y-107744169D01*
X146923522Y-107812599D01*
X146905383Y-107864779D01*
X146905379Y-107864792D01*
X146903162Y-107871173D01*
X146902377Y-107877885D01*
X146902376Y-107877892D01*
X146887004Y-108009415D01*
X146882795Y-108045429D01*
X146883633Y-108052599D01*
X146901287Y-108203648D01*
X146903162Y-108219685D01*
X146905627Y-108226459D01*
X146905630Y-108226469D01*
X146946995Y-108340117D01*
X146951455Y-108409718D01*
X146917643Y-108470717D01*
X146856254Y-108503817D01*
X146718746Y-108533045D01*
X146718743Y-108533045D01*
X146710797Y-108534735D01*
X146703563Y-108538420D01*
X146703557Y-108538423D01*
X146582142Y-108600287D01*
X146582138Y-108600289D01*
X146574903Y-108603976D01*
X146568866Y-108609411D01*
X146568864Y-108609413D01*
X146467600Y-108700591D01*
X146467598Y-108700593D01*
X146461561Y-108706029D01*
X146457138Y-108712838D01*
X146457136Y-108712842D01*
X146401555Y-108798431D01*
X146399350Y-108801827D01*
X146397609Y-108805475D01*
X146397605Y-108805484D01*
X145919591Y-109807662D01*
X145919587Y-109807671D01*
X145917846Y-109811322D01*
X145916593Y-109815176D01*
X145916593Y-109815178D01*
X145885059Y-109912225D01*
X145885057Y-109912232D01*
X145882548Y-109919956D01*
X145882122Y-109928069D01*
X145882122Y-109928074D01*
X145874991Y-110064144D01*
X145874991Y-110064148D01*
X145874566Y-110072264D01*
X145272846Y-110072264D01*
X145227179Y-109931716D01*
X145132533Y-109767784D01*
X145026380Y-109649890D01*
X145010220Y-109631942D01*
X145010219Y-109631941D01*
X145005871Y-109627112D01*
X145000613Y-109623292D01*
X145000611Y-109623290D01*
X144857988Y-109519669D01*
X144857987Y-109519668D01*
X144852730Y-109515849D01*
X144846792Y-109513205D01*
X144685745Y-109441501D01*
X144685740Y-109441499D01*
X144679803Y-109438856D01*
X144673444Y-109437504D01*
X144673440Y-109437503D01*
X144501008Y-109400852D01*
X144501005Y-109400851D01*
X144494646Y-109399500D01*
X144305354Y-109399500D01*
X144298995Y-109400851D01*
X144298991Y-109400852D01*
X144126559Y-109437503D01*
X144126552Y-109437505D01*
X144120197Y-109438856D01*
X144114262Y-109441498D01*
X144114254Y-109441501D01*
X143953207Y-109513205D01*
X143953202Y-109513207D01*
X143947270Y-109515849D01*
X143942016Y-109519665D01*
X143942011Y-109519669D01*
X143799388Y-109623290D01*
X143799381Y-109623295D01*
X143794129Y-109627112D01*
X143789784Y-109631937D01*
X143789779Y-109631942D01*
X143671813Y-109762956D01*
X143671808Y-109762962D01*
X143667467Y-109767784D01*
X143664222Y-109773404D01*
X143664218Y-109773410D01*
X143576069Y-109926089D01*
X143576066Y-109926094D01*
X143572821Y-109931716D01*
X143570815Y-109937888D01*
X143570813Y-109937894D01*
X143516333Y-110105564D01*
X143516331Y-110105573D01*
X143514326Y-110111744D01*
X143513648Y-110118194D01*
X143513646Y-110118204D01*
X143506438Y-110186794D01*
X143494540Y-110300000D01*
X142393536Y-110300000D01*
X142669721Y-110202198D01*
X142677734Y-110196993D01*
X142670309Y-110190980D01*
X141349337Y-109560910D01*
X141339993Y-109558923D01*
X140083747Y-109558923D01*
X140238601Y-109364742D01*
X140369783Y-109137528D01*
X140465635Y-108893301D01*
X140524017Y-108637515D01*
X140543623Y-108375885D01*
X140524017Y-108114255D01*
X140465635Y-107858469D01*
X140369783Y-107614242D01*
X140362893Y-107602309D01*
X140309253Y-107509401D01*
X140238601Y-107387028D01*
X140075020Y-107181904D01*
X139882694Y-107003452D01*
X139665919Y-106855657D01*
X139661733Y-106853641D01*
X139433717Y-106743834D01*
X139433711Y-106743831D01*
X139429538Y-106741822D01*
X139425116Y-106740458D01*
X139425106Y-106740454D01*
X139183263Y-106665856D01*
X139183258Y-106665854D01*
X139178830Y-106664489D01*
X139174250Y-106663798D01*
X139174243Y-106663797D01*
X138923980Y-106626075D01*
X138923969Y-106626074D01*
X138919397Y-106625385D01*
X138657033Y-106625385D01*
X138652461Y-106626074D01*
X138652449Y-106626075D01*
X138402186Y-106663797D01*
X138402176Y-106663799D01*
X138397600Y-106664489D01*
X138393174Y-106665853D01*
X138393166Y-106665856D01*
X138151323Y-106740454D01*
X138151308Y-106740459D01*
X138146892Y-106741822D01*
X138142723Y-106743829D01*
X138142712Y-106743834D01*
X137914696Y-106853641D01*
X137914689Y-106853644D01*
X137910511Y-106855657D01*
X137906678Y-106858270D01*
X137906675Y-106858272D01*
X137776483Y-106947036D01*
X137693736Y-107003452D01*
X137690344Y-107006598D01*
X137690338Y-107006604D01*
X137547091Y-107139518D01*
X137501410Y-107181904D01*
X137498521Y-107185526D01*
X137498517Y-107185531D01*
X137340721Y-107383401D01*
X137337829Y-107387028D01*
X137335510Y-107391044D01*
X137335509Y-107391046D01*
X137208968Y-107610220D01*
X137208962Y-107610231D01*
X137206647Y-107614242D01*
X137204954Y-107618555D01*
X137204949Y-107618566D01*
X137112491Y-107854146D01*
X137112488Y-107854153D01*
X137110795Y-107858469D01*
X137109763Y-107862987D01*
X137109762Y-107862993D01*
X137053444Y-108109735D01*
X137053442Y-108109743D01*
X137052413Y-108114255D01*
X137052066Y-108118874D01*
X137052066Y-108118880D01*
X137039141Y-108291362D01*
X137032807Y-108375885D01*
X131447959Y-108375885D01*
X130876397Y-108103849D01*
X130874091Y-108102722D01*
X130674673Y-108002695D01*
X130635344Y-107982967D01*
X130629438Y-107979803D01*
X130545095Y-107931621D01*
X130462111Y-107884215D01*
X130361750Y-107826882D01*
X130356302Y-107823581D01*
X130014284Y-107604165D01*
X130008278Y-107600058D01*
X129612558Y-107312008D01*
X129605981Y-107306872D01*
X129175743Y-106947036D01*
X129170548Y-106942438D01*
X128950413Y-106736338D01*
X128946766Y-106732781D01*
X128946346Y-106732354D01*
X128724931Y-106507288D01*
X128721254Y-106503382D01*
X128501061Y-106259008D01*
X128497292Y-106254625D01*
X128440789Y-106185706D01*
X128384753Y-106117356D01*
X130800011Y-106117356D01*
X130803499Y-106130273D01*
X130816454Y-106133610D01*
X130872501Y-106132958D01*
X130886730Y-106131127D01*
X131042832Y-106092207D01*
X131056257Y-106087143D01*
X131125939Y-106051125D01*
X132158846Y-106051125D01*
X132159193Y-106055756D01*
X132176978Y-106293093D01*
X132178452Y-106312755D01*
X132179482Y-106317268D01*
X132179483Y-106317274D01*
X132224381Y-106513981D01*
X132236834Y-106568541D01*
X132238529Y-106572859D01*
X132238530Y-106572863D01*
X132330988Y-106808443D01*
X132330991Y-106808449D01*
X132332686Y-106812768D01*
X132335004Y-106816783D01*
X132335007Y-106816789D01*
X132364503Y-106867877D01*
X132463868Y-107039982D01*
X132627449Y-107245106D01*
X132819775Y-107423558D01*
X133036550Y-107571353D01*
X133272931Y-107685188D01*
X133277359Y-107686553D01*
X133277362Y-107686555D01*
X133321187Y-107700073D01*
X133523639Y-107762521D01*
X133783072Y-107801625D01*
X134040801Y-107801625D01*
X134045436Y-107801625D01*
X134304869Y-107762521D01*
X134555577Y-107685188D01*
X134791958Y-107571353D01*
X135008733Y-107423558D01*
X135201059Y-107245106D01*
X135364640Y-107039982D01*
X135495822Y-106812768D01*
X135591674Y-106568541D01*
X135650056Y-106312755D01*
X135669662Y-106051125D01*
X135650056Y-105789495D01*
X135591674Y-105533709D01*
X135495822Y-105289482D01*
X135364640Y-105062268D01*
X135201059Y-104857144D01*
X135008733Y-104678692D01*
X134791958Y-104530897D01*
X134787772Y-104528881D01*
X134559756Y-104419074D01*
X134559750Y-104419071D01*
X134555577Y-104417062D01*
X134551155Y-104415698D01*
X134551145Y-104415694D01*
X134309302Y-104341096D01*
X134309297Y-104341094D01*
X134304869Y-104339729D01*
X134300289Y-104339038D01*
X134300282Y-104339037D01*
X134050019Y-104301315D01*
X134050008Y-104301314D01*
X134045436Y-104300625D01*
X133783072Y-104300625D01*
X133778500Y-104301314D01*
X133778488Y-104301315D01*
X133528225Y-104339037D01*
X133528215Y-104339039D01*
X133523639Y-104339729D01*
X133519213Y-104341093D01*
X133519205Y-104341096D01*
X133277362Y-104415694D01*
X133277347Y-104415699D01*
X133272931Y-104417062D01*
X133268762Y-104419069D01*
X133268751Y-104419074D01*
X133040735Y-104528881D01*
X133040728Y-104528884D01*
X133036550Y-104530897D01*
X133032717Y-104533510D01*
X133032714Y-104533512D01*
X132848545Y-104659077D01*
X132819775Y-104678692D01*
X132816383Y-104681838D01*
X132816377Y-104681844D01*
X132630850Y-104853988D01*
X132627449Y-104857144D01*
X132624560Y-104860766D01*
X132624556Y-104860771D01*
X132466760Y-105058641D01*
X132463868Y-105062268D01*
X132461549Y-105066284D01*
X132461548Y-105066286D01*
X132335007Y-105285460D01*
X132335001Y-105285471D01*
X132332686Y-105289482D01*
X132330993Y-105293795D01*
X132330988Y-105293806D01*
X132238530Y-105529386D01*
X132238527Y-105529393D01*
X132236834Y-105533709D01*
X132235802Y-105538227D01*
X132235801Y-105538233D01*
X132179483Y-105784975D01*
X132179481Y-105784983D01*
X132178452Y-105789495D01*
X132178105Y-105794114D01*
X132178105Y-105794120D01*
X132170899Y-105890282D01*
X132158846Y-106051125D01*
X131125939Y-106051125D01*
X131199173Y-106013271D01*
X131211066Y-106005250D01*
X131333437Y-105900119D01*
X131342637Y-105890282D01*
X131398584Y-105815587D01*
X131402096Y-105810365D01*
X131797984Y-105151495D01*
X131800944Y-105145947D01*
X131815871Y-105114179D01*
X131818022Y-105102870D01*
X131806869Y-105100008D01*
X130816337Y-105100008D01*
X130803461Y-105103458D01*
X130800011Y-105116334D01*
X130800011Y-106117356D01*
X128384753Y-106117356D01*
X128281188Y-105991032D01*
X128277412Y-105986185D01*
X128131832Y-105789495D01*
X128067931Y-105703159D01*
X128064202Y-105697835D01*
X127909586Y-105464243D01*
X127863723Y-105394953D01*
X127860099Y-105389133D01*
X127839266Y-105353525D01*
X127692412Y-105102526D01*
X129250491Y-105102526D01*
X129250686Y-105113714D01*
X129260769Y-105154155D01*
X129265831Y-105167573D01*
X129339704Y-105310492D01*
X129347725Y-105322385D01*
X129452856Y-105444756D01*
X129462693Y-105453956D01*
X129537382Y-105509898D01*
X129542618Y-105513419D01*
X130285900Y-105960026D01*
X130296999Y-105963182D01*
X130300011Y-105952042D01*
X130300011Y-105116334D01*
X130296560Y-105103458D01*
X130283685Y-105100008D01*
X129261399Y-105100008D01*
X129250491Y-105102526D01*
X127692412Y-105102526D01*
X127671133Y-105066157D01*
X127667698Y-105059875D01*
X127492661Y-104716416D01*
X127489475Y-104709667D01*
X127336137Y-104357595D01*
X127330837Y-104345425D01*
X127327955Y-104338195D01*
X127188165Y-103952818D01*
X127185679Y-103945205D01*
X127147267Y-103813303D01*
X127067175Y-103538276D01*
X127065152Y-103530367D01*
X127061910Y-103515695D01*
X126979776Y-103143936D01*
X126970386Y-103101436D01*
X126968872Y-103093303D01*
X126952697Y-102986794D01*
X126900337Y-102642019D01*
X126899371Y-102633820D01*
X126862942Y-102200000D01*
X127294540Y-102200000D01*
X127295219Y-102206460D01*
X127313646Y-102381795D01*
X127313647Y-102381803D01*
X127314326Y-102388256D01*
X127316331Y-102394428D01*
X127316333Y-102394435D01*
X127370813Y-102562105D01*
X127372821Y-102568284D01*
X127376068Y-102573908D01*
X127376069Y-102573910D01*
X127455361Y-102711249D01*
X127467467Y-102732216D01*
X127471811Y-102737041D01*
X127471813Y-102737043D01*
X127513952Y-102783843D01*
X127594129Y-102872888D01*
X127599387Y-102876708D01*
X127599388Y-102876709D01*
X127637441Y-102904356D01*
X127747270Y-102984151D01*
X127920197Y-103061144D01*
X128105354Y-103100500D01*
X128186619Y-103100500D01*
X128252608Y-103119517D01*
X128497021Y-103273148D01*
X129532339Y-103923920D01*
X129534691Y-103925398D01*
X129577951Y-103971724D01*
X129592666Y-104033376D01*
X129574991Y-104094245D01*
X129302042Y-104548512D01*
X129299075Y-104554073D01*
X129284150Y-104585836D01*
X129281999Y-104597145D01*
X129293153Y-104600008D01*
X131838623Y-104600008D01*
X131849530Y-104597489D01*
X131849335Y-104586301D01*
X131839252Y-104545860D01*
X131831642Y-104525687D01*
X131833463Y-104524999D01*
X131822105Y-104474835D01*
X131839750Y-104414929D01*
X131884356Y-104371221D01*
X131934341Y-104357595D01*
X131934105Y-104355758D01*
X131941267Y-104354836D01*
X131948491Y-104354752D01*
X132118722Y-104312309D01*
X132274575Y-104231751D01*
X132407651Y-104117423D01*
X132469592Y-104034725D01*
X132868754Y-103370405D01*
X132912694Y-103276890D01*
X132951164Y-103105718D01*
X132949124Y-102930288D01*
X132906681Y-102760057D01*
X132903363Y-102753638D01*
X132901745Y-102749348D01*
X132896278Y-102680741D01*
X132928236Y-102619786D01*
X132985424Y-102586625D01*
X132987764Y-102586359D01*
X133129668Y-102530461D01*
X133252270Y-102439741D01*
X133323376Y-102350347D01*
X134105435Y-101048783D01*
X134150982Y-100944032D01*
X134173525Y-100793191D01*
X134156261Y-100641654D01*
X134100362Y-100499750D01*
X134063019Y-100449284D01*
X134014474Y-100383678D01*
X134014473Y-100383677D01*
X134009642Y-100377148D01*
X133920249Y-100306042D01*
X133921327Y-100304686D01*
X133886105Y-100263831D01*
X133873389Y-100203238D01*
X133891554Y-100144049D01*
X133936072Y-100101022D01*
X133995842Y-100084881D01*
X134705460Y-100076771D01*
X134771945Y-100095208D01*
X134818286Y-100146324D01*
X134830135Y-100214294D01*
X134803822Y-100278075D01*
X134662372Y-100455449D01*
X134662365Y-100455457D01*
X134659475Y-100459083D01*
X134657156Y-100463099D01*
X134657155Y-100463101D01*
X134530614Y-100682275D01*
X134530608Y-100682286D01*
X134528293Y-100686297D01*
X134526600Y-100690610D01*
X134526595Y-100690621D01*
X134434137Y-100926201D01*
X134434134Y-100926208D01*
X134432441Y-100930524D01*
X134431409Y-100935042D01*
X134431408Y-100935048D01*
X134375090Y-101181790D01*
X134375088Y-101181798D01*
X134374059Y-101186310D01*
X134373712Y-101190929D01*
X134373712Y-101190935D01*
X134355411Y-101435162D01*
X134354453Y-101447940D01*
X134354800Y-101452571D01*
X134373295Y-101699383D01*
X134374059Y-101709570D01*
X134375089Y-101714083D01*
X134375090Y-101714089D01*
X134419282Y-101907705D01*
X134432441Y-101965356D01*
X134434136Y-101969674D01*
X134434137Y-101969678D01*
X134526595Y-102205258D01*
X134526598Y-102205264D01*
X134528293Y-102209583D01*
X134530611Y-102213598D01*
X134530614Y-102213604D01*
X134604834Y-102342156D01*
X134659475Y-102436797D01*
X134823056Y-102641921D01*
X135015382Y-102820373D01*
X135232157Y-102968168D01*
X135468538Y-103082003D01*
X135472966Y-103083368D01*
X135472969Y-103083370D01*
X135528504Y-103100500D01*
X135719246Y-103159336D01*
X135978679Y-103198440D01*
X136236408Y-103198440D01*
X136241043Y-103198440D01*
X136500476Y-103159336D01*
X136751184Y-103082003D01*
X136987565Y-102968168D01*
X137204340Y-102820373D01*
X137396666Y-102641921D01*
X137560247Y-102436797D01*
X137691429Y-102209583D01*
X137787281Y-101965356D01*
X137845663Y-101709570D01*
X137865269Y-101447940D01*
X137845663Y-101186310D01*
X137787281Y-100930524D01*
X137699320Y-100706405D01*
X137691425Y-100648174D01*
X137711227Y-100592846D01*
X137754279Y-100552848D01*
X137810913Y-100537163D01*
X137868407Y-100549314D01*
X140566676Y-101844484D01*
X140612157Y-101881794D01*
X140635326Y-101935866D01*
X140630968Y-101994531D01*
X140600063Y-102044585D01*
X140549567Y-102074764D01*
X140346929Y-102137269D01*
X140346914Y-102137274D01*
X140342498Y-102138637D01*
X140338329Y-102140644D01*
X140338318Y-102140649D01*
X140110302Y-102250456D01*
X140110295Y-102250459D01*
X140106117Y-102252472D01*
X140102284Y-102255085D01*
X140102281Y-102255087D01*
X139962561Y-102350347D01*
X139889342Y-102400267D01*
X139885950Y-102403413D01*
X139885944Y-102403419D01*
X139702199Y-102573910D01*
X139697016Y-102578719D01*
X139694127Y-102582341D01*
X139694123Y-102582346D01*
X139536327Y-102780216D01*
X139533435Y-102783843D01*
X139531116Y-102787859D01*
X139531115Y-102787861D01*
X139404574Y-103007035D01*
X139404568Y-103007046D01*
X139402253Y-103011057D01*
X139400560Y-103015370D01*
X139400555Y-103015381D01*
X139308097Y-103250961D01*
X139308094Y-103250968D01*
X139306401Y-103255284D01*
X139305369Y-103259802D01*
X139305368Y-103259808D01*
X139249050Y-103506550D01*
X139249048Y-103506558D01*
X139248019Y-103511070D01*
X139247672Y-103515689D01*
X139247672Y-103515695D01*
X139228760Y-103768069D01*
X139228413Y-103772700D01*
X139228760Y-103777331D01*
X139246586Y-104015216D01*
X139248019Y-104034330D01*
X139249049Y-104038843D01*
X139249050Y-104038849D01*
X139292005Y-104227045D01*
X139306401Y-104290116D01*
X139308096Y-104294434D01*
X139308097Y-104294438D01*
X139400555Y-104530018D01*
X139400558Y-104530024D01*
X139402253Y-104534343D01*
X139404571Y-104538358D01*
X139404574Y-104538364D01*
X139469555Y-104650913D01*
X139533435Y-104761557D01*
X139697016Y-104966681D01*
X139889342Y-105145133D01*
X140106117Y-105292928D01*
X140342498Y-105406763D01*
X140346926Y-105408128D01*
X140346929Y-105408130D01*
X140395938Y-105423247D01*
X140593206Y-105484096D01*
X140852639Y-105523200D01*
X141110368Y-105523200D01*
X141115003Y-105523200D01*
X141374436Y-105484096D01*
X141625144Y-105406763D01*
X141861525Y-105292928D01*
X142078300Y-105145133D01*
X142270626Y-104966681D01*
X142303970Y-104924867D01*
X142354466Y-104887209D01*
X142416947Y-104879219D01*
X142475293Y-104902959D01*
X142514446Y-104952303D01*
X142524304Y-105014517D01*
X142385696Y-106400593D01*
X142364680Y-106458231D01*
X142318606Y-106498740D01*
X142249732Y-106533833D01*
X142249728Y-106533835D01*
X142242493Y-106537522D01*
X142236456Y-106542957D01*
X142236454Y-106542959D01*
X142135190Y-106634137D01*
X142135188Y-106634139D01*
X142129151Y-106639575D01*
X142124728Y-106646384D01*
X142124726Y-106646388D01*
X142079311Y-106716323D01*
X142066940Y-106735373D01*
X142065199Y-106739021D01*
X142065195Y-106739030D01*
X141587181Y-107741208D01*
X141587177Y-107741217D01*
X141585436Y-107744868D01*
X141584183Y-107748722D01*
X141584183Y-107748724D01*
X141552649Y-107845771D01*
X141552647Y-107845778D01*
X141550138Y-107853502D01*
X141549712Y-107861615D01*
X141549712Y-107861620D01*
X141542581Y-107997690D01*
X141542581Y-107997694D01*
X141542156Y-108005810D01*
X141543845Y-108013758D01*
X141543846Y-108013764D01*
X141571029Y-108141648D01*
X141573866Y-108154994D01*
X141577552Y-108162230D01*
X141577554Y-108162233D01*
X141621782Y-108249035D01*
X141643107Y-108290887D01*
X141745161Y-108404230D01*
X141840958Y-108466441D01*
X143211487Y-109120149D01*
X143320121Y-109155447D01*
X143472429Y-109163429D01*
X143621613Y-109131719D01*
X143757507Y-109062478D01*
X143870849Y-108960425D01*
X143933060Y-108864627D01*
X144414564Y-107855132D01*
X144449862Y-107746498D01*
X144457844Y-107594190D01*
X144426134Y-107445006D01*
X144356893Y-107309113D01*
X144254839Y-107195770D01*
X144194187Y-107156382D01*
X144162450Y-107135772D01*
X144162448Y-107135770D01*
X144159042Y-107133559D01*
X144155376Y-107131810D01*
X144155370Y-107131807D01*
X143914956Y-107017135D01*
X143874893Y-106986724D01*
X143850205Y-106942900D01*
X143844955Y-106892877D01*
X143848494Y-106857494D01*
X144146329Y-103879129D01*
X144146464Y-103877857D01*
X144146748Y-103875289D01*
X144155594Y-103795296D01*
X144150534Y-103754228D01*
X144149621Y-103741142D01*
X144149051Y-103706989D01*
X144148931Y-103699769D01*
X144140982Y-103668562D01*
X144138078Y-103653126D01*
X144135024Y-103628334D01*
X144134142Y-103621170D01*
X144119744Y-103582365D01*
X144115840Y-103569846D01*
X144114085Y-103562956D01*
X144105629Y-103529755D01*
X144090700Y-103501228D01*
X144084314Y-103486876D01*
X144073113Y-103456686D01*
X144050159Y-103422256D01*
X144043466Y-103410963D01*
X144027635Y-103380710D01*
X144024286Y-103374310D01*
X144019554Y-103368858D01*
X144019552Y-103368855D01*
X144003185Y-103349998D01*
X143993658Y-103337503D01*
X143568394Y-102699608D01*
X161461875Y-102699608D01*
X161469362Y-102711249D01*
X162347848Y-103474905D01*
X162359826Y-103480747D01*
X162370879Y-103473292D01*
X163134532Y-102594809D01*
X163140327Y-102582239D01*
X163131384Y-102571676D01*
X163117179Y-102562274D01*
X163102694Y-102555209D01*
X162973598Y-102512013D01*
X162957776Y-102508937D01*
X162856030Y-102502714D01*
X162847928Y-102502750D01*
X161740367Y-102580198D01*
X161732338Y-102581291D01*
X161632446Y-102601614D01*
X161617208Y-102606861D01*
X161495380Y-102667603D01*
X161482022Y-102676613D01*
X161469260Y-102687903D01*
X161461875Y-102699608D01*
X143568394Y-102699608D01*
X142664041Y-101343079D01*
X142654253Y-101325438D01*
X142650490Y-101317126D01*
X142650487Y-101317121D01*
X142647509Y-101310543D01*
X142638976Y-101299500D01*
X142612556Y-101265306D01*
X142607513Y-101258286D01*
X142600208Y-101247329D01*
X142585063Y-101229506D01*
X142581435Y-101225029D01*
X142544658Y-101177433D01*
X142540240Y-101171715D01*
X142534620Y-101167168D01*
X142531382Y-101163857D01*
X142523148Y-101155820D01*
X142519774Y-101152676D01*
X142515098Y-101147173D01*
X142509279Y-101142897D01*
X142509277Y-101142895D01*
X142460810Y-101107280D01*
X142456254Y-101103767D01*
X142451598Y-101100000D01*
X151894540Y-101100000D01*
X151895219Y-101106460D01*
X151913646Y-101281795D01*
X151913647Y-101281803D01*
X151914326Y-101288256D01*
X151916331Y-101294428D01*
X151916333Y-101294435D01*
X151970813Y-101462105D01*
X151972821Y-101468284D01*
X151976068Y-101473908D01*
X151976069Y-101473910D01*
X152050744Y-101603252D01*
X152067467Y-101632216D01*
X152071811Y-101637041D01*
X152071813Y-101637043D01*
X152187731Y-101765782D01*
X152194129Y-101772888D01*
X152199387Y-101776708D01*
X152199388Y-101776709D01*
X152254101Y-101816460D01*
X152347270Y-101884151D01*
X152520197Y-101961144D01*
X152705354Y-102000500D01*
X152888143Y-102000500D01*
X152894646Y-102000500D01*
X153079803Y-101961144D01*
X153252730Y-101884151D01*
X153313622Y-101839909D01*
X153378925Y-101816460D01*
X155290481Y-101699426D01*
X155291855Y-101699350D01*
X155374156Y-101695339D01*
X155414747Y-101683604D01*
X155427277Y-101680677D01*
X155468860Y-101673218D01*
X155475481Y-101670338D01*
X155475483Y-101670338D01*
X155492457Y-101662956D01*
X155497592Y-101660722D01*
X155512595Y-101655317D01*
X155542696Y-101646616D01*
X155579480Y-101625839D01*
X155590998Y-101620102D01*
X155629747Y-101603252D01*
X155654824Y-101584465D01*
X155668192Y-101575736D01*
X155695457Y-101560338D01*
X155726474Y-101531623D01*
X155736328Y-101523410D01*
X155770161Y-101498067D01*
X155790227Y-101474006D01*
X155801207Y-101462443D01*
X155824204Y-101441157D01*
X155847757Y-101406072D01*
X155855465Y-101395788D01*
X155882534Y-101363336D01*
X155896515Y-101335286D01*
X155904536Y-101321500D01*
X156269229Y-100778289D01*
X156310061Y-100740088D01*
X156363525Y-100723710D01*
X156692000Y-100700742D01*
X156793806Y-100683097D01*
X156956088Y-100616429D01*
X157098621Y-100514136D01*
X157213721Y-100381728D01*
X157295183Y-100226345D01*
X157322956Y-100117650D01*
X157345185Y-100072261D01*
X157383682Y-100039510D01*
X157432046Y-100024844D01*
X157480593Y-100020502D01*
X157542088Y-100030736D01*
X157590831Y-100069600D01*
X157612163Y-100121570D01*
X157613425Y-100121314D01*
X157633730Y-100221123D01*
X157636197Y-100233246D01*
X157704250Y-100369738D01*
X157709634Y-100375823D01*
X157709635Y-100375825D01*
X157718720Y-100386094D01*
X157805310Y-100483967D01*
X157829156Y-100499750D01*
X157924650Y-100562956D01*
X157932492Y-100568146D01*
X158077127Y-100616541D01*
X158191140Y-100623514D01*
X159306863Y-100545495D01*
X159418795Y-100522722D01*
X159555288Y-100454669D01*
X159669516Y-100353609D01*
X159753695Y-100226427D01*
X159802090Y-100081792D01*
X159809063Y-99967780D01*
X159723385Y-98742535D01*
X159736920Y-98676964D01*
X159782574Y-98627988D01*
X159847036Y-98609887D01*
X159911510Y-98627938D01*
X160907172Y-99233409D01*
X160948642Y-99274847D01*
X160966441Y-99330706D01*
X161004345Y-99872749D01*
X161005142Y-99884142D01*
X161005952Y-99888123D01*
X161021333Y-99963729D01*
X161027914Y-99996074D01*
X161031540Y-100003347D01*
X161031541Y-100003349D01*
X161057974Y-100056364D01*
X161095967Y-100132566D01*
X161197027Y-100246795D01*
X161250103Y-100281925D01*
X161297362Y-100313205D01*
X161324209Y-100330974D01*
X161468844Y-100379369D01*
X161582857Y-100386342D01*
X162698580Y-100308323D01*
X162810512Y-100285550D01*
X162947005Y-100217497D01*
X163061233Y-100116437D01*
X163145412Y-99989255D01*
X163193807Y-99844620D01*
X163200780Y-99730608D01*
X163094858Y-98215858D01*
X163072086Y-98103926D01*
X163004033Y-97967434D01*
X162902973Y-97853205D01*
X162830995Y-97805564D01*
X162782571Y-97773513D01*
X162782567Y-97773511D01*
X162775791Y-97769026D01*
X162768082Y-97766446D01*
X162768079Y-97766445D01*
X162638867Y-97723211D01*
X162638866Y-97723210D01*
X162631156Y-97720631D01*
X162623046Y-97720135D01*
X162623041Y-97720134D01*
X162521194Y-97713905D01*
X162521182Y-97713905D01*
X162517143Y-97713658D01*
X162513096Y-97713940D01*
X162513092Y-97713941D01*
X161462102Y-97787433D01*
X161424185Y-97784232D01*
X161389024Y-97769683D01*
X156180556Y-94602371D01*
X156139938Y-94562312D01*
X156121555Y-94508307D01*
X156119370Y-94485617D01*
X156107153Y-94358731D01*
X156053740Y-94215873D01*
X156006146Y-94149147D01*
X155969892Y-94098320D01*
X155969890Y-94098318D01*
X155965174Y-94091706D01*
X155877035Y-94019050D01*
X155873599Y-94016903D01*
X155873595Y-94016900D01*
X154592756Y-93216544D01*
X154592752Y-93216542D01*
X154589318Y-93214396D01*
X154585631Y-93212715D01*
X154585626Y-93212713D01*
X154492771Y-93170396D01*
X154492766Y-93170394D01*
X154485377Y-93167027D01*
X154477363Y-93165685D01*
X154477360Y-93165685D01*
X154342967Y-93143196D01*
X154342965Y-93143195D01*
X154334952Y-93141855D01*
X154326869Y-93142633D01*
X154326863Y-93142633D01*
X154191229Y-93155692D01*
X154191222Y-93155693D01*
X154183137Y-93156472D01*
X154175524Y-93159318D01*
X154175521Y-93159319D01*
X154047892Y-93207038D01*
X154047888Y-93207039D01*
X154040279Y-93209885D01*
X154033664Y-93214603D01*
X154033661Y-93214605D01*
X153922728Y-93293733D01*
X153922725Y-93293735D01*
X153916113Y-93298452D01*
X153910949Y-93304715D01*
X153910946Y-93304719D01*
X153846034Y-93383464D01*
X153846029Y-93383470D01*
X153843457Y-93386591D01*
X153841315Y-93390018D01*
X153841307Y-93390030D01*
X153252918Y-94331649D01*
X153252908Y-94331666D01*
X153250770Y-94335089D01*
X153249090Y-94338773D01*
X153249089Y-94338777D01*
X153206772Y-94431631D01*
X153206770Y-94431634D01*
X153203401Y-94439029D01*
X153202059Y-94447044D01*
X153202058Y-94447050D01*
X153179570Y-94581438D01*
X153178229Y-94589454D01*
X153179007Y-94597536D01*
X153179007Y-94597542D01*
X153192067Y-94733175D01*
X153192068Y-94733179D01*
X153192847Y-94741269D01*
X153195693Y-94748881D01*
X153195694Y-94748885D01*
X153243412Y-94876511D01*
X153246260Y-94884127D01*
X153250978Y-94890742D01*
X153250980Y-94890745D01*
X153330107Y-95001679D01*
X153330109Y-95001681D01*
X153334826Y-95008294D01*
X153422965Y-95080950D01*
X153426403Y-95083098D01*
X153426404Y-95083099D01*
X153837476Y-95339965D01*
X154710682Y-95885604D01*
X154814623Y-95932973D01*
X154965048Y-95958145D01*
X155116863Y-95943528D01*
X155259721Y-95890115D01*
X155266339Y-95885393D01*
X155273515Y-95881579D01*
X155274243Y-95882949D01*
X155305597Y-95868742D01*
X155353464Y-95866982D01*
X155398426Y-95883496D01*
X157402757Y-97102346D01*
X158498864Y-97768897D01*
X158542085Y-97813301D01*
X158558423Y-97873076D01*
X158543798Y-97933292D01*
X158501861Y-97978912D01*
X158443086Y-97998543D01*
X158013754Y-98028565D01*
X158013743Y-98028566D01*
X158009703Y-98028849D01*
X158005730Y-98029657D01*
X158005725Y-98029658D01*
X157905731Y-98050002D01*
X157905727Y-98050003D01*
X157897771Y-98051622D01*
X157890507Y-98055243D01*
X157890500Y-98055246D01*
X157768551Y-98116048D01*
X157768546Y-98116051D01*
X157761278Y-98119675D01*
X157755197Y-98125054D01*
X157755191Y-98125059D01*
X157653134Y-98215351D01*
X157653128Y-98215356D01*
X157647050Y-98220735D01*
X157642568Y-98227506D01*
X157642565Y-98227510D01*
X157567358Y-98341136D01*
X157567354Y-98341142D01*
X157562871Y-98347917D01*
X157560292Y-98355622D01*
X157560290Y-98355628D01*
X157517056Y-98484840D01*
X157514476Y-98492552D01*
X157513980Y-98500660D01*
X157513979Y-98500666D01*
X157507750Y-98602512D01*
X157507750Y-98602524D01*
X157507503Y-98606564D01*
X157507785Y-98610610D01*
X157507786Y-98610619D01*
X157509827Y-98639816D01*
X157497927Y-98702101D01*
X157456791Y-98750359D01*
X157397175Y-98771969D01*
X157334604Y-98777565D01*
X157282884Y-98771197D01*
X157238347Y-98744142D01*
X157208859Y-98701176D01*
X157199530Y-98678467D01*
X157184363Y-98641547D01*
X157082069Y-98499013D01*
X156949661Y-98383913D01*
X156943272Y-98380563D01*
X156943270Y-98380562D01*
X156800670Y-98305803D01*
X156800669Y-98305802D01*
X156794278Y-98302452D01*
X156762631Y-98294365D01*
X156630856Y-98260693D01*
X156630849Y-98260692D01*
X156624298Y-98259018D01*
X156617537Y-98258801D01*
X156617533Y-98258801D01*
X156524179Y-98255813D01*
X156524161Y-98255813D01*
X156521027Y-98255713D01*
X156517882Y-98255932D01*
X156517876Y-98255933D01*
X155751049Y-98309555D01*
X155751036Y-98309556D01*
X155747898Y-98309776D01*
X155744787Y-98310315D01*
X155744780Y-98310316D01*
X155652769Y-98326263D01*
X155652762Y-98326264D01*
X155646092Y-98327421D01*
X155639832Y-98329992D01*
X155639824Y-98329995D01*
X155516737Y-98380562D01*
X155483810Y-98394089D01*
X155477944Y-98398298D01*
X155477940Y-98398301D01*
X155347145Y-98492170D01*
X155347141Y-98492173D01*
X155341277Y-98496382D01*
X155336539Y-98501831D01*
X155336536Y-98501835D01*
X155230912Y-98623342D01*
X155230908Y-98623346D01*
X155226177Y-98628790D01*
X155222827Y-98635179D01*
X155218748Y-98641152D01*
X155217222Y-98640110D01*
X155182370Y-98678467D01*
X155123188Y-98698358D01*
X155061815Y-98686888D01*
X155022263Y-98653994D01*
X155020827Y-98655304D01*
X155006297Y-98639355D01*
X154884879Y-98533808D01*
X154873041Y-98525722D01*
X154730550Y-98451019D01*
X154717152Y-98445877D01*
X154560846Y-98405937D01*
X154547518Y-98404044D01*
X154454238Y-98401058D01*
X154447935Y-98401178D01*
X154415556Y-98403442D01*
X154403220Y-98407530D01*
X154400003Y-98420121D01*
X154400003Y-99776003D01*
X154383390Y-99838003D01*
X154338003Y-99883390D01*
X154276003Y-99900003D01*
X153094390Y-99900003D01*
X153081274Y-99903681D01*
X153078519Y-99917021D01*
X153089866Y-100079282D01*
X153080729Y-100135385D01*
X153047520Y-100181516D01*
X152997216Y-100207982D01*
X152940389Y-100209222D01*
X152894646Y-100199500D01*
X152705354Y-100199500D01*
X152698995Y-100200851D01*
X152698991Y-100200852D01*
X152526559Y-100237503D01*
X152526552Y-100237505D01*
X152520197Y-100238856D01*
X152514262Y-100241498D01*
X152514254Y-100241501D01*
X152353207Y-100313205D01*
X152353202Y-100313207D01*
X152347270Y-100315849D01*
X152342016Y-100319665D01*
X152342011Y-100319669D01*
X152199388Y-100423290D01*
X152199381Y-100423295D01*
X152194129Y-100427112D01*
X152189784Y-100431937D01*
X152189779Y-100431942D01*
X152071813Y-100562956D01*
X152071808Y-100562962D01*
X152067467Y-100567784D01*
X152064222Y-100573404D01*
X152064218Y-100573410D01*
X151976069Y-100726089D01*
X151976066Y-100726094D01*
X151972821Y-100731716D01*
X151970815Y-100737888D01*
X151970813Y-100737894D01*
X151916333Y-100905564D01*
X151916331Y-100905573D01*
X151914326Y-100911744D01*
X151913648Y-100918194D01*
X151913646Y-100918204D01*
X151900797Y-101040466D01*
X151894540Y-101100000D01*
X142451598Y-101100000D01*
X142403847Y-101061367D01*
X142397339Y-101058243D01*
X142393425Y-101055768D01*
X142383591Y-101049864D01*
X142379540Y-101047559D01*
X142373723Y-101043284D01*
X142311681Y-101016978D01*
X142306428Y-101014605D01*
X138523915Y-99198999D01*
X153028632Y-99198999D01*
X153028751Y-99205314D01*
X153041278Y-99384449D01*
X153045366Y-99396785D01*
X153057957Y-99400003D01*
X153883677Y-99400003D01*
X153896552Y-99396552D01*
X153900003Y-99383677D01*
X153900003Y-98456554D01*
X153896324Y-98443438D01*
X153882985Y-98440684D01*
X153681168Y-98454796D01*
X153674899Y-98455557D01*
X153582958Y-98471492D01*
X153570013Y-98475224D01*
X153420792Y-98536527D01*
X153408238Y-98543485D01*
X153277539Y-98637286D01*
X153266929Y-98646952D01*
X153161383Y-98768369D01*
X153153294Y-98780213D01*
X153078593Y-98922698D01*
X153073450Y-98936095D01*
X153033510Y-99092404D01*
X153031618Y-99105732D01*
X153028632Y-99198999D01*
X138523915Y-99198999D01*
X138013821Y-98954154D01*
X137327243Y-98624596D01*
X137326542Y-98624257D01*
X137256789Y-98590219D01*
X137250301Y-98587053D01*
X137239015Y-98584514D01*
X137211637Y-98578354D01*
X137198540Y-98574641D01*
X137167896Y-98564105D01*
X137167889Y-98564103D01*
X137161067Y-98561758D01*
X137153883Y-98561048D01*
X137153882Y-98561048D01*
X137127284Y-98558420D01*
X137112265Y-98555998D01*
X137086186Y-98550132D01*
X137086181Y-98550131D01*
X137079138Y-98548547D01*
X137071920Y-98548629D01*
X137071917Y-98548629D01*
X137039514Y-98548999D01*
X137025913Y-98548407D01*
X136993658Y-98545221D01*
X136993653Y-98545221D01*
X136986474Y-98544512D01*
X136979322Y-98545477D01*
X136979314Y-98545478D01*
X136952833Y-98549055D01*
X136937655Y-98550163D01*
X135780191Y-98563391D01*
X135720223Y-98548705D01*
X135674770Y-98506920D01*
X135655101Y-98448397D01*
X135666092Y-98387642D01*
X135705018Y-98339719D01*
X135717920Y-98330172D01*
X135717919Y-98330172D01*
X135724453Y-98325338D01*
X135795559Y-98235944D01*
X136115838Y-97702911D01*
X139957284Y-97702911D01*
X139959755Y-97714175D01*
X140283000Y-98348578D01*
X140286134Y-98354024D01*
X140336742Y-98432453D01*
X140345228Y-98442901D01*
X140459968Y-98556313D01*
X140471274Y-98565146D01*
X140608686Y-98648804D01*
X140621731Y-98654795D01*
X140774733Y-98704509D01*
X140788799Y-98707328D01*
X140932874Y-98719089D01*
X140946284Y-98716455D01*
X140950000Y-98703306D01*
X140950000Y-97716325D01*
X140946549Y-97703449D01*
X140933674Y-97699999D01*
X139968445Y-97699999D01*
X139957284Y-97702911D01*
X136115838Y-97702911D01*
X136577618Y-96934380D01*
X136623165Y-96829629D01*
X136645708Y-96678788D01*
X136628444Y-96527251D01*
X136572545Y-96385347D01*
X136481825Y-96262745D01*
X136475464Y-96257686D01*
X136475463Y-96257684D01*
X136421242Y-96214555D01*
X136388658Y-96175178D01*
X136374724Y-96126005D01*
X136381806Y-96075391D01*
X137343916Y-93411576D01*
X137660436Y-93411576D01*
X137661073Y-93419672D01*
X137661073Y-93419675D01*
X137671764Y-93555520D01*
X137672402Y-93563623D01*
X137675114Y-93571282D01*
X137675115Y-93571285D01*
X137709176Y-93667469D01*
X137709180Y-93667478D01*
X137710532Y-93671296D01*
X137753038Y-93754719D01*
X138216454Y-94664227D01*
X138216458Y-94664233D01*
X138218296Y-94667841D01*
X138220589Y-94671177D01*
X138220593Y-94671184D01*
X138236593Y-94694463D01*
X138282994Y-94761977D01*
X138356869Y-94825072D01*
X138380525Y-94845276D01*
X138398969Y-94861028D01*
X138536628Y-94926689D01*
X138686591Y-94954483D01*
X138838638Y-94942517D01*
X138897937Y-94921517D01*
X138954937Y-94915392D01*
X139008605Y-94935562D01*
X139047462Y-94977718D01*
X139051872Y-94985576D01*
X139067718Y-95048461D01*
X139049653Y-95110744D01*
X138999535Y-95193065D01*
X138994859Y-95200747D01*
X138992628Y-95207610D01*
X138992625Y-95207619D01*
X138942875Y-95360735D01*
X138940644Y-95367602D01*
X138940057Y-95374792D01*
X138940056Y-95374798D01*
X138930942Y-95486467D01*
X138926372Y-95542462D01*
X138927458Y-95549591D01*
X138927459Y-95549599D01*
X138951787Y-95709208D01*
X138951788Y-95709215D01*
X138952808Y-95715901D01*
X138955251Y-95722210D01*
X138955252Y-95722214D01*
X138988977Y-95809313D01*
X138988981Y-95809323D01*
X138990116Y-95812253D01*
X138991542Y-95815052D01*
X138991544Y-95815056D01*
X139340534Y-96499987D01*
X139340540Y-96499997D01*
X139341967Y-96502798D01*
X139397988Y-96589617D01*
X139522765Y-96712949D01*
X139672619Y-96804182D01*
X139839474Y-96858397D01*
X139846672Y-96858984D01*
X139853754Y-96860404D01*
X139853389Y-96862221D01*
X139902287Y-96879289D01*
X139943737Y-96925985D01*
X139957175Y-96986961D01*
X139942353Y-97036254D01*
X139944116Y-97037064D01*
X139935113Y-97056667D01*
X139893077Y-97186039D01*
X139892187Y-97197350D01*
X139903218Y-97199999D01*
X141326000Y-97199999D01*
X141388000Y-97216612D01*
X141433387Y-97261999D01*
X141450000Y-97323999D01*
X141450000Y-98527234D01*
X141452912Y-98538394D01*
X141464176Y-98535923D01*
X142161128Y-98180808D01*
X142212554Y-98167389D01*
X142264875Y-98176732D01*
X142308479Y-98207121D01*
X142335354Y-98252974D01*
X142369719Y-98358739D01*
X142372821Y-98368284D01*
X142376068Y-98373908D01*
X142376069Y-98373910D01*
X142463717Y-98525722D01*
X142467467Y-98532216D01*
X142471811Y-98537041D01*
X142471813Y-98537043D01*
X142581921Y-98659330D01*
X142594129Y-98672888D01*
X142599387Y-98676708D01*
X142599388Y-98676709D01*
X142633064Y-98701176D01*
X142747270Y-98784151D01*
X142920197Y-98861144D01*
X143105354Y-98900500D01*
X143288143Y-98900500D01*
X143294646Y-98900500D01*
X143479803Y-98861144D01*
X143652730Y-98784151D01*
X143805871Y-98672888D01*
X143932533Y-98532216D01*
X144027179Y-98368284D01*
X144085674Y-98188256D01*
X144105460Y-98000000D01*
X144085674Y-97811744D01*
X144027179Y-97631716D01*
X143932533Y-97467784D01*
X143826389Y-97349900D01*
X143810220Y-97331942D01*
X143810218Y-97331940D01*
X143805871Y-97327112D01*
X143800613Y-97323292D01*
X143800611Y-97323290D01*
X143657988Y-97219669D01*
X143657987Y-97219668D01*
X143652730Y-97215849D01*
X143645563Y-97212658D01*
X143643415Y-97211255D01*
X143641166Y-97209957D01*
X143641237Y-97209833D01*
X143612567Y-97191113D01*
X143588000Y-97160306D01*
X142968546Y-96062183D01*
X147001886Y-96062183D01*
X147001910Y-96073333D01*
X147006058Y-96091297D01*
X147010885Y-96104803D01*
X147082252Y-96248992D01*
X147090064Y-96261021D01*
X147193045Y-96385211D01*
X147202716Y-96394577D01*
X147276414Y-96451812D01*
X147281599Y-96455431D01*
X148036332Y-96927039D01*
X148047377Y-96930363D01*
X148050411Y-96919235D01*
X148050411Y-96076025D01*
X148046960Y-96063149D01*
X148034085Y-96059699D01*
X147012755Y-96059699D01*
X147001886Y-96062183D01*
X142968546Y-96062183D01*
X142777898Y-95724217D01*
X142771734Y-95711689D01*
X142759562Y-95682973D01*
X142759559Y-95682969D01*
X142756743Y-95676324D01*
X142705530Y-95606620D01*
X142654764Y-95536988D01*
X142653698Y-95536075D01*
X142652865Y-95534941D01*
X142587334Y-95479247D01*
X142586985Y-95478949D01*
X142526803Y-95427417D01*
X142526802Y-95427416D01*
X142521502Y-95422878D01*
X142520249Y-95422233D01*
X142519181Y-95421325D01*
X142512981Y-95418162D01*
X142512978Y-95418160D01*
X142442386Y-95382148D01*
X142441981Y-95381941D01*
X142371656Y-95345739D01*
X142371657Y-95345739D01*
X142365516Y-95342578D01*
X142364154Y-95342240D01*
X142362900Y-95341601D01*
X142356191Y-95339966D01*
X142356188Y-95339965D01*
X142279252Y-95321219D01*
X142278807Y-95321110D01*
X142198221Y-95301158D01*
X142198217Y-95301157D01*
X142195215Y-95300414D01*
X142194135Y-95300402D01*
X142192851Y-95300165D01*
X141434262Y-95115324D01*
X141386684Y-95092098D01*
X141353132Y-95051144D01*
X141353004Y-95050893D01*
X141206349Y-94763065D01*
X141175405Y-94702334D01*
X141175402Y-94702330D01*
X141173973Y-94699524D01*
X141117952Y-94612705D01*
X140993175Y-94489373D01*
X140843321Y-94398140D01*
X140836453Y-94395908D01*
X140836448Y-94395906D01*
X140683334Y-94346156D01*
X140683329Y-94346155D01*
X140676466Y-94343925D01*
X140669271Y-94343337D01*
X140669268Y-94343337D01*
X140501606Y-94329652D01*
X140501754Y-94327836D01*
X140457326Y-94318986D01*
X140412395Y-94284182D01*
X140387712Y-94232987D01*
X140388461Y-94176158D01*
X140414484Y-94125635D01*
X140492446Y-94034354D01*
X140558106Y-93896694D01*
X140585900Y-93746732D01*
X140573934Y-93594685D01*
X140535804Y-93487012D01*
X140028040Y-92490467D01*
X139963342Y-92396331D01*
X139847367Y-92297280D01*
X139840032Y-92293781D01*
X139840030Y-92293780D01*
X139717044Y-92235118D01*
X139717043Y-92235117D01*
X139709708Y-92231619D01*
X139701719Y-92230138D01*
X139701718Y-92230138D01*
X139567732Y-92205305D01*
X139567729Y-92205304D01*
X139559745Y-92203825D01*
X139551648Y-92204462D01*
X139551645Y-92204462D01*
X139415800Y-92215153D01*
X139415797Y-92215153D01*
X139407698Y-92215791D01*
X139400039Y-92218502D01*
X139400035Y-92218504D01*
X139303851Y-92252565D01*
X139303836Y-92252571D01*
X139300025Y-92253921D01*
X139296416Y-92255759D01*
X139296411Y-92255762D01*
X137950691Y-92941440D01*
X137950678Y-92941447D01*
X137947078Y-92943282D01*
X137943736Y-92945578D01*
X137943734Y-92945580D01*
X137859638Y-93003376D01*
X137859633Y-93003380D01*
X137852942Y-93007979D01*
X137847666Y-93014155D01*
X137847664Y-93014158D01*
X137759169Y-93117772D01*
X137759166Y-93117776D01*
X137753890Y-93123954D01*
X137750393Y-93131284D01*
X137750390Y-93131290D01*
X137691727Y-93254280D01*
X137691724Y-93254287D01*
X137688230Y-93261614D01*
X137686750Y-93269598D01*
X137686749Y-93269602D01*
X137661916Y-93403588D01*
X137660436Y-93411576D01*
X137343916Y-93411576D01*
X137994156Y-91611243D01*
X138017809Y-91571319D01*
X138054482Y-91542886D01*
X138663804Y-91232422D01*
X141937268Y-91232422D01*
X141937905Y-91240518D01*
X141937905Y-91240521D01*
X141948575Y-91376095D01*
X141949234Y-91384469D01*
X141951946Y-91392128D01*
X141951947Y-91392131D01*
X141986008Y-91488315D01*
X141986012Y-91488324D01*
X141987364Y-91492142D01*
X142043397Y-91602114D01*
X142493286Y-92485073D01*
X142493290Y-92485079D01*
X142495128Y-92488687D01*
X142497421Y-92492023D01*
X142497425Y-92492030D01*
X142528565Y-92537338D01*
X142559826Y-92582823D01*
X142675801Y-92681874D01*
X142813460Y-92747535D01*
X142963423Y-92775329D01*
X143115470Y-92763363D01*
X143223143Y-92725233D01*
X144576090Y-92035872D01*
X144670226Y-91971175D01*
X144769278Y-91855200D01*
X144769839Y-91855679D01*
X144794949Y-91829394D01*
X144836685Y-91810001D01*
X149702303Y-90576422D01*
X149763860Y-90576579D01*
X149817759Y-90606322D01*
X149850711Y-90658320D01*
X149854596Y-90719757D01*
X149828456Y-90775492D01*
X149775409Y-90839844D01*
X149775400Y-90839856D01*
X149772826Y-90842979D01*
X149770684Y-90846406D01*
X149770676Y-90846418D01*
X149182287Y-91788037D01*
X149182277Y-91788054D01*
X149180139Y-91791477D01*
X149178459Y-91795161D01*
X149178458Y-91795165D01*
X149136141Y-91888019D01*
X149136139Y-91888022D01*
X149132770Y-91895417D01*
X149131428Y-91903432D01*
X149131427Y-91903438D01*
X149109651Y-92033573D01*
X149107598Y-92045842D01*
X149108376Y-92053924D01*
X149108376Y-92053930D01*
X149121436Y-92189563D01*
X149121437Y-92189567D01*
X149122216Y-92197657D01*
X149125062Y-92205269D01*
X149125063Y-92205273D01*
X149172781Y-92332899D01*
X149175629Y-92340515D01*
X149180347Y-92347130D01*
X149180349Y-92347133D01*
X149259476Y-92458067D01*
X149259478Y-92458069D01*
X149264195Y-92464682D01*
X149270463Y-92469849D01*
X149270465Y-92469851D01*
X149308014Y-92500804D01*
X149342709Y-92546703D01*
X149352953Y-92603320D01*
X149336540Y-92658465D01*
X149312740Y-92699706D01*
X149267038Y-92745288D01*
X149204619Y-92761725D01*
X149099882Y-92761115D01*
X149092665Y-92761073D01*
X149085638Y-92762695D01*
X149085631Y-92762696D01*
X148928753Y-92798914D01*
X148928744Y-92798917D01*
X148921719Y-92800539D01*
X148915249Y-92803741D01*
X148915247Y-92803742D01*
X148856370Y-92832884D01*
X148764484Y-92878364D01*
X148758934Y-92882965D01*
X148758925Y-92882972D01*
X148634645Y-92986029D01*
X148634639Y-92986034D01*
X148629433Y-92990352D01*
X148625282Y-92995695D01*
X148625279Y-92995700D01*
X148567996Y-93069462D01*
X148567990Y-93069469D01*
X148566059Y-93071957D01*
X148564388Y-93074630D01*
X148564386Y-93074634D01*
X148233813Y-93603663D01*
X148155363Y-93729209D01*
X148153976Y-93732030D01*
X148153968Y-93732046D01*
X148112785Y-93815862D01*
X148112782Y-93815869D01*
X148109798Y-93821943D01*
X148108198Y-93828520D01*
X148108197Y-93828525D01*
X148070053Y-93985396D01*
X148068346Y-93992418D01*
X148068303Y-93999635D01*
X148068303Y-93999643D01*
X148067729Y-94098320D01*
X148067324Y-94167857D01*
X148068946Y-94174884D01*
X148068947Y-94174890D01*
X148105165Y-94331767D01*
X148105167Y-94331773D01*
X148106790Y-94338802D01*
X148109992Y-94345271D01*
X148112424Y-94352075D01*
X148110680Y-94352697D01*
X148121233Y-94403418D01*
X148102547Y-94462996D01*
X148057197Y-94505916D01*
X148007323Y-94518588D01*
X148007538Y-94520518D01*
X147986104Y-94522896D01*
X147829341Y-94559088D01*
X147815835Y-94563916D01*
X147671643Y-94635284D01*
X147659622Y-94643091D01*
X147535425Y-94746079D01*
X147526062Y-94755746D01*
X147468827Y-94829445D01*
X147465208Y-94834630D01*
X147057896Y-95486467D01*
X147054829Y-95491980D01*
X147028521Y-95545522D01*
X147026195Y-95556808D01*
X147037354Y-95559699D01*
X148426411Y-95559699D01*
X148488411Y-95576312D01*
X148533798Y-95621699D01*
X148550411Y-95683699D01*
X148550411Y-97081526D01*
X148553842Y-97094380D01*
X148566673Y-97097885D01*
X148600465Y-97098082D01*
X148614717Y-97096501D01*
X148771480Y-97060309D01*
X148784986Y-97055481D01*
X148929178Y-96984113D01*
X148941199Y-96976306D01*
X149065396Y-96873318D01*
X149074759Y-96863651D01*
X149131994Y-96789952D01*
X149135610Y-96784772D01*
X149200233Y-96681352D01*
X149240086Y-96641652D01*
X149293378Y-96623644D01*
X149349143Y-96631036D01*
X149395904Y-96662305D01*
X149424038Y-96711017D01*
X149725793Y-97704288D01*
X149731141Y-97741522D01*
X149725079Y-97778647D01*
X149716334Y-97805563D01*
X149714326Y-97811744D01*
X149713648Y-97818194D01*
X149713646Y-97818204D01*
X149697198Y-97974706D01*
X149694540Y-98000000D01*
X149695219Y-98006460D01*
X149713646Y-98181795D01*
X149713647Y-98181803D01*
X149714326Y-98188256D01*
X149716331Y-98194428D01*
X149716333Y-98194435D01*
X149770120Y-98359971D01*
X149772821Y-98368284D01*
X149776068Y-98373908D01*
X149776069Y-98373910D01*
X149863717Y-98525722D01*
X149867467Y-98532216D01*
X149871811Y-98537041D01*
X149871813Y-98537043D01*
X149981921Y-98659330D01*
X149994129Y-98672888D01*
X149999387Y-98676708D01*
X149999388Y-98676709D01*
X150033064Y-98701176D01*
X150147270Y-98784151D01*
X150320197Y-98861144D01*
X150505354Y-98900500D01*
X150688143Y-98900500D01*
X150694646Y-98900500D01*
X150879803Y-98861144D01*
X151052730Y-98784151D01*
X151205871Y-98672888D01*
X151332533Y-98532216D01*
X151427179Y-98368284D01*
X151485674Y-98188256D01*
X151505460Y-98000000D01*
X151485674Y-97811744D01*
X151427179Y-97631716D01*
X151332533Y-97467784D01*
X151205871Y-97327112D01*
X151200611Y-97323290D01*
X151196208Y-97319325D01*
X151160536Y-97263222D01*
X150416889Y-94815400D01*
X150412611Y-94763065D01*
X150430376Y-94713654D01*
X150644623Y-94370789D01*
X150690188Y-94278055D01*
X150731640Y-94107580D01*
X150732662Y-93932141D01*
X150693196Y-93761196D01*
X150689990Y-93754719D01*
X150618575Y-93610435D01*
X150618574Y-93610434D01*
X150615370Y-93603960D01*
X150610757Y-93598398D01*
X150607853Y-93593925D01*
X150587891Y-93529648D01*
X150604448Y-93464411D01*
X150613425Y-93448855D01*
X150650885Y-93408440D01*
X150702157Y-93388246D01*
X150743670Y-93391279D01*
X150743992Y-93389361D01*
X150894417Y-93414533D01*
X151046232Y-93399916D01*
X151189090Y-93346503D01*
X151313256Y-93257936D01*
X151385912Y-93169797D01*
X151978599Y-92221299D01*
X151986076Y-92204893D01*
X155241540Y-92204893D01*
X155248238Y-92211709D01*
X156489389Y-92987267D01*
X156498450Y-92990299D01*
X156498533Y-92980745D01*
X156268042Y-91982372D01*
X156261784Y-91970602D01*
X156248465Y-91970137D01*
X155250090Y-92200630D01*
X155241540Y-92204893D01*
X151986076Y-92204893D01*
X152025968Y-92117359D01*
X152051140Y-91966934D01*
X152041796Y-91869894D01*
X156755226Y-91869894D01*
X157017070Y-93004067D01*
X157023833Y-93016144D01*
X157037634Y-93015118D01*
X157053595Y-93009151D01*
X157067824Y-93001585D01*
X157178653Y-92922534D01*
X157190439Y-92911542D01*
X157255279Y-92832884D01*
X157260009Y-92826313D01*
X157848366Y-91884746D01*
X157852197Y-91877616D01*
X157894470Y-91784856D01*
X157899182Y-91769442D01*
X157921650Y-91635179D01*
X157922213Y-91619075D01*
X157920579Y-91602114D01*
X157915451Y-91589259D01*
X157901633Y-91588474D01*
X156767461Y-91850317D01*
X156755691Y-91856575D01*
X156755226Y-91869894D01*
X152041796Y-91869894D01*
X152036522Y-91815119D01*
X151998788Y-91714197D01*
X154981236Y-91714197D01*
X154982869Y-91731157D01*
X154987997Y-91744011D01*
X155001817Y-91744796D01*
X156135987Y-91482953D01*
X156147757Y-91476695D01*
X156148222Y-91463376D01*
X155891763Y-90352525D01*
X156404915Y-90352525D01*
X156635406Y-91350898D01*
X156641664Y-91362668D01*
X156654983Y-91363133D01*
X157653358Y-91132640D01*
X157661908Y-91128377D01*
X157655210Y-91121561D01*
X156414059Y-90346003D01*
X156404998Y-90342971D01*
X156404915Y-90352525D01*
X155891763Y-90352525D01*
X155886378Y-90329202D01*
X155879615Y-90317126D01*
X155865814Y-90318152D01*
X155849853Y-90324120D01*
X155835625Y-90331685D01*
X155724796Y-90410737D01*
X155713010Y-90421729D01*
X155648170Y-90500387D01*
X155643440Y-90506958D01*
X155055083Y-91448525D01*
X155051252Y-91455655D01*
X155008979Y-91548415D01*
X155004267Y-91563829D01*
X154981799Y-91698092D01*
X154981236Y-91714197D01*
X151998788Y-91714197D01*
X151983109Y-91672261D01*
X151956659Y-91635179D01*
X151899261Y-91554708D01*
X151899259Y-91554706D01*
X151894543Y-91548094D01*
X151806404Y-91475438D01*
X151802968Y-91473291D01*
X151802964Y-91473288D01*
X150522125Y-90672932D01*
X150522121Y-90672930D01*
X150518687Y-90670784D01*
X150414889Y-90623480D01*
X150367601Y-90585693D01*
X150343835Y-90530022D01*
X150349255Y-90469734D01*
X150382569Y-90419195D01*
X150435834Y-90390450D01*
X151733890Y-90061353D01*
X151783518Y-90059040D01*
X151830070Y-90076392D01*
X152441776Y-90458628D01*
X152545717Y-90505997D01*
X152696142Y-90531169D01*
X152847957Y-90516552D01*
X152990815Y-90463139D01*
X153114981Y-90374572D01*
X153187637Y-90286433D01*
X153780324Y-89337935D01*
X153827693Y-89233995D01*
X153852865Y-89083570D01*
X153838247Y-88931755D01*
X153784834Y-88788897D01*
X153696268Y-88664730D01*
X153608129Y-88592074D01*
X153604693Y-88589927D01*
X153604689Y-88589924D01*
X152323850Y-87789568D01*
X152323846Y-87789566D01*
X152320412Y-87787420D01*
X152316725Y-87785739D01*
X152316720Y-87785737D01*
X152223865Y-87743420D01*
X152223860Y-87743418D01*
X152216471Y-87740051D01*
X152208457Y-87738709D01*
X152208454Y-87738709D01*
X152074061Y-87716220D01*
X152074059Y-87716219D01*
X152066046Y-87714879D01*
X152057963Y-87715657D01*
X152057957Y-87715657D01*
X151922323Y-87728716D01*
X151922316Y-87728717D01*
X151914231Y-87729496D01*
X151906618Y-87732342D01*
X151906615Y-87732343D01*
X151778986Y-87780062D01*
X151778982Y-87780063D01*
X151771373Y-87782909D01*
X151764758Y-87787627D01*
X151764755Y-87787629D01*
X151653822Y-87866757D01*
X151653819Y-87866759D01*
X151647207Y-87871476D01*
X151642043Y-87877739D01*
X151642040Y-87877743D01*
X151577128Y-87956488D01*
X151577123Y-87956494D01*
X151574551Y-87959615D01*
X151572409Y-87963042D01*
X151572401Y-87963054D01*
X151160166Y-88622768D01*
X151128091Y-88657232D01*
X151085482Y-88677255D01*
X144438278Y-90362520D01*
X144385703Y-90364338D01*
X144337106Y-90344195D01*
X144305834Y-90310651D01*
X144304872Y-90311313D01*
X144240174Y-90217177D01*
X144124199Y-90118126D01*
X144116864Y-90114627D01*
X144116862Y-90114626D01*
X143993876Y-90055964D01*
X143993875Y-90055963D01*
X143986540Y-90052465D01*
X143978551Y-90050984D01*
X143978550Y-90050984D01*
X143844564Y-90026151D01*
X143844561Y-90026150D01*
X143836577Y-90024671D01*
X143828480Y-90025308D01*
X143828477Y-90025308D01*
X143692632Y-90035999D01*
X143692629Y-90035999D01*
X143684530Y-90036637D01*
X143676871Y-90039348D01*
X143676867Y-90039350D01*
X143580683Y-90073411D01*
X143580668Y-90073417D01*
X143576857Y-90074767D01*
X143573248Y-90076605D01*
X143573243Y-90076608D01*
X142227523Y-90762286D01*
X142227510Y-90762293D01*
X142223910Y-90764128D01*
X142220568Y-90766424D01*
X142220566Y-90766426D01*
X142136470Y-90824222D01*
X142136465Y-90824226D01*
X142129774Y-90828825D01*
X142124498Y-90835001D01*
X142124496Y-90835004D01*
X142036001Y-90938618D01*
X142035998Y-90938622D01*
X142030722Y-90944800D01*
X142027225Y-90952130D01*
X142027222Y-90952136D01*
X141968559Y-91075126D01*
X141968556Y-91075133D01*
X141965062Y-91082460D01*
X141963582Y-91090444D01*
X141963581Y-91090448D01*
X141946371Y-91183305D01*
X141937268Y-91232422D01*
X138663804Y-91232422D01*
X138755690Y-91185604D01*
X138849826Y-91120907D01*
X138948878Y-91004932D01*
X139014538Y-90867272D01*
X139042332Y-90717310D01*
X139030366Y-90565263D01*
X138992236Y-90457590D01*
X138598649Y-89685131D01*
X141694517Y-89685131D01*
X141703808Y-89682901D01*
X143007833Y-89018467D01*
X143015099Y-89012262D01*
X143006952Y-89007269D01*
X142032466Y-88690640D01*
X142019155Y-88689943D01*
X142011896Y-88701121D01*
X141695267Y-89675604D01*
X141694517Y-89685131D01*
X138598649Y-89685131D01*
X138484472Y-89461045D01*
X138419774Y-89366909D01*
X138303799Y-89267858D01*
X138296464Y-89264359D01*
X138296462Y-89264358D01*
X138173476Y-89205696D01*
X138173475Y-89205695D01*
X138166140Y-89202197D01*
X138158151Y-89200716D01*
X138158150Y-89200716D01*
X138024164Y-89175883D01*
X138024161Y-89175882D01*
X138016177Y-89174403D01*
X138008080Y-89175040D01*
X138008077Y-89175040D01*
X137872232Y-89185731D01*
X137872229Y-89185731D01*
X137864130Y-89186369D01*
X137856471Y-89189080D01*
X137856467Y-89189082D01*
X137760283Y-89223143D01*
X137760268Y-89223149D01*
X137756457Y-89224499D01*
X137752848Y-89226337D01*
X137752843Y-89226340D01*
X136407123Y-89912018D01*
X136407110Y-89912025D01*
X136403510Y-89913860D01*
X136400168Y-89916156D01*
X136400166Y-89916158D01*
X136316070Y-89973954D01*
X136316065Y-89973958D01*
X136309374Y-89978557D01*
X136304098Y-89984733D01*
X136304096Y-89984736D01*
X136215601Y-90088350D01*
X136215598Y-90088354D01*
X136210322Y-90094532D01*
X136206825Y-90101862D01*
X136206822Y-90101868D01*
X136148159Y-90224858D01*
X136148156Y-90224865D01*
X136144662Y-90232192D01*
X136143182Y-90240176D01*
X136143181Y-90240180D01*
X136118348Y-90374166D01*
X136116868Y-90382154D01*
X136117505Y-90390250D01*
X136117505Y-90390253D01*
X136123106Y-90461416D01*
X136128834Y-90534201D01*
X136131546Y-90541860D01*
X136131547Y-90541863D01*
X136165608Y-90638047D01*
X136165612Y-90638056D01*
X136166964Y-90641874D01*
X136267835Y-90839844D01*
X136482800Y-91261738D01*
X136496074Y-91310310D01*
X136488941Y-91360156D01*
X134980031Y-95537905D01*
X134952336Y-95582196D01*
X134908858Y-95611151D01*
X134892265Y-95617687D01*
X134892256Y-95617691D01*
X134884701Y-95620668D01*
X134878174Y-95625497D01*
X134878168Y-95625501D01*
X134768630Y-95706554D01*
X134768624Y-95706559D01*
X134762099Y-95711388D01*
X134757043Y-95717743D01*
X134757039Y-95717748D01*
X134693522Y-95797601D01*
X134693513Y-95797613D01*
X134690993Y-95800782D01*
X134688908Y-95804251D01*
X134688901Y-95804262D01*
X133911027Y-97098861D01*
X133911020Y-97098872D01*
X133908934Y-97102346D01*
X133907318Y-97106062D01*
X133907310Y-97106078D01*
X133866628Y-97199642D01*
X133866626Y-97199645D01*
X133863387Y-97207097D01*
X133862186Y-97215127D01*
X133862185Y-97215134D01*
X133846022Y-97323290D01*
X133840844Y-97357938D01*
X133841763Y-97366005D01*
X133841763Y-97366012D01*
X133846577Y-97408263D01*
X133858108Y-97509475D01*
X133914007Y-97651379D01*
X133918838Y-97657908D01*
X133918840Y-97657911D01*
X133999894Y-97767450D01*
X134004727Y-97773981D01*
X134094120Y-97845087D01*
X134097589Y-97847171D01*
X134097590Y-97847172D01*
X134923803Y-98343611D01*
X134968042Y-98389158D01*
X134983936Y-98450632D01*
X134967317Y-98511913D01*
X134922544Y-98556935D01*
X134861355Y-98573892D01*
X131128107Y-98616558D01*
X131086477Y-98609865D01*
X131049502Y-98589612D01*
X131005880Y-98554913D01*
X130516199Y-98260683D01*
X130050666Y-97980962D01*
X130050661Y-97980959D01*
X130047182Y-97978869D01*
X130043459Y-97977250D01*
X130043449Y-97977245D01*
X129949885Y-97936563D01*
X129949884Y-97936562D01*
X129942431Y-97933322D01*
X129934398Y-97932121D01*
X129934393Y-97932120D01*
X129799627Y-97911980D01*
X129799626Y-97911979D01*
X129791590Y-97910779D01*
X129783522Y-97911698D01*
X129783516Y-97911698D01*
X129648126Y-97927124D01*
X129648124Y-97927124D01*
X129640053Y-97928044D01*
X129632499Y-97931019D01*
X129632493Y-97931021D01*
X129515150Y-97977245D01*
X129498149Y-97983942D01*
X129491623Y-97988770D01*
X129491619Y-97988773D01*
X129382078Y-98069828D01*
X129382072Y-98069833D01*
X129375547Y-98074662D01*
X129370491Y-98081017D01*
X129370487Y-98081022D01*
X129306970Y-98160875D01*
X129306961Y-98160887D01*
X129304441Y-98164056D01*
X129302356Y-98167525D01*
X129302349Y-98167536D01*
X128524475Y-99462135D01*
X128524468Y-99462146D01*
X128522382Y-99465620D01*
X128520766Y-99469336D01*
X128520758Y-99469352D01*
X128480076Y-99562916D01*
X128480074Y-99562919D01*
X128476835Y-99570371D01*
X128475634Y-99578401D01*
X128475633Y-99578408D01*
X128455493Y-99713174D01*
X128454292Y-99721212D01*
X128455211Y-99729279D01*
X128455211Y-99729286D01*
X128468351Y-99844620D01*
X128471556Y-99872749D01*
X128527455Y-100014653D01*
X128532286Y-100021182D01*
X128532288Y-100021185D01*
X128609393Y-100125387D01*
X128618175Y-100137255D01*
X128707568Y-100208361D01*
X128711037Y-100210445D01*
X128711038Y-100210446D01*
X129312508Y-100571846D01*
X129666266Y-100784405D01*
X129669994Y-100786026D01*
X129669998Y-100786028D01*
X129686472Y-100793191D01*
X129771017Y-100829952D01*
X129921858Y-100852495D01*
X130073395Y-100835230D01*
X130215299Y-100779332D01*
X130337901Y-100688612D01*
X130409007Y-100599218D01*
X130659734Y-100181936D01*
X130704347Y-100138228D01*
X130764602Y-100121809D01*
X131881746Y-100109042D01*
X131944710Y-100125387D01*
X131990735Y-100171358D01*
X132007156Y-100234303D01*
X131989451Y-100296899D01*
X131438844Y-101213264D01*
X131438838Y-101213275D01*
X131436751Y-101216749D01*
X131435135Y-101220465D01*
X131435127Y-101220481D01*
X131394445Y-101314045D01*
X131394443Y-101314048D01*
X131391204Y-101321500D01*
X131390003Y-101329530D01*
X131390002Y-101329537D01*
X131370142Y-101462431D01*
X131368661Y-101472341D01*
X131369580Y-101480408D01*
X131369580Y-101480415D01*
X131383575Y-101603252D01*
X131385925Y-101623878D01*
X131388904Y-101631440D01*
X131390117Y-101636305D01*
X131387583Y-101705078D01*
X131348770Y-101761908D01*
X131288902Y-101787872D01*
X131288939Y-101788020D01*
X131288050Y-101788241D01*
X131288046Y-101788242D01*
X131281944Y-101789763D01*
X131281936Y-101789765D01*
X131125715Y-101828715D01*
X131125707Y-101828717D01*
X131118708Y-101830463D01*
X131112299Y-101833775D01*
X131112290Y-101833779D01*
X130969270Y-101907705D01*
X130962855Y-101911021D01*
X130957383Y-101915721D01*
X130957377Y-101915726D01*
X130834910Y-102020940D01*
X130834905Y-102020944D01*
X130829779Y-102025349D01*
X130825727Y-102030758D01*
X130825725Y-102030761D01*
X130769724Y-102105528D01*
X130769717Y-102105537D01*
X130767838Y-102108047D01*
X130766218Y-102110742D01*
X130766216Y-102110746D01*
X130587342Y-102408441D01*
X130549313Y-102448097D01*
X130497884Y-102467428D01*
X130163079Y-102513296D01*
X130120095Y-102511655D01*
X130080259Y-102495427D01*
X129463971Y-102108047D01*
X129054813Y-101850862D01*
X129013417Y-101807880D01*
X129002958Y-101789765D01*
X128939977Y-101680677D01*
X128935783Y-101673413D01*
X128935781Y-101673410D01*
X128932533Y-101667784D01*
X128870526Y-101598919D01*
X128810220Y-101531942D01*
X128810219Y-101531941D01*
X128805871Y-101527112D01*
X128800613Y-101523292D01*
X128800611Y-101523290D01*
X128657988Y-101419669D01*
X128657987Y-101419668D01*
X128652730Y-101415849D01*
X128618773Y-101400730D01*
X128485745Y-101341501D01*
X128485740Y-101341499D01*
X128479803Y-101338856D01*
X128473444Y-101337504D01*
X128473440Y-101337503D01*
X128301008Y-101300852D01*
X128301005Y-101300851D01*
X128294646Y-101299500D01*
X128105354Y-101299500D01*
X128098995Y-101300851D01*
X128098991Y-101300852D01*
X127926559Y-101337503D01*
X127926552Y-101337505D01*
X127920197Y-101338856D01*
X127914262Y-101341498D01*
X127914254Y-101341501D01*
X127753207Y-101413205D01*
X127753202Y-101413207D01*
X127747270Y-101415849D01*
X127742016Y-101419665D01*
X127742011Y-101419669D01*
X127599388Y-101523290D01*
X127599381Y-101523295D01*
X127594129Y-101527112D01*
X127589784Y-101531937D01*
X127589779Y-101531942D01*
X127471813Y-101662956D01*
X127471808Y-101662962D01*
X127467467Y-101667784D01*
X127464222Y-101673404D01*
X127464218Y-101673410D01*
X127376069Y-101826089D01*
X127376066Y-101826094D01*
X127372821Y-101831716D01*
X127370815Y-101837888D01*
X127370813Y-101837894D01*
X127316333Y-102005564D01*
X127316331Y-102005573D01*
X127314326Y-102011744D01*
X127313648Y-102018194D01*
X127313646Y-102018204D01*
X127301133Y-102137269D01*
X127294540Y-102200000D01*
X126862942Y-102200000D01*
X126859557Y-102159688D01*
X126859140Y-102151449D01*
X126857587Y-102061304D01*
X126850569Y-101654047D01*
X126850695Y-101645975D01*
X126875912Y-101124887D01*
X126876546Y-101117017D01*
X126938110Y-100571844D01*
X126939212Y-100564219D01*
X126947304Y-100518347D01*
X127039702Y-99994534D01*
X127041195Y-99987338D01*
X127183184Y-99392800D01*
X127185017Y-99385992D01*
X127371237Y-98765756D01*
X127373042Y-98760229D01*
X127408202Y-98660664D01*
X127408997Y-98658483D01*
X127445263Y-98561758D01*
X127446296Y-98559003D01*
X127447190Y-98556690D01*
X127447340Y-98556313D01*
X127486180Y-98458722D01*
X127487074Y-98456541D01*
X127527875Y-98359906D01*
X127528902Y-98357546D01*
X127536881Y-98339719D01*
X127571595Y-98262163D01*
X127572651Y-98259868D01*
X127617367Y-98165526D01*
X127618530Y-98163143D01*
X127642139Y-98116048D01*
X127665351Y-98069744D01*
X127666604Y-98067315D01*
X127715712Y-97974572D01*
X127717031Y-97972147D01*
X127768497Y-97879973D01*
X127769835Y-97877635D01*
X127823893Y-97785664D01*
X127825220Y-97783463D01*
X127881916Y-97691665D01*
X127883241Y-97689570D01*
X127942850Y-97597544D01*
X127944089Y-97595674D01*
X128006540Y-97503559D01*
X128007910Y-97501583D01*
X128073308Y-97409230D01*
X128074692Y-97407315D01*
X128143315Y-97314344D01*
X128144557Y-97312694D01*
X128217082Y-97218234D01*
X128217082Y-97218233D01*
X128219492Y-97220083D01*
X128219650Y-97219881D01*
X128217201Y-97218076D01*
X128299744Y-97106078D01*
X128762208Y-96478586D01*
X128763229Y-96477222D01*
X129230654Y-95862807D01*
X130989588Y-95862807D01*
X130990854Y-95876589D01*
X130997101Y-95892445D01*
X131004912Y-95906536D01*
X131085885Y-96015966D01*
X131097083Y-96027562D01*
X131176854Y-96091015D01*
X131183515Y-96095636D01*
X132135202Y-96667468D01*
X132142402Y-96671176D01*
X132235884Y-96711822D01*
X132251377Y-96716265D01*
X132386012Y-96736386D01*
X132402122Y-96736668D01*
X132419053Y-96734738D01*
X132431817Y-96729385D01*
X132432360Y-96715558D01*
X132150762Y-95586128D01*
X132144299Y-95574468D01*
X132130973Y-95574236D01*
X131001543Y-95855835D01*
X130989588Y-95862807D01*
X129230654Y-95862807D01*
X129533164Y-95465166D01*
X132635909Y-95465166D01*
X132883790Y-96459366D01*
X132888202Y-96467841D01*
X132894899Y-96461026D01*
X133648680Y-95206524D01*
X133651553Y-95197412D01*
X133642000Y-95197495D01*
X132647801Y-95445377D01*
X132636141Y-95451840D01*
X132635909Y-95465166D01*
X129533164Y-95465166D01*
X129533713Y-95464445D01*
X129534195Y-95463818D01*
X129632628Y-95337054D01*
X131006259Y-95337054D01*
X131015812Y-95336971D01*
X132010011Y-95089089D01*
X132021671Y-95082626D01*
X132021903Y-95069300D01*
X131774022Y-94075100D01*
X131769610Y-94066625D01*
X131762913Y-94073440D01*
X131009132Y-95327942D01*
X131006259Y-95337054D01*
X129632628Y-95337054D01*
X130013940Y-94845994D01*
X130561998Y-94149098D01*
X130562403Y-94148587D01*
X130562736Y-94148169D01*
X130824758Y-93818908D01*
X132225452Y-93818908D01*
X132507050Y-94948338D01*
X132513513Y-94959998D01*
X132526839Y-94960230D01*
X133656269Y-94678631D01*
X133668224Y-94671659D01*
X133666957Y-94657875D01*
X133660715Y-94642028D01*
X133652899Y-94627927D01*
X133571928Y-94518501D01*
X133560730Y-94506905D01*
X133480959Y-94443452D01*
X133474298Y-94438831D01*
X132522611Y-93866999D01*
X132515411Y-93863291D01*
X132421929Y-93822645D01*
X132406436Y-93818202D01*
X132271800Y-93798081D01*
X132255690Y-93797799D01*
X132238759Y-93799728D01*
X132225995Y-93805081D01*
X132225452Y-93818908D01*
X130824758Y-93818908D01*
X131182594Y-93369246D01*
X131182920Y-93368839D01*
X131877744Y-92505311D01*
X131880171Y-92502389D01*
X132542680Y-91729803D01*
X132547361Y-91724645D01*
X133246142Y-90997345D01*
X133251005Y-90992557D01*
X133308869Y-90938618D01*
X133983564Y-90309685D01*
X133988524Y-90305305D01*
X134751382Y-89667175D01*
X134756436Y-89663167D01*
X135545993Y-89070200D01*
X135551128Y-89066546D01*
X136363824Y-88519121D01*
X136369023Y-88515805D01*
X136874655Y-88211126D01*
X140394841Y-88211126D01*
X140405522Y-88346846D01*
X140408870Y-88362597D01*
X140442900Y-88458695D01*
X140446097Y-88466135D01*
X140950150Y-89455397D01*
X140954289Y-89462354D01*
X141012029Y-89546365D01*
X141022811Y-89558340D01*
X141126331Y-89646754D01*
X141139841Y-89655527D01*
X141155220Y-89662863D01*
X141168882Y-89665088D01*
X141176671Y-89653648D01*
X141536368Y-88546612D01*
X141537065Y-88533301D01*
X141525887Y-88526042D01*
X140546601Y-88207853D01*
X142175797Y-88207853D01*
X142186975Y-88215112D01*
X143294010Y-88574809D01*
X143307843Y-88575232D01*
X143314073Y-88562872D01*
X143317178Y-88546122D01*
X143318022Y-88530026D01*
X143307341Y-88394309D01*
X143303993Y-88378558D01*
X143269963Y-88282460D01*
X143266766Y-88275020D01*
X142762713Y-87285758D01*
X142758574Y-87278801D01*
X142700834Y-87194790D01*
X142690052Y-87182815D01*
X142586533Y-87094401D01*
X142573023Y-87085628D01*
X142557640Y-87078291D01*
X142543980Y-87076066D01*
X142536191Y-87087506D01*
X142176494Y-88194542D01*
X142175797Y-88207853D01*
X140546601Y-88207853D01*
X140418852Y-88166345D01*
X140405018Y-88165922D01*
X140398790Y-88178280D01*
X140395684Y-88195038D01*
X140394841Y-88211126D01*
X136874655Y-88211126D01*
X137201286Y-88014308D01*
X137206593Y-88011288D01*
X137732848Y-87728892D01*
X140697763Y-87728892D01*
X140705910Y-87733885D01*
X141680396Y-88050514D01*
X141693707Y-88051211D01*
X141700966Y-88040033D01*
X142017595Y-87065550D01*
X142018345Y-87056023D01*
X142009054Y-87058253D01*
X140705029Y-87722687D01*
X140697763Y-87728892D01*
X137732848Y-87728892D01*
X138054831Y-87556111D01*
X138060222Y-87553389D01*
X138920756Y-87144952D01*
X138926283Y-87142493D01*
X139795681Y-86781101D01*
X139801328Y-86778915D01*
X140675853Y-86464999D01*
X140681680Y-86463069D01*
X141557808Y-86196966D01*
X141563784Y-86195314D01*
X142437837Y-85977402D01*
X142444069Y-85976017D01*
X143312538Y-85806625D01*
X143318983Y-85805545D01*
X144178139Y-85685040D01*
X144184908Y-85684281D01*
X145031665Y-85612942D01*
X145037845Y-85612579D01*
X145861029Y-85584972D01*
X145866352Y-85584909D01*
X146655670Y-85592765D01*
G37*
%TD.AperFunction*%
%TD*%
M02*
