%TF.GenerationSoftware,KiCad,Pcbnew,(7.0.0)*%
%TF.CreationDate,2023-03-21T20:59:30-07:00*%
%TF.ProjectId,Ladder LEDs v1,4c616464-6572-4204-9c45-44732076312e,rev?*%
%TF.SameCoordinates,Original*%
%TF.FileFunction,Legend,Bot*%
%TF.FilePolarity,Positive*%
%FSLAX46Y46*%
G04 Gerber Fmt 4.6, Leading zero omitted, Abs format (unit mm)*
G04 Created by KiCad (PCBNEW (7.0.0)) date 2023-03-21 20:59:30*
%MOMM*%
%LPD*%
G01*
G04 APERTURE LIST*
%ADD10C,0.100000*%
%ADD11C,0.150000*%
%ADD12C,0.120000*%
G04 APERTURE END LIST*
D10*
%TO.C,J3*%
X137816093Y-104793432D02*
X137508585Y-105438135D01*
X137508585Y-105438135D02*
X137490064Y-105587577D01*
X137490064Y-105587577D02*
X137535023Y-105714538D01*
X137535023Y-105714538D02*
X137643463Y-105819020D01*
X137643463Y-105819020D02*
X137729424Y-105860021D01*
X137472251Y-104629427D02*
X136913507Y-104362920D01*
X136913507Y-104362920D02*
X137050365Y-104850266D01*
X137050365Y-104850266D02*
X136921424Y-104788765D01*
X136921424Y-104788765D02*
X136814963Y-104790744D01*
X136814963Y-104790744D02*
X136751482Y-104813223D01*
X136751482Y-104813223D02*
X136667501Y-104878683D01*
X136667501Y-104878683D02*
X136564998Y-105093585D01*
X136564998Y-105093585D02*
X136566978Y-105200046D01*
X136566978Y-105200046D02*
X136589457Y-105263527D01*
X136589457Y-105263527D02*
X136654917Y-105347508D01*
X136654917Y-105347508D02*
X136912799Y-105470511D01*
X136912799Y-105470511D02*
X137019260Y-105468532D01*
X137019260Y-105468532D02*
X137082741Y-105446052D01*
D11*
%TO.C,C5*%
X129019111Y-104097303D02*
X129084454Y-104081011D01*
X129084454Y-104081011D02*
X129198848Y-103983084D01*
X129198848Y-103983084D02*
X129247900Y-103901449D01*
X129247900Y-103901449D02*
X129280659Y-103754471D01*
X129280659Y-103754471D02*
X129248075Y-103623785D01*
X129248075Y-103623785D02*
X129190966Y-103533916D01*
X129190966Y-103533916D02*
X129052222Y-103394996D01*
X129052222Y-103394996D02*
X128929769Y-103321419D01*
X128929769Y-103321419D02*
X128741973Y-103264134D01*
X128741973Y-103264134D02*
X128635813Y-103255900D01*
X128635813Y-103255900D02*
X128505127Y-103288484D01*
X128505127Y-103288484D02*
X128390732Y-103386411D01*
X128390732Y-103386411D02*
X128341681Y-103468046D01*
X128341681Y-103468046D02*
X128308922Y-103615024D01*
X128308922Y-103615024D02*
X128325214Y-103680367D01*
X127777592Y-104406848D02*
X128022848Y-103998673D01*
X128022848Y-103998673D02*
X128455548Y-104203112D01*
X128455548Y-104203112D02*
X128390205Y-104219404D01*
X128390205Y-104219404D02*
X128300337Y-104276513D01*
X128300337Y-104276513D02*
X128177709Y-104480601D01*
X128177709Y-104480601D02*
X128169475Y-104586761D01*
X128169475Y-104586761D02*
X128185767Y-104652104D01*
X128185767Y-104652104D02*
X128242876Y-104741973D01*
X128242876Y-104741973D02*
X128446963Y-104864601D01*
X128446963Y-104864601D02*
X128553124Y-104872835D01*
X128553124Y-104872835D02*
X128618467Y-104856543D01*
X128618467Y-104856543D02*
X128708336Y-104799434D01*
X128708336Y-104799434D02*
X128830964Y-104595346D01*
X128830964Y-104595346D02*
X128839198Y-104489186D01*
X128839198Y-104489186D02*
X128822906Y-104423843D01*
D10*
%TO.C,U3*%
X154418631Y-89032744D02*
X154847613Y-88346229D01*
X154847613Y-88346229D02*
X154938465Y-88290697D01*
X154938465Y-88290697D02*
X155004082Y-88275548D01*
X155004082Y-88275548D02*
X155110083Y-88285633D01*
X155110083Y-88285633D02*
X155271616Y-88386570D01*
X155271616Y-88386570D02*
X155327148Y-88477422D01*
X155327148Y-88477422D02*
X155342297Y-88543039D01*
X155342297Y-88543039D02*
X155332212Y-88649040D01*
X155332212Y-88649040D02*
X154903230Y-89335555D01*
X155226295Y-89537429D02*
X155751278Y-89865474D01*
X155751278Y-89865474D02*
X155670469Y-89365768D01*
X155670469Y-89365768D02*
X155791619Y-89441471D01*
X155791619Y-89441471D02*
X155897619Y-89451556D01*
X155897619Y-89451556D02*
X155963237Y-89436407D01*
X155963237Y-89436407D02*
X156054089Y-89380875D01*
X156054089Y-89380875D02*
X156180260Y-89178959D01*
X156180260Y-89178959D02*
X156190345Y-89072958D01*
X156190345Y-89072958D02*
X156175196Y-89007341D01*
X156175196Y-89007341D02*
X156119664Y-88916489D01*
X156119664Y-88916489D02*
X155877364Y-88765084D01*
X155877364Y-88765084D02*
X155771364Y-88754998D01*
X155771364Y-88754998D02*
X155705746Y-88770147D01*
D11*
%TO.C,C2*%
X155285243Y-98259853D02*
X155336068Y-98304035D01*
X155336068Y-98304035D02*
X155481899Y-98341573D01*
X155481899Y-98341573D02*
X155576905Y-98334929D01*
X155576905Y-98334929D02*
X155716093Y-98277461D01*
X155716093Y-98277461D02*
X155804455Y-98175811D01*
X155804455Y-98175811D02*
X155845315Y-98077483D01*
X155845315Y-98077483D02*
X155879531Y-97884149D01*
X155879531Y-97884149D02*
X155869566Y-97741640D01*
X155869566Y-97741640D02*
X155808776Y-97554950D01*
X155808776Y-97554950D02*
X155754629Y-97463265D01*
X155754629Y-97463265D02*
X155652980Y-97374903D01*
X155652980Y-97374903D02*
X155507149Y-97337365D01*
X155507149Y-97337365D02*
X155412143Y-97344008D01*
X155412143Y-97344008D02*
X155272955Y-97401477D01*
X155272955Y-97401477D02*
X155228774Y-97452302D01*
X154848749Y-97478875D02*
X154797925Y-97434694D01*
X154797925Y-97434694D02*
X154699597Y-97393835D01*
X154699597Y-97393835D02*
X154462082Y-97410443D01*
X154462082Y-97410443D02*
X154370397Y-97464590D01*
X154370397Y-97464590D02*
X154326216Y-97515415D01*
X154326216Y-97515415D02*
X154285356Y-97613742D01*
X154285356Y-97613742D02*
X154292000Y-97708748D01*
X154292000Y-97708748D02*
X154349468Y-97847936D01*
X154349468Y-97847936D02*
X154959366Y-98378112D01*
X154959366Y-98378112D02*
X154341826Y-98421294D01*
D10*
%TO.C,U2*%
X163215774Y-100584080D02*
X164023326Y-100527610D01*
X164023326Y-100527610D02*
X164121653Y-100568470D01*
X164121653Y-100568470D02*
X164172478Y-100612651D01*
X164172478Y-100612651D02*
X164226625Y-100704336D01*
X164226625Y-100704336D02*
X164239912Y-100894348D01*
X164239912Y-100894348D02*
X164199052Y-100992676D01*
X164199052Y-100992676D02*
X164154871Y-101043501D01*
X164154871Y-101043501D02*
X164063186Y-101097647D01*
X164063186Y-101097647D02*
X163255635Y-101154117D01*
X163380536Y-101575001D02*
X163336355Y-101625825D01*
X163336355Y-101625825D02*
X163295495Y-101724153D01*
X163295495Y-101724153D02*
X163312104Y-101961668D01*
X163312104Y-101961668D02*
X163366251Y-102053353D01*
X163366251Y-102053353D02*
X163417075Y-102097534D01*
X163417075Y-102097534D02*
X163515403Y-102138394D01*
X163515403Y-102138394D02*
X163610409Y-102131750D01*
X163610409Y-102131750D02*
X163749597Y-102074282D01*
X163749597Y-102074282D02*
X164279772Y-101464384D01*
X164279772Y-101464384D02*
X164322955Y-102081924D01*
D11*
%TO.C,C6*%
X147444484Y-106253962D02*
X147507766Y-106230929D01*
X147507766Y-106230929D02*
X147611298Y-106121581D01*
X147611298Y-106121581D02*
X147651547Y-106035266D01*
X147651547Y-106035266D02*
X147668763Y-105885669D01*
X147668763Y-105885669D02*
X147622698Y-105759105D01*
X147622698Y-105759105D02*
X147556507Y-105675698D01*
X147556507Y-105675698D02*
X147404002Y-105552042D01*
X147404002Y-105552042D02*
X147274530Y-105491668D01*
X147274530Y-105491668D02*
X147081775Y-105454327D01*
X147081775Y-105454327D02*
X146975335Y-105457235D01*
X146975335Y-105457235D02*
X146848771Y-105503300D01*
X146848771Y-105503300D02*
X146745239Y-105612648D01*
X146745239Y-105612648D02*
X146704990Y-105698963D01*
X146704990Y-105698963D02*
X146687773Y-105848560D01*
X146687773Y-105848560D02*
X146710806Y-105911843D01*
X146262247Y-106648429D02*
X146342746Y-106475798D01*
X146342746Y-106475798D02*
X146426152Y-106409608D01*
X146426152Y-106409608D02*
X146489435Y-106386575D01*
X146489435Y-106386575D02*
X146659157Y-106360634D01*
X146659157Y-106360634D02*
X146851911Y-106397975D01*
X146851911Y-106397975D02*
X147197171Y-106558973D01*
X147197171Y-106558973D02*
X147263362Y-106642380D01*
X147263362Y-106642380D02*
X147286395Y-106705662D01*
X147286395Y-106705662D02*
X147289303Y-106812102D01*
X147289303Y-106812102D02*
X147208804Y-106984732D01*
X147208804Y-106984732D02*
X147125397Y-107050922D01*
X147125397Y-107050922D02*
X147062115Y-107073955D01*
X147062115Y-107073955D02*
X146955675Y-107076863D01*
X146955675Y-107076863D02*
X146739888Y-106976240D01*
X146739888Y-106976240D02*
X146673697Y-106892833D01*
X146673697Y-106892833D02*
X146650665Y-106829551D01*
X146650665Y-106829551D02*
X146647756Y-106723111D01*
X146647756Y-106723111D02*
X146728255Y-106550481D01*
X146728255Y-106550481D02*
X146811662Y-106484291D01*
X146811662Y-106484291D02*
X146874944Y-106461258D01*
X146874944Y-106461258D02*
X146981384Y-106458350D01*
D10*
%TO.C,U1*%
X161250149Y-113921097D02*
X161944046Y-114338032D01*
X161944046Y-114338032D02*
X162001156Y-114427901D01*
X162001156Y-114427901D02*
X162017448Y-114493244D01*
X162017448Y-114493244D02*
X162009214Y-114599405D01*
X162009214Y-114599405D02*
X161911111Y-114762675D01*
X161911111Y-114762675D02*
X161821243Y-114819784D01*
X161821243Y-114819784D02*
X161755900Y-114836076D01*
X161755900Y-114836076D02*
X161649739Y-114827842D01*
X161649739Y-114827842D02*
X160955842Y-114410907D01*
X161297971Y-115783112D02*
X161592278Y-115293302D01*
X161445125Y-115538207D02*
X160587957Y-115023169D01*
X160587957Y-115023169D02*
X160759461Y-115015111D01*
X160759461Y-115015111D02*
X160890147Y-114982527D01*
X160890147Y-114982527D02*
X160980016Y-114925418D01*
%TO.C,U5*%
X129749850Y-97378902D02*
X129055953Y-96961967D01*
X129055953Y-96961967D02*
X128998843Y-96872098D01*
X128998843Y-96872098D02*
X128982551Y-96806755D01*
X128982551Y-96806755D02*
X128990785Y-96700594D01*
X128990785Y-96700594D02*
X129088888Y-96537324D01*
X129088888Y-96537324D02*
X129178756Y-96480215D01*
X129178756Y-96480215D02*
X129244099Y-96463923D01*
X129244099Y-96463923D02*
X129350260Y-96472157D01*
X129350260Y-96472157D02*
X130044157Y-96889092D01*
X130534670Y-96072743D02*
X130289414Y-96480917D01*
X130289414Y-96480917D02*
X129856713Y-96276479D01*
X129856713Y-96276479D02*
X129922056Y-96260187D01*
X129922056Y-96260187D02*
X130011925Y-96203078D01*
X130011925Y-96203078D02*
X130134553Y-95998990D01*
X130134553Y-95998990D02*
X130142787Y-95892829D01*
X130142787Y-95892829D02*
X130126495Y-95827486D01*
X130126495Y-95827486D02*
X130069386Y-95737618D01*
X130069386Y-95737618D02*
X129865298Y-95614990D01*
X129865298Y-95614990D02*
X129759137Y-95606756D01*
X129759137Y-95606756D02*
X129693794Y-95623048D01*
X129693794Y-95623048D02*
X129603926Y-95680157D01*
X129603926Y-95680157D02*
X129481298Y-95884244D01*
X129481298Y-95884244D02*
X129473064Y-95990405D01*
X129473064Y-95990405D02*
X129489356Y-96055748D01*
%TO.C,U6*%
X143760034Y-112957015D02*
X143411525Y-113687680D01*
X143411525Y-113687680D02*
X143327544Y-113753140D01*
X143327544Y-113753140D02*
X143264063Y-113775619D01*
X143264063Y-113775619D02*
X143157602Y-113777598D01*
X143157602Y-113777598D02*
X142985681Y-113695596D01*
X142985681Y-113695596D02*
X142920221Y-113611615D01*
X142920221Y-113611615D02*
X142897741Y-113548134D01*
X142897741Y-113548134D02*
X142895762Y-113441673D01*
X142895762Y-113441673D02*
X143244271Y-112711009D01*
X142427646Y-112321499D02*
X142599567Y-112403501D01*
X142599567Y-112403501D02*
X142665027Y-112487482D01*
X142665027Y-112487482D02*
X142687507Y-112550963D01*
X142687507Y-112550963D02*
X142711966Y-112720905D01*
X142711966Y-112720905D02*
X142672944Y-112913327D01*
X142672944Y-112913327D02*
X142508940Y-113257169D01*
X142508940Y-113257169D02*
X142424959Y-113322628D01*
X142424959Y-113322628D02*
X142361478Y-113345108D01*
X142361478Y-113345108D02*
X142255017Y-113347087D01*
X142255017Y-113347087D02*
X142083096Y-113265085D01*
X142083096Y-113265085D02*
X142017636Y-113181104D01*
X142017636Y-113181104D02*
X141995156Y-113117623D01*
X141995156Y-113117623D02*
X141993177Y-113011162D01*
X141993177Y-113011162D02*
X142095679Y-112796261D01*
X142095679Y-112796261D02*
X142179661Y-112730801D01*
X142179661Y-112730801D02*
X142243142Y-112708321D01*
X142243142Y-112708321D02*
X142349603Y-112706342D01*
X142349603Y-112706342D02*
X142521524Y-112788344D01*
X142521524Y-112788344D02*
X142586984Y-112872325D01*
X142586984Y-112872325D02*
X142609463Y-112935806D01*
X142609463Y-112935806D02*
X142611442Y-113042267D01*
D11*
%TO.C,C3*%
X147819109Y-94102872D02*
X147884727Y-94087723D01*
X147884727Y-94087723D02*
X148000813Y-93991808D01*
X148000813Y-93991808D02*
X148051281Y-93911041D01*
X148051281Y-93911041D02*
X148086601Y-93764657D01*
X148086601Y-93764657D02*
X148056303Y-93633422D01*
X148056303Y-93633422D02*
X148000771Y-93542571D01*
X148000771Y-93542571D02*
X147864472Y-93401250D01*
X147864472Y-93401250D02*
X147743322Y-93325548D01*
X147743322Y-93325548D02*
X147556555Y-93264994D01*
X147556555Y-93264994D02*
X147450554Y-93254909D01*
X147450554Y-93254909D02*
X147319319Y-93285207D01*
X147319319Y-93285207D02*
X147203233Y-93381122D01*
X147203233Y-93381122D02*
X147152765Y-93461889D01*
X147152765Y-93461889D02*
X147117445Y-93608273D01*
X147117445Y-93608273D02*
X147132594Y-93673890D01*
X146875188Y-93906104D02*
X146547143Y-94431086D01*
X146547143Y-94431086D02*
X147046848Y-94350278D01*
X147046848Y-94350278D02*
X146971146Y-94471427D01*
X146971146Y-94471427D02*
X146961060Y-94577428D01*
X146961060Y-94577428D02*
X146976209Y-94643046D01*
X146976209Y-94643046D02*
X147031742Y-94733897D01*
X147031742Y-94733897D02*
X147233658Y-94860069D01*
X147233658Y-94860069D02*
X147339659Y-94870154D01*
X147339659Y-94870154D02*
X147405276Y-94855005D01*
X147405276Y-94855005D02*
X147496128Y-94799473D01*
X147496128Y-94799473D02*
X147647533Y-94557173D01*
X147647533Y-94557173D02*
X147657619Y-94451172D01*
X147657619Y-94451172D02*
X147642470Y-94385555D01*
%TO.C,C1*%
X156302696Y-107419111D02*
X156318988Y-107484454D01*
X156318988Y-107484454D02*
X156416915Y-107598848D01*
X156416915Y-107598848D02*
X156498550Y-107647900D01*
X156498550Y-107647900D02*
X156645528Y-107680659D01*
X156645528Y-107680659D02*
X156776214Y-107648075D01*
X156776214Y-107648075D02*
X156866083Y-107590966D01*
X156866083Y-107590966D02*
X157005003Y-107452222D01*
X157005003Y-107452222D02*
X157078580Y-107329769D01*
X157078580Y-107329769D02*
X157135865Y-107141973D01*
X157135865Y-107141973D02*
X157144099Y-107035813D01*
X157144099Y-107035813D02*
X157111515Y-106905127D01*
X157111515Y-106905127D02*
X157013588Y-106790732D01*
X157013588Y-106790732D02*
X156931953Y-106741681D01*
X156931953Y-106741681D02*
X156784975Y-106708922D01*
X156784975Y-106708922D02*
X156719632Y-106725214D01*
X155437295Y-107010233D02*
X155927105Y-107304541D01*
X155682200Y-107157387D02*
X156197238Y-106300220D01*
X156197238Y-106300220D02*
X156205296Y-106471724D01*
X156205296Y-106471724D02*
X156237880Y-106602410D01*
X156237880Y-106602410D02*
X156294990Y-106692279D01*
D10*
%TO.C,U4*%
X138508340Y-88809565D02*
X138140824Y-88088274D01*
X138140824Y-88088274D02*
X138140016Y-87981797D01*
X138140016Y-87981797D02*
X138160826Y-87917750D01*
X138160826Y-87917750D02*
X138224065Y-87832084D01*
X138224065Y-87832084D02*
X138393781Y-87745609D01*
X138393781Y-87745609D02*
X138500257Y-87744801D01*
X138500257Y-87744801D02*
X138564305Y-87765611D01*
X138564305Y-87765611D02*
X138649971Y-87828851D01*
X138649971Y-87828851D02*
X139017487Y-88550142D01*
X139672306Y-87842386D02*
X139369645Y-87248382D01*
X139633110Y-88289910D02*
X139096687Y-87761570D01*
X139096687Y-87761570D02*
X139648262Y-87480528D01*
D11*
%TO.C,C4*%
X138833183Y-97572050D02*
X138812373Y-97636098D01*
X138812373Y-97636098D02*
X138834800Y-97785003D01*
X138834800Y-97785003D02*
X138878037Y-97869861D01*
X138878037Y-97869861D02*
X138985322Y-97975529D01*
X138985322Y-97975529D02*
X139113417Y-98017150D01*
X139113417Y-98017150D02*
X139219893Y-98016341D01*
X139219893Y-98016341D02*
X139411227Y-97972296D01*
X139411227Y-97972296D02*
X139538514Y-97907440D01*
X139538514Y-97907440D02*
X139686611Y-97778537D01*
X139686611Y-97778537D02*
X139749850Y-97692871D01*
X139749850Y-97692871D02*
X139791471Y-97564776D01*
X139791471Y-97564776D02*
X139769044Y-97415870D01*
X139769044Y-97415870D02*
X139725806Y-97331013D01*
X139725806Y-97331013D02*
X139618522Y-97225345D01*
X139618522Y-97225345D02*
X139554474Y-97204534D01*
X138953195Y-96548907D02*
X138359191Y-96851568D01*
X139400719Y-96588103D02*
X138872379Y-97124526D01*
X138872379Y-97124526D02*
X138591337Y-96572951D01*
%TO.C,R1*%
X151046658Y-114399876D02*
X151581683Y-114172683D01*
X151531257Y-114702687D02*
X152061176Y-113854639D01*
X152061176Y-113854639D02*
X151738110Y-113652765D01*
X151738110Y-113652765D02*
X151632110Y-113642679D01*
X151632110Y-113642679D02*
X151566492Y-113657828D01*
X151566492Y-113657828D02*
X151475640Y-113713361D01*
X151475640Y-113713361D02*
X151399938Y-113834510D01*
X151399938Y-113834510D02*
X151389852Y-113940511D01*
X151389852Y-113940511D02*
X151405001Y-114006129D01*
X151405001Y-114006129D02*
X151460534Y-114096980D01*
X151460534Y-114096980D02*
X151783600Y-114298854D01*
X150238993Y-113895191D02*
X150723592Y-114198002D01*
X150481293Y-114046596D02*
X151011212Y-113198548D01*
X151011212Y-113198548D02*
X151016276Y-113370166D01*
X151016276Y-113370166D02*
X151046574Y-113501401D01*
X151046574Y-113501401D02*
X151102106Y-113592253D01*
D12*
%TO.C,C5*%
X130319790Y-103806081D02*
X130588900Y-103358207D01*
X131579826Y-104563187D02*
X131848936Y-104115313D01*
D10*
%TO.C,U3*%
X149392190Y-92207899D02*
X154989308Y-95705366D01*
X154989308Y-95705366D02*
X157638904Y-91465125D01*
X157638904Y-91465125D02*
X152041786Y-87967658D01*
X152041786Y-87967658D02*
X149392190Y-92207899D01*
D12*
%TO.C,C2*%
X154873089Y-98862645D02*
X155394321Y-98826197D01*
X154975631Y-100329065D02*
X155496863Y-100292617D01*
D10*
%TO.C,U2*%
X157797451Y-98445170D02*
X158257843Y-105029093D01*
X158257843Y-105029093D02*
X163245663Y-104680310D01*
X163245663Y-104680310D02*
X162785271Y-98096387D01*
X162785271Y-98096387D02*
X157797451Y-98445170D01*
D12*
%TO.C,C6*%
X149426546Y-107073850D02*
X149205726Y-107547399D01*
X148094274Y-106452601D02*
X147873454Y-106926150D01*
D10*
%TO.C,U1*%
X158006707Y-109033753D02*
X154607456Y-114691057D01*
X154607456Y-114691057D02*
X158893293Y-117266247D01*
X158893293Y-117266247D02*
X162292544Y-111608943D01*
X162292544Y-111608943D02*
X158006707Y-109033753D01*
%TO.C,U5*%
X132993293Y-102316247D02*
X136392544Y-96658943D01*
X136392544Y-96658943D02*
X132106707Y-94083753D01*
X132106707Y-94083753D02*
X128707456Y-99741057D01*
X128707456Y-99741057D02*
X132993293Y-102316247D01*
%TO.C,U6*%
X148489145Y-109531845D02*
X142532082Y-106690472D01*
X142532082Y-106690472D02*
X140379527Y-111203399D01*
X140379527Y-111203399D02*
X146336590Y-114044772D01*
X146336590Y-114044772D02*
X148489145Y-109531845D01*
D12*
%TO.C,C3*%
X148088444Y-94761913D02*
X148365329Y-94318804D01*
X149335075Y-95540894D02*
X149611960Y-95097785D01*
%TO.C,C1*%
X155504616Y-107785427D02*
X155952490Y-108054537D01*
X154747510Y-109045463D02*
X155195384Y-109314573D01*
D10*
%TO.C,U4*%
X138684455Y-94700551D02*
X144565098Y-91704214D01*
X144565098Y-91704214D02*
X142295145Y-87249181D01*
X142295145Y-87249181D02*
X136414502Y-90245518D01*
X136414502Y-90245518D02*
X138684455Y-94700551D01*
D12*
%TO.C,C4*%
X140192701Y-97092040D02*
X139955489Y-96626486D01*
X141502481Y-96424674D02*
X141265269Y-95959120D01*
%TO.C,R1*%
X152596929Y-111606359D02*
X152982052Y-111847010D01*
X151817948Y-112852990D02*
X152203071Y-113093641D01*
%TD*%
M02*
