%TF.GenerationSoftware,KiCad,Pcbnew,(7.0.0)*%
%TF.CreationDate,2023-03-21T20:59:30-07:00*%
%TF.ProjectId,Ladder LEDs v1,4c616464-6572-4204-9c45-44732076312e,rev?*%
%TF.SameCoordinates,Original*%
%TF.FileFunction,Profile,NP*%
%FSLAX46Y46*%
G04 Gerber Fmt 4.6, Leading zero omitted, Abs format (unit mm)*
G04 Created by KiCad (PCBNEW (7.0.0)) date 2023-03-21 20:59:31*
%MOMM*%
%LPD*%
G01*
G04 APERTURE LIST*
%TA.AperFunction,Profile*%
%ADD10C,0.049999*%
%TD*%
G04 APERTURE END LIST*
D10*
X137203651Y-88012302D02*
X138057242Y-87554251D01*
X127943026Y-97596354D02*
X128006795Y-97502293D01*
X149467363Y-85901047D02*
X150071034Y-86027521D01*
X152434916Y-86755670D02*
X153051570Y-87016982D01*
X141560635Y-86195585D02*
X142440849Y-85976137D01*
X136366119Y-88516974D02*
X137203651Y-88012302D01*
X153301344Y-118778063D02*
X152865747Y-118570284D01*
X161382191Y-92989627D02*
X161788100Y-93601062D01*
X157152631Y-119231363D02*
X156652556Y-119302762D01*
X156169460Y-119332840D02*
X155706554Y-119327365D01*
X163678521Y-97357719D02*
X163963299Y-98192313D01*
X153807299Y-118968572D02*
X153301344Y-118778063D01*
X127668883Y-105063301D02*
X127490513Y-104713303D01*
X128722691Y-106505724D02*
X128498735Y-106257173D01*
X127527918Y-98358521D02*
X127571655Y-98260804D01*
X156652556Y-119302762D02*
X156169460Y-119332840D01*
X126850000Y-101650000D02*
X126875606Y-101120894D01*
X127186324Y-103949208D02*
X127065546Y-103534467D01*
X130561789Y-94148556D02*
X131182141Y-93369012D01*
X162550309Y-115314123D02*
X162435088Y-115553100D01*
X154854162Y-119232827D02*
X154471099Y-119155300D01*
X127715906Y-97973137D02*
X127768726Y-97878537D01*
X148822995Y-85790288D02*
X149467363Y-85901047D01*
X127446266Y-98557662D02*
X127486161Y-98457420D01*
X157666474Y-119112875D02*
X157408032Y-119178366D01*
X153465189Y-87213197D02*
X155247942Y-88031106D01*
X150632751Y-86165712D02*
X151151255Y-86311622D01*
X151625289Y-86461250D02*
X152434916Y-86755670D01*
X144181469Y-85684070D02*
X145034717Y-85612184D01*
X161597984Y-116795842D02*
X161264249Y-117144992D01*
X133248149Y-90994537D02*
X133985661Y-90307049D01*
X152865747Y-118570284D02*
X130875006Y-108103742D01*
X128073593Y-97407964D02*
X128143537Y-97313205D01*
X160523121Y-91880702D02*
X160961592Y-92417419D01*
X127486161Y-98457420D02*
X127527918Y-98358521D01*
X160516398Y-117761065D02*
X160102838Y-118033129D01*
X126858711Y-102155588D02*
X126850000Y-101650000D01*
X127861410Y-105392365D02*
X127668883Y-105063301D01*
X160903627Y-117465876D02*
X160516398Y-117761065D01*
X160063599Y-91375743D02*
X160523121Y-91880702D01*
X127824108Y-97784315D02*
X127882169Y-97690307D01*
X164018153Y-107657341D02*
X163654138Y-109981914D01*
X127065546Y-103534467D02*
X126969004Y-103097498D01*
X127490513Y-104713303D02*
X127328820Y-104342046D01*
X157408032Y-119178366D02*
X157152631Y-119231363D01*
X159579846Y-90898805D02*
X160063599Y-91375743D01*
X145863705Y-85584383D02*
X146658284Y-85592292D01*
X164567204Y-101312756D02*
X164613854Y-102007267D01*
X147417197Y-85631912D02*
X148139187Y-85699243D01*
X164630564Y-102655093D02*
X164623230Y-103250010D01*
X154121074Y-119065292D02*
X153807299Y-118968572D01*
X157951392Y-89598773D02*
X158526922Y-90014055D01*
X164623230Y-103250010D02*
X164597747Y-103785795D01*
X157927554Y-119034170D02*
X157666474Y-119112875D01*
X157338909Y-89196572D02*
X157951392Y-89598773D01*
X164484719Y-100577781D02*
X164567204Y-101312756D01*
X130013566Y-94845661D02*
X130561789Y-94148556D01*
X132544587Y-91726813D02*
X133248149Y-90994537D01*
X163458893Y-111303203D02*
X163266555Y-112676685D01*
X162047566Y-116213498D02*
X161904554Y-116415857D01*
X126938048Y-100567946D02*
X127039848Y-99990834D01*
X163654138Y-109981914D02*
X163458893Y-111303203D01*
X155990364Y-88416473D02*
X156686293Y-88803717D01*
X128006795Y-97502293D02*
X128073593Y-97407964D01*
X155247942Y-88031106D02*
X155990364Y-88416473D01*
X158706966Y-118736268D02*
X158190872Y-118941530D01*
X162183682Y-116002466D02*
X162047566Y-116213498D01*
X153051570Y-87016982D02*
X153465189Y-87213197D01*
X155267051Y-119292104D02*
X154854162Y-119232827D01*
X130632108Y-107981904D02*
X130358725Y-107825730D01*
X160102838Y-118033129D02*
X159663228Y-118284637D01*
X150071034Y-86027521D02*
X150632751Y-86165712D01*
X127571655Y-98260804D02*
X127617487Y-98164109D01*
X138057242Y-87554251D02*
X138923315Y-87143186D01*
X163020194Y-113963448D02*
X162853623Y-114536161D01*
X161904554Y-116415857D02*
X161597984Y-116795842D01*
X162568565Y-94956555D02*
X162949482Y-95708083D01*
X154471099Y-119155300D02*
X154121074Y-119065292D01*
X127328820Y-104342046D02*
X127186324Y-103949208D01*
X126969004Y-103097498D02*
X126899219Y-102637979D01*
X127617487Y-98164109D02*
X127665532Y-98068273D01*
X162312868Y-115782441D02*
X162183682Y-116002466D01*
X128762345Y-96477560D02*
X129533540Y-95463849D01*
X128065575Y-105700816D02*
X127861410Y-105392365D01*
X164597747Y-103785795D02*
X164515913Y-104655078D01*
X151151255Y-86311622D02*
X151625289Y-86461250D01*
X131182141Y-93369012D02*
X131878554Y-92503509D01*
X148139187Y-85699243D02*
X148822995Y-85790288D01*
X163157931Y-113344479D02*
X163020194Y-113963448D01*
X126875606Y-101120894D02*
X126938048Y-100567946D01*
X129533540Y-95463849D02*
X130013566Y-94845661D01*
X128216743Y-97217856D02*
X128762345Y-96477560D01*
X156686293Y-88803717D02*
X157338909Y-89196572D01*
X159663228Y-118284637D02*
X159197844Y-118518160D01*
X140678589Y-86463487D02*
X141560635Y-86195585D01*
X162435088Y-115553100D02*
X162312868Y-115782441D01*
X127183524Y-99389234D02*
X127371597Y-98762823D01*
X155706554Y-119327365D02*
X155267051Y-119292104D01*
X146658284Y-85592292D02*
X147417197Y-85631912D01*
X163963299Y-98192313D02*
X164188662Y-99011337D01*
X138923315Y-87143186D02*
X139798290Y-86779476D01*
X160961592Y-92417419D02*
X161382191Y-92989627D01*
X159068680Y-90446155D02*
X159579846Y-90898805D01*
X130875006Y-108103742D02*
X130632108Y-107981904D01*
X134753546Y-89664714D02*
X135548225Y-89067901D01*
X164393852Y-105410246D02*
X164018153Y-107657341D01*
X143315653Y-85805509D02*
X144181469Y-85684070D01*
X128278856Y-105988977D02*
X128065575Y-105700816D01*
X164613854Y-102007267D02*
X164630564Y-102655093D01*
X127665532Y-98068273D02*
X127715906Y-97973137D01*
X128498735Y-106257173D02*
X128278856Y-105988977D01*
X127408117Y-98659410D02*
X127446266Y-98557662D01*
X164360503Y-99808567D02*
X164484719Y-100577781D01*
X164515913Y-104655078D02*
X164393852Y-105410246D01*
X126899219Y-102637979D02*
X126858711Y-102155588D01*
X127768726Y-97878537D02*
X127824108Y-97784315D01*
X159197844Y-118518160D02*
X158706966Y-118736268D01*
X158526922Y-90014055D02*
X159068680Y-90446155D01*
X127882169Y-97690307D02*
X127943026Y-97596354D01*
X128948204Y-106734956D02*
X128722691Y-106505724D01*
X129608889Y-107309957D02*
X129172755Y-106945190D01*
X127371597Y-98762823D02*
X127408117Y-98659410D01*
X139798290Y-86779476D02*
X140678589Y-86463487D01*
X127039848Y-99990834D02*
X127183524Y-99389234D01*
X162949482Y-95708083D02*
X163328430Y-96513778D01*
X130358725Y-107825730D02*
X130010932Y-107602609D01*
X129172755Y-106945190D02*
X128948204Y-106734956D01*
X130010932Y-107602609D02*
X129608889Y-107309957D01*
X142440849Y-85976137D02*
X143315653Y-85805509D01*
X164188662Y-99011337D02*
X164360503Y-99808567D01*
X158190872Y-118941530D02*
X157927554Y-119034170D01*
X128143537Y-97313205D02*
X128216743Y-97217856D01*
X162182498Y-94255460D02*
X162568565Y-94956555D01*
X145034717Y-85612184D02*
X145863705Y-85584383D01*
X161264249Y-117144992D02*
X160903627Y-117465876D01*
X162853623Y-114536161D02*
X162658494Y-115065188D01*
X135548225Y-89067901D02*
X136366119Y-88516974D01*
X133985661Y-90307049D02*
X134753546Y-89664714D01*
X131878554Y-92503509D02*
X132544587Y-91726813D01*
X162658494Y-115065188D02*
X162550309Y-115314123D01*
X163328430Y-96513778D02*
X163678521Y-97357719D01*
X161788100Y-93601062D02*
X162182498Y-94255460D01*
X163266555Y-112676685D02*
X163157931Y-113344479D01*
M02*
