%TF.GenerationSoftware,KiCad,Pcbnew,(7.0.0)*%
%TF.CreationDate,2023-03-21T21:00:09-07:00*%
%TF.ProjectId,Ladder LEDs v1,4c616464-6572-4204-9c45-44732076312e,rev?*%
%TF.SameCoordinates,Original*%
%TF.FileFunction,Drillmap*%
%TF.FilePolarity,Positive*%
%FSLAX45Y45*%
G04 Gerber Fmt 4.5, Leading zero omitted, Abs format (unit mm)*
G04 Created by KiCad (PCBNEW (7.0.0)) date 2023-03-21 21:00:09*
%MOMM*%
%LPD*%
G01*
G04 APERTURE LIST*
%ADD10C,0.049999*%
%ADD11C,0.200000*%
%ADD12C,0.040000*%
%ADD13C,0.157000*%
G04 APERTURE END LIST*
D10*
X13720365Y-8801230D02*
X13805724Y-8755425D01*
X12794303Y-9759635D02*
X12800679Y-9750229D01*
X14946736Y-8590105D02*
X15007103Y-8602752D01*
X15243492Y-8675567D02*
X15305157Y-8701698D01*
X14156063Y-8619559D02*
X14244085Y-8597614D01*
X13636612Y-8851697D02*
X13720365Y-8801230D01*
X15330134Y-11877806D02*
X15286575Y-11857028D01*
X16138219Y-9298963D02*
X16178810Y-9360106D01*
X15715263Y-11923136D02*
X15665256Y-11930276D01*
X15616946Y-11933284D02*
X15570655Y-11932736D01*
X16367852Y-9735772D02*
X16396330Y-9819231D01*
X15380730Y-11896857D02*
X15330134Y-11877806D01*
X12766888Y-10506330D02*
X12749051Y-10471330D01*
X12872269Y-10650572D02*
X12849873Y-10625717D01*
X12752792Y-9835852D02*
X12757165Y-9826080D01*
X15665256Y-11930276D02*
X15616946Y-11933284D01*
X12685000Y-10165000D02*
X12687561Y-10112089D01*
X12718632Y-10394921D02*
X12706555Y-10353447D01*
X13056179Y-9414856D02*
X13118214Y-9336901D01*
X16255031Y-11531412D02*
X16243509Y-11555310D01*
X15485416Y-11923283D02*
X15447110Y-11915530D01*
X12771591Y-9797314D02*
X12776873Y-9787854D01*
X14882299Y-8579029D02*
X14946736Y-8590105D01*
X12744627Y-9855766D02*
X12748616Y-9845742D01*
X15766647Y-11911287D02*
X15740803Y-11917837D01*
X15346519Y-8721320D02*
X15524794Y-8803111D01*
X15063275Y-8616571D02*
X15115125Y-8631162D01*
X15162529Y-8646125D02*
X15243492Y-8675567D01*
X14418147Y-8568407D02*
X14503472Y-8561218D01*
X16159798Y-11679584D02*
X16126425Y-11714499D01*
X13324815Y-9099454D02*
X13398566Y-9030705D01*
X15286575Y-11857028D02*
X13087501Y-10810374D01*
X12807359Y-9740796D02*
X12814354Y-9731321D01*
X16052312Y-9188070D02*
X16096159Y-9241742D01*
X12748616Y-9845742D02*
X12752792Y-9835852D01*
X16051640Y-11776106D02*
X16010284Y-11803313D01*
X12685871Y-10215559D02*
X12685000Y-10165000D01*
X12786141Y-10539237D02*
X12766888Y-10506330D01*
X16090363Y-11746588D02*
X16051640Y-11776106D01*
X16006360Y-9137574D02*
X16052312Y-9188070D01*
X12782411Y-9778432D02*
X12788217Y-9769031D01*
X16401815Y-10765734D02*
X16365414Y-10998191D01*
X12706555Y-10353447D02*
X12696900Y-10309750D01*
X12749051Y-10471330D02*
X12732882Y-10434205D01*
X15740803Y-11917837D02*
X15715263Y-11923136D01*
X15957985Y-9089881D02*
X16006360Y-9137574D01*
X14586370Y-8558438D02*
X14665828Y-8559229D01*
X16456720Y-10131276D02*
X16461385Y-10200727D01*
X14741720Y-8563191D02*
X14813919Y-8569924D01*
X16463056Y-10265509D02*
X16462323Y-10325001D01*
X15412107Y-11906529D02*
X15380730Y-11896857D01*
X15795139Y-8959877D02*
X15852692Y-9001406D01*
X16462323Y-10325001D02*
X16459775Y-10378580D01*
X15792755Y-11903417D02*
X15766647Y-11911287D01*
X15733891Y-8919657D02*
X15795139Y-8959877D01*
X16448472Y-10057778D02*
X16456720Y-10131276D01*
X13001357Y-9484566D02*
X13056179Y-9414856D01*
X13254459Y-9172681D02*
X13324815Y-9099454D01*
X16345889Y-11130320D02*
X16326655Y-11267668D01*
X16204757Y-11621350D02*
X16190455Y-11641586D01*
X12693805Y-10056795D02*
X12703985Y-9999083D01*
X16365414Y-10998191D02*
X16345889Y-11130320D01*
X15599036Y-8841647D02*
X15668629Y-8880372D01*
X12800679Y-9750229D02*
X12807359Y-9740796D01*
X15524794Y-8803111D02*
X15599036Y-8841647D01*
X15870697Y-11873627D02*
X15819087Y-11894153D01*
X16218368Y-11600247D02*
X16204757Y-11621350D01*
X15305157Y-8701698D02*
X15346519Y-8721320D01*
X15526705Y-11929210D02*
X15485416Y-11923283D01*
X13063211Y-10798190D02*
X13035872Y-10782573D01*
X16010284Y-11803313D02*
X15966323Y-11828464D01*
X15007103Y-8602752D02*
X15063275Y-8616571D01*
X12757165Y-9826080D02*
X12761749Y-9816411D01*
X13805724Y-8755425D02*
X13892331Y-8714319D01*
X16302019Y-11396345D02*
X16285362Y-11453616D01*
X16190455Y-11641586D02*
X16159798Y-11679584D01*
X16256856Y-9495656D02*
X16294948Y-9570808D01*
X15447110Y-11915530D02*
X15412107Y-11906529D01*
X12732882Y-10434205D02*
X12718632Y-10394921D01*
X12696900Y-10309750D02*
X12689922Y-10263798D01*
X12761749Y-9816411D02*
X12766553Y-9806827D01*
X16231287Y-11578244D02*
X16218368Y-11600247D01*
X12876234Y-9647756D02*
X12953354Y-9546385D01*
X12806557Y-10570082D02*
X12786141Y-10539237D01*
X16459775Y-10378580D02*
X16451591Y-10465508D01*
X15115125Y-8631162D02*
X15162529Y-8646125D01*
X13118214Y-9336901D02*
X13187855Y-9250351D01*
X14813919Y-8569924D02*
X14882299Y-8579029D01*
X16315793Y-11334448D02*
X16302019Y-11396345D01*
X12687561Y-10112089D02*
X12693805Y-10056795D01*
X12953354Y-9546385D02*
X13001357Y-9484566D01*
X12821674Y-9721786D02*
X12876234Y-9647756D01*
X15668629Y-8880372D02*
X15733891Y-8919657D01*
X15966323Y-11828464D02*
X15919784Y-11851816D01*
X14067859Y-8646349D02*
X14156063Y-8619559D01*
X16243509Y-11555310D02*
X16231287Y-11578244D01*
X12718352Y-9938923D02*
X12737160Y-9876282D01*
X15570655Y-11932736D02*
X15526705Y-11929210D01*
X14665828Y-8559229D02*
X14741720Y-8563191D01*
X16396330Y-9819231D02*
X16418866Y-9901134D01*
X13892331Y-8714319D02*
X13979829Y-8677948D01*
X16096159Y-9241742D02*
X16138219Y-9298963D01*
X15906868Y-9044616D02*
X15957985Y-9089881D01*
X13087501Y-10810374D02*
X13063211Y-10798190D01*
X13475355Y-8966471D02*
X13554822Y-8906790D01*
X16439385Y-10541025D02*
X16401815Y-10765734D01*
X14331565Y-8580551D02*
X14418147Y-8568407D01*
X12827886Y-10598898D02*
X12806557Y-10570082D01*
X16461385Y-10200727D02*
X16463056Y-10265509D01*
X12766553Y-9806827D02*
X12771591Y-9797314D01*
X12849873Y-10625717D02*
X12827886Y-10598898D01*
X12740812Y-9865941D02*
X12744627Y-9855766D01*
X16436050Y-9980857D02*
X16448472Y-10057778D01*
X16451591Y-10465508D02*
X16439385Y-10541025D01*
X12689922Y-10263798D02*
X12685871Y-10215559D01*
X12776873Y-9787854D02*
X12782411Y-9778432D01*
X15919784Y-11851816D02*
X15870697Y-11873627D01*
X15852692Y-9001406D02*
X15906868Y-9044616D01*
X12788217Y-9769031D02*
X12794303Y-9759635D01*
X12894820Y-10673496D02*
X12872269Y-10650572D01*
X12960889Y-10730996D02*
X12917275Y-10694519D01*
X12737160Y-9876282D02*
X12740812Y-9865941D01*
X13979829Y-8677948D02*
X14067859Y-8646349D01*
X12703985Y-9999083D02*
X12718352Y-9938923D01*
X16294948Y-9570808D02*
X16332843Y-9651378D01*
X13035872Y-10782573D02*
X13001093Y-10760261D01*
X12917275Y-10694519D02*
X12894820Y-10673496D01*
X13001093Y-10760261D02*
X12960889Y-10730996D01*
X14244085Y-8597614D02*
X14331565Y-8580551D01*
X16418866Y-9901134D02*
X16436050Y-9980857D01*
X15819087Y-11894153D02*
X15792755Y-11903417D01*
X12814354Y-9731321D02*
X12821674Y-9721786D01*
X16218250Y-9425546D02*
X16256856Y-9495656D01*
X14503472Y-8561218D02*
X14586370Y-8558438D01*
X16126425Y-11714499D02*
X16090363Y-11746588D01*
X16285362Y-11453616D02*
X16265849Y-11506519D01*
X13554822Y-8906790D02*
X13636612Y-8851697D01*
X13398566Y-9030705D02*
X13475355Y-8966471D01*
X13187855Y-9250351D02*
X13254459Y-9172681D01*
X16265849Y-11506519D02*
X16255031Y-11531412D01*
X16332843Y-9651378D02*
X16367852Y-9735772D01*
X16178810Y-9360106D02*
X16218250Y-9425546D01*
X16326655Y-11267668D02*
X16315793Y-11334448D01*
D11*
D12*
X12800000Y-10200000D02*
X12840000Y-10240000D01*
X12840000Y-10200000D02*
X12800000Y-10240000D01*
X14300000Y-9780000D02*
X14340000Y-9820000D01*
X14340000Y-9780000D02*
X14300000Y-9820000D01*
X14420000Y-11010000D02*
X14460000Y-11050000D01*
X14460000Y-11010000D02*
X14420000Y-11050000D01*
X14580000Y-9230000D02*
X14620000Y-9270000D01*
X14620000Y-9230000D02*
X14580000Y-9270000D01*
X14660000Y-10390000D02*
X14700000Y-10430000D01*
X14700000Y-10390000D02*
X14660000Y-10430000D01*
X15000000Y-10920000D02*
X15040000Y-10960000D01*
X15040000Y-10920000D02*
X15000000Y-10960000D01*
X15040000Y-9780000D02*
X15080000Y-9820000D01*
X15080000Y-9780000D02*
X15040000Y-9820000D01*
X15180000Y-10430000D02*
X15220000Y-10470000D01*
X15220000Y-10430000D02*
X15180000Y-10470000D01*
X15225000Y-11010000D02*
X15265000Y-11050000D01*
X15265000Y-11010000D02*
X15225000Y-11050000D01*
X15260000Y-10090000D02*
X15300000Y-10130000D01*
X15300000Y-10090000D02*
X15260000Y-10130000D01*
D13*
X13469925Y-10605113D02*
G75*
G03*
X13469925Y-10605113I-78500J0D01*
G01*
X13689486Y-10144794D02*
G75*
G03*
X13689486Y-10144794I-78500J0D01*
G01*
X13957321Y-10837589D02*
G75*
G03*
X13957321Y-10837589I-78500J0D01*
G01*
X14176882Y-10377270D02*
G75*
G03*
X14176882Y-10377270I-78500J0D01*
G01*
D11*
X12930119Y-12229260D02*
X12930119Y-12029260D01*
X12930119Y-12029260D02*
X12977738Y-12029260D01*
X12977738Y-12029260D02*
X13006310Y-12038784D01*
X13006310Y-12038784D02*
X13025357Y-12057831D01*
X13025357Y-12057831D02*
X13034881Y-12076879D01*
X13034881Y-12076879D02*
X13044405Y-12114974D01*
X13044405Y-12114974D02*
X13044405Y-12143546D01*
X13044405Y-12143546D02*
X13034881Y-12181641D01*
X13034881Y-12181641D02*
X13025357Y-12200689D01*
X13025357Y-12200689D02*
X13006310Y-12219736D01*
X13006310Y-12219736D02*
X12977738Y-12229260D01*
X12977738Y-12229260D02*
X12930119Y-12229260D01*
X13130119Y-12229260D02*
X13130119Y-12095927D01*
X13130119Y-12134022D02*
X13139643Y-12114974D01*
X13139643Y-12114974D02*
X13149167Y-12105450D01*
X13149167Y-12105450D02*
X13168214Y-12095927D01*
X13168214Y-12095927D02*
X13187262Y-12095927D01*
X13253929Y-12229260D02*
X13253929Y-12095927D01*
X13253929Y-12029260D02*
X13244405Y-12038784D01*
X13244405Y-12038784D02*
X13253929Y-12048308D01*
X13253929Y-12048308D02*
X13263452Y-12038784D01*
X13263452Y-12038784D02*
X13253929Y-12029260D01*
X13253929Y-12029260D02*
X13253929Y-12048308D01*
X13377738Y-12229260D02*
X13358690Y-12219736D01*
X13358690Y-12219736D02*
X13349167Y-12200689D01*
X13349167Y-12200689D02*
X13349167Y-12029260D01*
X13482500Y-12229260D02*
X13463452Y-12219736D01*
X13463452Y-12219736D02*
X13453929Y-12200689D01*
X13453929Y-12200689D02*
X13453929Y-12029260D01*
X13678690Y-12229260D02*
X13678690Y-12029260D01*
X13678690Y-12029260D02*
X13745357Y-12172117D01*
X13745357Y-12172117D02*
X13812024Y-12029260D01*
X13812024Y-12029260D02*
X13812024Y-12229260D01*
X13992976Y-12229260D02*
X13992976Y-12124498D01*
X13992976Y-12124498D02*
X13983452Y-12105450D01*
X13983452Y-12105450D02*
X13964405Y-12095927D01*
X13964405Y-12095927D02*
X13926309Y-12095927D01*
X13926309Y-12095927D02*
X13907262Y-12105450D01*
X13992976Y-12219736D02*
X13973929Y-12229260D01*
X13973929Y-12229260D02*
X13926309Y-12229260D01*
X13926309Y-12229260D02*
X13907262Y-12219736D01*
X13907262Y-12219736D02*
X13897738Y-12200689D01*
X13897738Y-12200689D02*
X13897738Y-12181641D01*
X13897738Y-12181641D02*
X13907262Y-12162593D01*
X13907262Y-12162593D02*
X13926309Y-12153070D01*
X13926309Y-12153070D02*
X13973929Y-12153070D01*
X13973929Y-12153070D02*
X13992976Y-12143546D01*
X14088214Y-12095927D02*
X14088214Y-12295927D01*
X14088214Y-12105450D02*
X14107262Y-12095927D01*
X14107262Y-12095927D02*
X14145357Y-12095927D01*
X14145357Y-12095927D02*
X14164405Y-12105450D01*
X14164405Y-12105450D02*
X14173929Y-12114974D01*
X14173929Y-12114974D02*
X14183452Y-12134022D01*
X14183452Y-12134022D02*
X14183452Y-12191165D01*
X14183452Y-12191165D02*
X14173929Y-12210212D01*
X14173929Y-12210212D02*
X14164405Y-12219736D01*
X14164405Y-12219736D02*
X14145357Y-12229260D01*
X14145357Y-12229260D02*
X14107262Y-12229260D01*
X14107262Y-12229260D02*
X14088214Y-12219736D01*
X14269167Y-12210212D02*
X14278690Y-12219736D01*
X14278690Y-12219736D02*
X14269167Y-12229260D01*
X14269167Y-12229260D02*
X14259643Y-12219736D01*
X14259643Y-12219736D02*
X14269167Y-12210212D01*
X14269167Y-12210212D02*
X14269167Y-12229260D01*
X14269167Y-12105450D02*
X14278690Y-12114974D01*
X14278690Y-12114974D02*
X14269167Y-12124498D01*
X14269167Y-12124498D02*
X14259643Y-12114974D01*
X14259643Y-12114974D02*
X14269167Y-12105450D01*
X14269167Y-12105450D02*
X14269167Y-12124498D01*
D12*
X12642500Y-12555784D02*
X12682500Y-12595784D01*
X12682500Y-12555784D02*
X12642500Y-12595784D01*
D11*
X12968214Y-12449260D02*
X12987262Y-12449260D01*
X12987262Y-12449260D02*
X13006310Y-12458784D01*
X13006310Y-12458784D02*
X13015833Y-12468308D01*
X13015833Y-12468308D02*
X13025357Y-12487355D01*
X13025357Y-12487355D02*
X13034881Y-12525450D01*
X13034881Y-12525450D02*
X13034881Y-12573070D01*
X13034881Y-12573070D02*
X13025357Y-12611165D01*
X13025357Y-12611165D02*
X13015833Y-12630212D01*
X13015833Y-12630212D02*
X13006310Y-12639736D01*
X13006310Y-12639736D02*
X12987262Y-12649260D01*
X12987262Y-12649260D02*
X12968214Y-12649260D01*
X12968214Y-12649260D02*
X12949167Y-12639736D01*
X12949167Y-12639736D02*
X12939643Y-12630212D01*
X12939643Y-12630212D02*
X12930119Y-12611165D01*
X12930119Y-12611165D02*
X12920595Y-12573070D01*
X12920595Y-12573070D02*
X12920595Y-12525450D01*
X12920595Y-12525450D02*
X12930119Y-12487355D01*
X12930119Y-12487355D02*
X12939643Y-12468308D01*
X12939643Y-12468308D02*
X12949167Y-12458784D01*
X12949167Y-12458784D02*
X12968214Y-12449260D01*
X13120595Y-12630212D02*
X13130119Y-12639736D01*
X13130119Y-12639736D02*
X13120595Y-12649260D01*
X13120595Y-12649260D02*
X13111071Y-12639736D01*
X13111071Y-12639736D02*
X13120595Y-12630212D01*
X13120595Y-12630212D02*
X13120595Y-12649260D01*
X13301548Y-12515927D02*
X13301548Y-12649260D01*
X13253929Y-12439736D02*
X13206310Y-12582593D01*
X13206310Y-12582593D02*
X13330119Y-12582593D01*
X13444405Y-12449260D02*
X13463452Y-12449260D01*
X13463452Y-12449260D02*
X13482500Y-12458784D01*
X13482500Y-12458784D02*
X13492024Y-12468308D01*
X13492024Y-12468308D02*
X13501548Y-12487355D01*
X13501548Y-12487355D02*
X13511071Y-12525450D01*
X13511071Y-12525450D02*
X13511071Y-12573070D01*
X13511071Y-12573070D02*
X13501548Y-12611165D01*
X13501548Y-12611165D02*
X13492024Y-12630212D01*
X13492024Y-12630212D02*
X13482500Y-12639736D01*
X13482500Y-12639736D02*
X13463452Y-12649260D01*
X13463452Y-12649260D02*
X13444405Y-12649260D01*
X13444405Y-12649260D02*
X13425357Y-12639736D01*
X13425357Y-12639736D02*
X13415833Y-12630212D01*
X13415833Y-12630212D02*
X13406310Y-12611165D01*
X13406310Y-12611165D02*
X13396786Y-12573070D01*
X13396786Y-12573070D02*
X13396786Y-12525450D01*
X13396786Y-12525450D02*
X13406310Y-12487355D01*
X13406310Y-12487355D02*
X13415833Y-12468308D01*
X13415833Y-12468308D02*
X13425357Y-12458784D01*
X13425357Y-12458784D02*
X13444405Y-12449260D01*
X13634881Y-12449260D02*
X13653929Y-12449260D01*
X13653929Y-12449260D02*
X13672976Y-12458784D01*
X13672976Y-12458784D02*
X13682500Y-12468308D01*
X13682500Y-12468308D02*
X13692024Y-12487355D01*
X13692024Y-12487355D02*
X13701548Y-12525450D01*
X13701548Y-12525450D02*
X13701548Y-12573070D01*
X13701548Y-12573070D02*
X13692024Y-12611165D01*
X13692024Y-12611165D02*
X13682500Y-12630212D01*
X13682500Y-12630212D02*
X13672976Y-12639736D01*
X13672976Y-12639736D02*
X13653929Y-12649260D01*
X13653929Y-12649260D02*
X13634881Y-12649260D01*
X13634881Y-12649260D02*
X13615833Y-12639736D01*
X13615833Y-12639736D02*
X13606310Y-12630212D01*
X13606310Y-12630212D02*
X13596786Y-12611165D01*
X13596786Y-12611165D02*
X13587262Y-12573070D01*
X13587262Y-12573070D02*
X13587262Y-12525450D01*
X13587262Y-12525450D02*
X13596786Y-12487355D01*
X13596786Y-12487355D02*
X13606310Y-12468308D01*
X13606310Y-12468308D02*
X13615833Y-12458784D01*
X13615833Y-12458784D02*
X13634881Y-12449260D01*
X13787262Y-12649260D02*
X13787262Y-12515927D01*
X13787262Y-12534974D02*
X13796786Y-12525450D01*
X13796786Y-12525450D02*
X13815833Y-12515927D01*
X13815833Y-12515927D02*
X13844405Y-12515927D01*
X13844405Y-12515927D02*
X13863452Y-12525450D01*
X13863452Y-12525450D02*
X13872976Y-12544498D01*
X13872976Y-12544498D02*
X13872976Y-12649260D01*
X13872976Y-12544498D02*
X13882500Y-12525450D01*
X13882500Y-12525450D02*
X13901548Y-12515927D01*
X13901548Y-12515927D02*
X13930119Y-12515927D01*
X13930119Y-12515927D02*
X13949167Y-12525450D01*
X13949167Y-12525450D02*
X13958691Y-12544498D01*
X13958691Y-12544498D02*
X13958691Y-12649260D01*
X14053929Y-12649260D02*
X14053929Y-12515927D01*
X14053929Y-12534974D02*
X14063452Y-12525450D01*
X14063452Y-12525450D02*
X14082500Y-12515927D01*
X14082500Y-12515927D02*
X14111072Y-12515927D01*
X14111072Y-12515927D02*
X14130119Y-12525450D01*
X14130119Y-12525450D02*
X14139643Y-12544498D01*
X14139643Y-12544498D02*
X14139643Y-12649260D01*
X14139643Y-12544498D02*
X14149167Y-12525450D01*
X14149167Y-12525450D02*
X14168214Y-12515927D01*
X14168214Y-12515927D02*
X14196786Y-12515927D01*
X14196786Y-12515927D02*
X14215833Y-12525450D01*
X14215833Y-12525450D02*
X14225357Y-12544498D01*
X14225357Y-12544498D02*
X14225357Y-12649260D01*
X14583452Y-12439736D02*
X14412024Y-12696879D01*
X14808214Y-12449260D02*
X14827262Y-12449260D01*
X14827262Y-12449260D02*
X14846310Y-12458784D01*
X14846310Y-12458784D02*
X14855833Y-12468308D01*
X14855833Y-12468308D02*
X14865357Y-12487355D01*
X14865357Y-12487355D02*
X14874881Y-12525450D01*
X14874881Y-12525450D02*
X14874881Y-12573070D01*
X14874881Y-12573070D02*
X14865357Y-12611165D01*
X14865357Y-12611165D02*
X14855833Y-12630212D01*
X14855833Y-12630212D02*
X14846310Y-12639736D01*
X14846310Y-12639736D02*
X14827262Y-12649260D01*
X14827262Y-12649260D02*
X14808214Y-12649260D01*
X14808214Y-12649260D02*
X14789167Y-12639736D01*
X14789167Y-12639736D02*
X14779643Y-12630212D01*
X14779643Y-12630212D02*
X14770119Y-12611165D01*
X14770119Y-12611165D02*
X14760595Y-12573070D01*
X14760595Y-12573070D02*
X14760595Y-12525450D01*
X14760595Y-12525450D02*
X14770119Y-12487355D01*
X14770119Y-12487355D02*
X14779643Y-12468308D01*
X14779643Y-12468308D02*
X14789167Y-12458784D01*
X14789167Y-12458784D02*
X14808214Y-12449260D01*
X14960595Y-12630212D02*
X14970119Y-12639736D01*
X14970119Y-12639736D02*
X14960595Y-12649260D01*
X14960595Y-12649260D02*
X14951072Y-12639736D01*
X14951072Y-12639736D02*
X14960595Y-12630212D01*
X14960595Y-12630212D02*
X14960595Y-12649260D01*
X15093929Y-12449260D02*
X15112976Y-12449260D01*
X15112976Y-12449260D02*
X15132024Y-12458784D01*
X15132024Y-12458784D02*
X15141548Y-12468308D01*
X15141548Y-12468308D02*
X15151072Y-12487355D01*
X15151072Y-12487355D02*
X15160595Y-12525450D01*
X15160595Y-12525450D02*
X15160595Y-12573070D01*
X15160595Y-12573070D02*
X15151072Y-12611165D01*
X15151072Y-12611165D02*
X15141548Y-12630212D01*
X15141548Y-12630212D02*
X15132024Y-12639736D01*
X15132024Y-12639736D02*
X15112976Y-12649260D01*
X15112976Y-12649260D02*
X15093929Y-12649260D01*
X15093929Y-12649260D02*
X15074881Y-12639736D01*
X15074881Y-12639736D02*
X15065357Y-12630212D01*
X15065357Y-12630212D02*
X15055833Y-12611165D01*
X15055833Y-12611165D02*
X15046310Y-12573070D01*
X15046310Y-12573070D02*
X15046310Y-12525450D01*
X15046310Y-12525450D02*
X15055833Y-12487355D01*
X15055833Y-12487355D02*
X15065357Y-12468308D01*
X15065357Y-12468308D02*
X15074881Y-12458784D01*
X15074881Y-12458784D02*
X15093929Y-12449260D01*
X15351072Y-12649260D02*
X15236786Y-12649260D01*
X15293929Y-12649260D02*
X15293929Y-12449260D01*
X15293929Y-12449260D02*
X15274881Y-12477831D01*
X15274881Y-12477831D02*
X15255833Y-12496879D01*
X15255833Y-12496879D02*
X15236786Y-12506403D01*
X15532024Y-12449260D02*
X15436786Y-12449260D01*
X15436786Y-12449260D02*
X15427262Y-12544498D01*
X15427262Y-12544498D02*
X15436786Y-12534974D01*
X15436786Y-12534974D02*
X15455833Y-12525450D01*
X15455833Y-12525450D02*
X15503453Y-12525450D01*
X15503453Y-12525450D02*
X15522500Y-12534974D01*
X15522500Y-12534974D02*
X15532024Y-12544498D01*
X15532024Y-12544498D02*
X15541548Y-12563546D01*
X15541548Y-12563546D02*
X15541548Y-12611165D01*
X15541548Y-12611165D02*
X15532024Y-12630212D01*
X15532024Y-12630212D02*
X15522500Y-12639736D01*
X15522500Y-12639736D02*
X15503453Y-12649260D01*
X15503453Y-12649260D02*
X15455833Y-12649260D01*
X15455833Y-12649260D02*
X15436786Y-12639736D01*
X15436786Y-12639736D02*
X15427262Y-12630212D01*
X15608214Y-12449260D02*
X15741548Y-12449260D01*
X15741548Y-12449260D02*
X15655833Y-12649260D01*
X15808214Y-12449260D02*
X15808214Y-12487355D01*
X15884405Y-12449260D02*
X15884405Y-12487355D01*
X16147262Y-12725450D02*
X16137738Y-12715927D01*
X16137738Y-12715927D02*
X16118691Y-12687355D01*
X16118691Y-12687355D02*
X16109167Y-12668308D01*
X16109167Y-12668308D02*
X16099643Y-12639736D01*
X16099643Y-12639736D02*
X16090119Y-12592117D01*
X16090119Y-12592117D02*
X16090119Y-12554022D01*
X16090119Y-12554022D02*
X16099643Y-12506403D01*
X16099643Y-12506403D02*
X16109167Y-12477831D01*
X16109167Y-12477831D02*
X16118691Y-12458784D01*
X16118691Y-12458784D02*
X16137738Y-12430212D01*
X16137738Y-12430212D02*
X16147262Y-12420689D01*
X16328214Y-12649260D02*
X16213929Y-12649260D01*
X16271072Y-12649260D02*
X16271072Y-12449260D01*
X16271072Y-12449260D02*
X16252024Y-12477831D01*
X16252024Y-12477831D02*
X16232976Y-12496879D01*
X16232976Y-12496879D02*
X16213929Y-12506403D01*
X16452024Y-12449260D02*
X16471072Y-12449260D01*
X16471072Y-12449260D02*
X16490119Y-12458784D01*
X16490119Y-12458784D02*
X16499643Y-12468308D01*
X16499643Y-12468308D02*
X16509167Y-12487355D01*
X16509167Y-12487355D02*
X16518691Y-12525450D01*
X16518691Y-12525450D02*
X16518691Y-12573070D01*
X16518691Y-12573070D02*
X16509167Y-12611165D01*
X16509167Y-12611165D02*
X16499643Y-12630212D01*
X16499643Y-12630212D02*
X16490119Y-12639736D01*
X16490119Y-12639736D02*
X16471072Y-12649260D01*
X16471072Y-12649260D02*
X16452024Y-12649260D01*
X16452024Y-12649260D02*
X16432976Y-12639736D01*
X16432976Y-12639736D02*
X16423453Y-12630212D01*
X16423453Y-12630212D02*
X16413929Y-12611165D01*
X16413929Y-12611165D02*
X16404405Y-12573070D01*
X16404405Y-12573070D02*
X16404405Y-12525450D01*
X16404405Y-12525450D02*
X16413929Y-12487355D01*
X16413929Y-12487355D02*
X16423453Y-12468308D01*
X16423453Y-12468308D02*
X16432976Y-12458784D01*
X16432976Y-12458784D02*
X16452024Y-12449260D01*
X16724405Y-12649260D02*
X16724405Y-12449260D01*
X16810119Y-12649260D02*
X16810119Y-12544498D01*
X16810119Y-12544498D02*
X16800596Y-12525450D01*
X16800596Y-12525450D02*
X16781548Y-12515927D01*
X16781548Y-12515927D02*
X16752976Y-12515927D01*
X16752976Y-12515927D02*
X16733929Y-12525450D01*
X16733929Y-12525450D02*
X16724405Y-12534974D01*
X16933929Y-12649260D02*
X16914881Y-12639736D01*
X16914881Y-12639736D02*
X16905357Y-12630212D01*
X16905357Y-12630212D02*
X16895834Y-12611165D01*
X16895834Y-12611165D02*
X16895834Y-12554022D01*
X16895834Y-12554022D02*
X16905357Y-12534974D01*
X16905357Y-12534974D02*
X16914881Y-12525450D01*
X16914881Y-12525450D02*
X16933929Y-12515927D01*
X16933929Y-12515927D02*
X16962500Y-12515927D01*
X16962500Y-12515927D02*
X16981548Y-12525450D01*
X16981548Y-12525450D02*
X16991072Y-12534974D01*
X16991072Y-12534974D02*
X17000596Y-12554022D01*
X17000596Y-12554022D02*
X17000596Y-12611165D01*
X17000596Y-12611165D02*
X16991072Y-12630212D01*
X16991072Y-12630212D02*
X16981548Y-12639736D01*
X16981548Y-12639736D02*
X16962500Y-12649260D01*
X16962500Y-12649260D02*
X16933929Y-12649260D01*
X17114881Y-12649260D02*
X17095834Y-12639736D01*
X17095834Y-12639736D02*
X17086310Y-12620689D01*
X17086310Y-12620689D02*
X17086310Y-12449260D01*
X17267262Y-12639736D02*
X17248215Y-12649260D01*
X17248215Y-12649260D02*
X17210119Y-12649260D01*
X17210119Y-12649260D02*
X17191072Y-12639736D01*
X17191072Y-12639736D02*
X17181548Y-12620689D01*
X17181548Y-12620689D02*
X17181548Y-12544498D01*
X17181548Y-12544498D02*
X17191072Y-12525450D01*
X17191072Y-12525450D02*
X17210119Y-12515927D01*
X17210119Y-12515927D02*
X17248215Y-12515927D01*
X17248215Y-12515927D02*
X17267262Y-12525450D01*
X17267262Y-12525450D02*
X17276786Y-12544498D01*
X17276786Y-12544498D02*
X17276786Y-12563546D01*
X17276786Y-12563546D02*
X17181548Y-12582593D01*
X17352977Y-12639736D02*
X17372024Y-12649260D01*
X17372024Y-12649260D02*
X17410119Y-12649260D01*
X17410119Y-12649260D02*
X17429167Y-12639736D01*
X17429167Y-12639736D02*
X17438691Y-12620689D01*
X17438691Y-12620689D02*
X17438691Y-12611165D01*
X17438691Y-12611165D02*
X17429167Y-12592117D01*
X17429167Y-12592117D02*
X17410119Y-12582593D01*
X17410119Y-12582593D02*
X17381548Y-12582593D01*
X17381548Y-12582593D02*
X17362500Y-12573070D01*
X17362500Y-12573070D02*
X17352977Y-12554022D01*
X17352977Y-12554022D02*
X17352977Y-12544498D01*
X17352977Y-12544498D02*
X17362500Y-12525450D01*
X17362500Y-12525450D02*
X17381548Y-12515927D01*
X17381548Y-12515927D02*
X17410119Y-12515927D01*
X17410119Y-12515927D02*
X17429167Y-12525450D01*
X17505358Y-12725450D02*
X17514881Y-12715927D01*
X17514881Y-12715927D02*
X17533929Y-12687355D01*
X17533929Y-12687355D02*
X17543453Y-12668308D01*
X17543453Y-12668308D02*
X17552977Y-12639736D01*
X17552977Y-12639736D02*
X17562500Y-12592117D01*
X17562500Y-12592117D02*
X17562500Y-12554022D01*
X17562500Y-12554022D02*
X17552977Y-12506403D01*
X17552977Y-12506403D02*
X17543453Y-12477831D01*
X17543453Y-12477831D02*
X17533929Y-12458784D01*
X17533929Y-12458784D02*
X17514881Y-12430212D01*
X17514881Y-12430212D02*
X17505358Y-12420689D01*
D13*
X12682500Y-12839784D02*
G75*
G03*
X12682500Y-12839784I-78500J0D01*
G01*
D11*
X13034881Y-12913260D02*
X12920595Y-12913260D01*
X12977738Y-12913260D02*
X12977738Y-12713260D01*
X12977738Y-12713260D02*
X12958690Y-12741831D01*
X12958690Y-12741831D02*
X12939643Y-12760879D01*
X12939643Y-12760879D02*
X12920595Y-12770403D01*
X13120595Y-12894212D02*
X13130119Y-12903736D01*
X13130119Y-12903736D02*
X13120595Y-12913260D01*
X13120595Y-12913260D02*
X13111071Y-12903736D01*
X13111071Y-12903736D02*
X13120595Y-12894212D01*
X13120595Y-12894212D02*
X13120595Y-12913260D01*
X13311071Y-12713260D02*
X13215833Y-12713260D01*
X13215833Y-12713260D02*
X13206310Y-12808498D01*
X13206310Y-12808498D02*
X13215833Y-12798974D01*
X13215833Y-12798974D02*
X13234881Y-12789450D01*
X13234881Y-12789450D02*
X13282500Y-12789450D01*
X13282500Y-12789450D02*
X13301548Y-12798974D01*
X13301548Y-12798974D02*
X13311071Y-12808498D01*
X13311071Y-12808498D02*
X13320595Y-12827546D01*
X13320595Y-12827546D02*
X13320595Y-12875165D01*
X13320595Y-12875165D02*
X13311071Y-12894212D01*
X13311071Y-12894212D02*
X13301548Y-12903736D01*
X13301548Y-12903736D02*
X13282500Y-12913260D01*
X13282500Y-12913260D02*
X13234881Y-12913260D01*
X13234881Y-12913260D02*
X13215833Y-12903736D01*
X13215833Y-12903736D02*
X13206310Y-12894212D01*
X13387262Y-12713260D02*
X13520595Y-12713260D01*
X13520595Y-12713260D02*
X13434881Y-12913260D01*
X13634881Y-12713260D02*
X13653929Y-12713260D01*
X13653929Y-12713260D02*
X13672976Y-12722784D01*
X13672976Y-12722784D02*
X13682500Y-12732308D01*
X13682500Y-12732308D02*
X13692024Y-12751355D01*
X13692024Y-12751355D02*
X13701548Y-12789450D01*
X13701548Y-12789450D02*
X13701548Y-12837070D01*
X13701548Y-12837070D02*
X13692024Y-12875165D01*
X13692024Y-12875165D02*
X13682500Y-12894212D01*
X13682500Y-12894212D02*
X13672976Y-12903736D01*
X13672976Y-12903736D02*
X13653929Y-12913260D01*
X13653929Y-12913260D02*
X13634881Y-12913260D01*
X13634881Y-12913260D02*
X13615833Y-12903736D01*
X13615833Y-12903736D02*
X13606310Y-12894212D01*
X13606310Y-12894212D02*
X13596786Y-12875165D01*
X13596786Y-12875165D02*
X13587262Y-12837070D01*
X13587262Y-12837070D02*
X13587262Y-12789450D01*
X13587262Y-12789450D02*
X13596786Y-12751355D01*
X13596786Y-12751355D02*
X13606310Y-12732308D01*
X13606310Y-12732308D02*
X13615833Y-12722784D01*
X13615833Y-12722784D02*
X13634881Y-12713260D01*
X13787262Y-12913260D02*
X13787262Y-12779927D01*
X13787262Y-12798974D02*
X13796786Y-12789450D01*
X13796786Y-12789450D02*
X13815833Y-12779927D01*
X13815833Y-12779927D02*
X13844405Y-12779927D01*
X13844405Y-12779927D02*
X13863452Y-12789450D01*
X13863452Y-12789450D02*
X13872976Y-12808498D01*
X13872976Y-12808498D02*
X13872976Y-12913260D01*
X13872976Y-12808498D02*
X13882500Y-12789450D01*
X13882500Y-12789450D02*
X13901548Y-12779927D01*
X13901548Y-12779927D02*
X13930119Y-12779927D01*
X13930119Y-12779927D02*
X13949167Y-12789450D01*
X13949167Y-12789450D02*
X13958691Y-12808498D01*
X13958691Y-12808498D02*
X13958691Y-12913260D01*
X14053929Y-12913260D02*
X14053929Y-12779927D01*
X14053929Y-12798974D02*
X14063452Y-12789450D01*
X14063452Y-12789450D02*
X14082500Y-12779927D01*
X14082500Y-12779927D02*
X14111072Y-12779927D01*
X14111072Y-12779927D02*
X14130119Y-12789450D01*
X14130119Y-12789450D02*
X14139643Y-12808498D01*
X14139643Y-12808498D02*
X14139643Y-12913260D01*
X14139643Y-12808498D02*
X14149167Y-12789450D01*
X14149167Y-12789450D02*
X14168214Y-12779927D01*
X14168214Y-12779927D02*
X14196786Y-12779927D01*
X14196786Y-12779927D02*
X14215833Y-12789450D01*
X14215833Y-12789450D02*
X14225357Y-12808498D01*
X14225357Y-12808498D02*
X14225357Y-12913260D01*
X14583452Y-12703736D02*
X14412024Y-12960879D01*
X14808214Y-12713260D02*
X14827262Y-12713260D01*
X14827262Y-12713260D02*
X14846310Y-12722784D01*
X14846310Y-12722784D02*
X14855833Y-12732308D01*
X14855833Y-12732308D02*
X14865357Y-12751355D01*
X14865357Y-12751355D02*
X14874881Y-12789450D01*
X14874881Y-12789450D02*
X14874881Y-12837070D01*
X14874881Y-12837070D02*
X14865357Y-12875165D01*
X14865357Y-12875165D02*
X14855833Y-12894212D01*
X14855833Y-12894212D02*
X14846310Y-12903736D01*
X14846310Y-12903736D02*
X14827262Y-12913260D01*
X14827262Y-12913260D02*
X14808214Y-12913260D01*
X14808214Y-12913260D02*
X14789167Y-12903736D01*
X14789167Y-12903736D02*
X14779643Y-12894212D01*
X14779643Y-12894212D02*
X14770119Y-12875165D01*
X14770119Y-12875165D02*
X14760595Y-12837070D01*
X14760595Y-12837070D02*
X14760595Y-12789450D01*
X14760595Y-12789450D02*
X14770119Y-12751355D01*
X14770119Y-12751355D02*
X14779643Y-12732308D01*
X14779643Y-12732308D02*
X14789167Y-12722784D01*
X14789167Y-12722784D02*
X14808214Y-12713260D01*
X14960595Y-12894212D02*
X14970119Y-12903736D01*
X14970119Y-12903736D02*
X14960595Y-12913260D01*
X14960595Y-12913260D02*
X14951072Y-12903736D01*
X14951072Y-12903736D02*
X14960595Y-12894212D01*
X14960595Y-12894212D02*
X14960595Y-12913260D01*
X15093929Y-12713260D02*
X15112976Y-12713260D01*
X15112976Y-12713260D02*
X15132024Y-12722784D01*
X15132024Y-12722784D02*
X15141548Y-12732308D01*
X15141548Y-12732308D02*
X15151072Y-12751355D01*
X15151072Y-12751355D02*
X15160595Y-12789450D01*
X15160595Y-12789450D02*
X15160595Y-12837070D01*
X15160595Y-12837070D02*
X15151072Y-12875165D01*
X15151072Y-12875165D02*
X15141548Y-12894212D01*
X15141548Y-12894212D02*
X15132024Y-12903736D01*
X15132024Y-12903736D02*
X15112976Y-12913260D01*
X15112976Y-12913260D02*
X15093929Y-12913260D01*
X15093929Y-12913260D02*
X15074881Y-12903736D01*
X15074881Y-12903736D02*
X15065357Y-12894212D01*
X15065357Y-12894212D02*
X15055833Y-12875165D01*
X15055833Y-12875165D02*
X15046310Y-12837070D01*
X15046310Y-12837070D02*
X15046310Y-12789450D01*
X15046310Y-12789450D02*
X15055833Y-12751355D01*
X15055833Y-12751355D02*
X15065357Y-12732308D01*
X15065357Y-12732308D02*
X15074881Y-12722784D01*
X15074881Y-12722784D02*
X15093929Y-12713260D01*
X15332024Y-12713260D02*
X15293929Y-12713260D01*
X15293929Y-12713260D02*
X15274881Y-12722784D01*
X15274881Y-12722784D02*
X15265357Y-12732308D01*
X15265357Y-12732308D02*
X15246310Y-12760879D01*
X15246310Y-12760879D02*
X15236786Y-12798974D01*
X15236786Y-12798974D02*
X15236786Y-12875165D01*
X15236786Y-12875165D02*
X15246310Y-12894212D01*
X15246310Y-12894212D02*
X15255833Y-12903736D01*
X15255833Y-12903736D02*
X15274881Y-12913260D01*
X15274881Y-12913260D02*
X15312976Y-12913260D01*
X15312976Y-12913260D02*
X15332024Y-12903736D01*
X15332024Y-12903736D02*
X15341548Y-12894212D01*
X15341548Y-12894212D02*
X15351072Y-12875165D01*
X15351072Y-12875165D02*
X15351072Y-12827546D01*
X15351072Y-12827546D02*
X15341548Y-12808498D01*
X15341548Y-12808498D02*
X15332024Y-12798974D01*
X15332024Y-12798974D02*
X15312976Y-12789450D01*
X15312976Y-12789450D02*
X15274881Y-12789450D01*
X15274881Y-12789450D02*
X15255833Y-12798974D01*
X15255833Y-12798974D02*
X15246310Y-12808498D01*
X15246310Y-12808498D02*
X15236786Y-12827546D01*
X15541548Y-12913260D02*
X15427262Y-12913260D01*
X15484405Y-12913260D02*
X15484405Y-12713260D01*
X15484405Y-12713260D02*
X15465357Y-12741831D01*
X15465357Y-12741831D02*
X15446310Y-12760879D01*
X15446310Y-12760879D02*
X15427262Y-12770403D01*
X15655833Y-12798974D02*
X15636786Y-12789450D01*
X15636786Y-12789450D02*
X15627262Y-12779927D01*
X15627262Y-12779927D02*
X15617738Y-12760879D01*
X15617738Y-12760879D02*
X15617738Y-12751355D01*
X15617738Y-12751355D02*
X15627262Y-12732308D01*
X15627262Y-12732308D02*
X15636786Y-12722784D01*
X15636786Y-12722784D02*
X15655833Y-12713260D01*
X15655833Y-12713260D02*
X15693929Y-12713260D01*
X15693929Y-12713260D02*
X15712976Y-12722784D01*
X15712976Y-12722784D02*
X15722500Y-12732308D01*
X15722500Y-12732308D02*
X15732024Y-12751355D01*
X15732024Y-12751355D02*
X15732024Y-12760879D01*
X15732024Y-12760879D02*
X15722500Y-12779927D01*
X15722500Y-12779927D02*
X15712976Y-12789450D01*
X15712976Y-12789450D02*
X15693929Y-12798974D01*
X15693929Y-12798974D02*
X15655833Y-12798974D01*
X15655833Y-12798974D02*
X15636786Y-12808498D01*
X15636786Y-12808498D02*
X15627262Y-12818022D01*
X15627262Y-12818022D02*
X15617738Y-12837070D01*
X15617738Y-12837070D02*
X15617738Y-12875165D01*
X15617738Y-12875165D02*
X15627262Y-12894212D01*
X15627262Y-12894212D02*
X15636786Y-12903736D01*
X15636786Y-12903736D02*
X15655833Y-12913260D01*
X15655833Y-12913260D02*
X15693929Y-12913260D01*
X15693929Y-12913260D02*
X15712976Y-12903736D01*
X15712976Y-12903736D02*
X15722500Y-12894212D01*
X15722500Y-12894212D02*
X15732024Y-12875165D01*
X15732024Y-12875165D02*
X15732024Y-12837070D01*
X15732024Y-12837070D02*
X15722500Y-12818022D01*
X15722500Y-12818022D02*
X15712976Y-12808498D01*
X15712976Y-12808498D02*
X15693929Y-12798974D01*
X15808214Y-12713260D02*
X15808214Y-12751355D01*
X15884405Y-12713260D02*
X15884405Y-12751355D01*
X16147262Y-12989450D02*
X16137738Y-12979927D01*
X16137738Y-12979927D02*
X16118691Y-12951355D01*
X16118691Y-12951355D02*
X16109167Y-12932308D01*
X16109167Y-12932308D02*
X16099643Y-12903736D01*
X16099643Y-12903736D02*
X16090119Y-12856117D01*
X16090119Y-12856117D02*
X16090119Y-12818022D01*
X16090119Y-12818022D02*
X16099643Y-12770403D01*
X16099643Y-12770403D02*
X16109167Y-12741831D01*
X16109167Y-12741831D02*
X16118691Y-12722784D01*
X16118691Y-12722784D02*
X16137738Y-12694212D01*
X16137738Y-12694212D02*
X16147262Y-12684689D01*
X16309167Y-12779927D02*
X16309167Y-12913260D01*
X16261548Y-12703736D02*
X16213929Y-12846593D01*
X16213929Y-12846593D02*
X16337738Y-12846593D01*
X16533929Y-12913260D02*
X16533929Y-12713260D01*
X16619643Y-12913260D02*
X16619643Y-12808498D01*
X16619643Y-12808498D02*
X16610119Y-12789450D01*
X16610119Y-12789450D02*
X16591072Y-12779927D01*
X16591072Y-12779927D02*
X16562500Y-12779927D01*
X16562500Y-12779927D02*
X16543453Y-12789450D01*
X16543453Y-12789450D02*
X16533929Y-12798974D01*
X16743453Y-12913260D02*
X16724405Y-12903736D01*
X16724405Y-12903736D02*
X16714881Y-12894212D01*
X16714881Y-12894212D02*
X16705357Y-12875165D01*
X16705357Y-12875165D02*
X16705357Y-12818022D01*
X16705357Y-12818022D02*
X16714881Y-12798974D01*
X16714881Y-12798974D02*
X16724405Y-12789450D01*
X16724405Y-12789450D02*
X16743453Y-12779927D01*
X16743453Y-12779927D02*
X16772024Y-12779927D01*
X16772024Y-12779927D02*
X16791072Y-12789450D01*
X16791072Y-12789450D02*
X16800596Y-12798974D01*
X16800596Y-12798974D02*
X16810119Y-12818022D01*
X16810119Y-12818022D02*
X16810119Y-12875165D01*
X16810119Y-12875165D02*
X16800596Y-12894212D01*
X16800596Y-12894212D02*
X16791072Y-12903736D01*
X16791072Y-12903736D02*
X16772024Y-12913260D01*
X16772024Y-12913260D02*
X16743453Y-12913260D01*
X16924405Y-12913260D02*
X16905357Y-12903736D01*
X16905357Y-12903736D02*
X16895834Y-12884689D01*
X16895834Y-12884689D02*
X16895834Y-12713260D01*
X17076786Y-12903736D02*
X17057738Y-12913260D01*
X17057738Y-12913260D02*
X17019643Y-12913260D01*
X17019643Y-12913260D02*
X17000596Y-12903736D01*
X17000596Y-12903736D02*
X16991072Y-12884689D01*
X16991072Y-12884689D02*
X16991072Y-12808498D01*
X16991072Y-12808498D02*
X17000596Y-12789450D01*
X17000596Y-12789450D02*
X17019643Y-12779927D01*
X17019643Y-12779927D02*
X17057738Y-12779927D01*
X17057738Y-12779927D02*
X17076786Y-12789450D01*
X17076786Y-12789450D02*
X17086310Y-12808498D01*
X17086310Y-12808498D02*
X17086310Y-12827546D01*
X17086310Y-12827546D02*
X16991072Y-12846593D01*
X17162500Y-12903736D02*
X17181548Y-12913260D01*
X17181548Y-12913260D02*
X17219643Y-12913260D01*
X17219643Y-12913260D02*
X17238691Y-12903736D01*
X17238691Y-12903736D02*
X17248215Y-12884689D01*
X17248215Y-12884689D02*
X17248215Y-12875165D01*
X17248215Y-12875165D02*
X17238691Y-12856117D01*
X17238691Y-12856117D02*
X17219643Y-12846593D01*
X17219643Y-12846593D02*
X17191072Y-12846593D01*
X17191072Y-12846593D02*
X17172024Y-12837070D01*
X17172024Y-12837070D02*
X17162500Y-12818022D01*
X17162500Y-12818022D02*
X17162500Y-12808498D01*
X17162500Y-12808498D02*
X17172024Y-12789450D01*
X17172024Y-12789450D02*
X17191072Y-12779927D01*
X17191072Y-12779927D02*
X17219643Y-12779927D01*
X17219643Y-12779927D02*
X17238691Y-12789450D01*
X17314881Y-12989450D02*
X17324405Y-12979927D01*
X17324405Y-12979927D02*
X17343453Y-12951355D01*
X17343453Y-12951355D02*
X17352977Y-12932308D01*
X17352977Y-12932308D02*
X17362500Y-12903736D01*
X17362500Y-12903736D02*
X17372024Y-12856117D01*
X17372024Y-12856117D02*
X17372024Y-12818022D01*
X17372024Y-12818022D02*
X17362500Y-12770403D01*
X17362500Y-12770403D02*
X17352977Y-12741831D01*
X17352977Y-12741831D02*
X17343453Y-12722784D01*
X17343453Y-12722784D02*
X17324405Y-12694212D01*
X17324405Y-12694212D02*
X17314881Y-12684689D01*
M02*
